<svg xmlns="http://www.w3.org/2000/svg">
<defs>
<font id="GelatoScript" horiz-adv-x="346" >
  <font-face 
    font-family="Gelato Script"
    font-weight="400"
    font-stretch="normal"
    units-per-em="1000"
    panose-1="2 0 0 0 0 0 0 0 0 0"
    ascent="750"
    descent="-250"
    x-height="378"
    cap-height="712"
    bbox="-3226 -323 1651 943"
    underline-thickness="50"
    underline-position="-100"
    unicode-range="U+0020-FB02"
  />
<missing-glyph horiz-adv-x="1698" 
d="M1651 44c0 -9 -14 -21 -35 -30c-10 -44 -30 -97 -73 -97c-20 0 -31 17 -31 31c0 25 22 42 69 62c2 8 4 17 5 25c-11 -14 -23 -24 -36 -24c-19 0 -23 17 -23 28v6c-18 -18 -41 -34 -64 -34c-17 0 -26 8 -26 24c0 21 24 49 24 49c-5 0 -9 0 -13 2c-49 -67 -55 -75 -77 -75
c-13 0 -20 11 -23 22c-9 -13 -22 -22 -38 -22c-21 0 -32 13 -32 36c-26 -31 -35 -36 -52 -36c-19 0 -22 17 -22 28c0 23 17 47 17 56c0 2 -1 3 -3 3c-8 0 -28 -28 -35 -46c0 -1 -1 -2 -1 -3c-7 -18 -15 -38 -31 -38c-8 0 -14 6 -14 20c0 6 1 11 2 15
c-25 -30 -35 -35 -52 -35s-21 14 -22 25c-11 -14 -23 -25 -36 -25c-20 0 -24 17 -24 28c0 13 3 32 8 49l-17 -6c-4 -34 -28 -71 -63 -71c-22 0 -34 14 -34 39c0 35 32 61 36 61c2 0 3 -1 3 -3c0 -6 -10 -21 -10 -39c0 -15 5 -28 18 -28c18 0 32 22 34 40
c-20 0 -34 13 -34 28c0 11 12 22 23 22c16 0 26 -13 27 -37c6 1 14 3 21 7c6 17 15 30 26 30c10 0 15 -6 15 -13s-10 -17 -10 -18c-2 -7 -10 -29 -10 -51c0 -8 2 -13 6 -13c8 0 16 10 23 23c5 32 20 72 39 72c10 0 15 -6 15 -17c0 -14 -17 -36 -17 -36s-6 -17 -6 -30
c0 -7 3 -13 9 -13c9 0 16 8 41 41l6 27c2 20 15 28 28 28c8 0 11 -6 11 -15s-2 -21 -7 -35c16 23 38 50 58 50c11 0 16 -6 16 -17c0 -25 -14 -47 -20 -61c-2 -5 -3 -10 -3 -13c0 -6 3 -9 6 -9c6 0 18 10 36 32c6 29 29 68 61 68c6 0 15 -3 21 -8c5 17 12 38 12 55
c0 6 0 12 -1 17c-15 -7 -31 -11 -49 -11c-36 0 -56 16 -56 41c0 17 18 35 56 35c29 0 57 -7 72 -29c46 32 95 78 140 78c40 0 51 -20 51 -37c0 -11 -7 -21 -11 -21c-7 0 -5 15 -39 15c-59 0 -96 -29 -132 -52c3 -9 5 -20 5 -33c0 -32 -26 -96 -26 -124c0 -12 2 -15 5 -15

<glyph glyph-name="F_f" unicode="Ff" horiz-adv-x="1004" 
d="M1112 278c10 0 15 -7 15 -15c0 -4 -1 -7 -3 -11c-90 -117 -175 -162 -175 -162c21 -31 30 -70 30 -112c0 -131 -90 -289 -199 -289c-87 0 -114 80 -114 177c0 219 128 604 185 714c-74 26 -156 72 -279 72c-153 0 -277 -88 -277 -192c0 -70 42 -126 145 -142
c76 235 208 269 252 269c9 0 13 -5 13 -9c0 -22 -40 33 -124 -257c52 11 86 35 86 75c0 25 -15 37 -15 44c0 5 12 8 19 8c26 0 70 -24 70 -64c0 -69 -88 -103 -176 -117c-87 -295 -271 -347 -391 -347c-121 0 -184 63 -184 126c0 50 36 99 90 99c45 0 76 -36 76 -81
c0 -49 -45 -67 -45 -67s20 -27 63 -27c82 0 163 32 248 290c-189 11 -259 101 -259 184c0 160 175 262 418 262c134 0 268 -59 300 -63c31 45 87 72 132 72c50 0 86 -21 86 -66c0 -43 -49 -84 -148 -87c-69 -162 -171 -499 -171 -643c0 -50 13 -86 52 -86c52 0 85 93 85 166
c0 30 -6 57 -18 73c0 0 -11 -2 -23 -2c-18 0 -40 5 -40 29c0 22 22 36 45 36s36 -9 36 -9c68 18 123 76 180 144c4 5 9 8 15 8zM1023 660c-16 -2 -36 -24 -44 -40c0 0 4 -1 10 -1c15 0 47 8 47 29c0 7 -4 12 -13 12z" />
    <glyph glyph-name="F_h" unicode="Fh" horiz-adv-x="1109" 
d="M1218 282c10 0 14 -6 14 -15c0 -4 -2 -10 -4 -13c-156 -232 -206 -261 -278 -261c-63 0 -78 47 -78 83c0 75 60 154 60 179c0 5 -3 8 -9 8c-25 0 -94 -99 -120 -165c-21 -55 -39 -105 -92 -105c-26 0 -44 22 -44 54c0 40 22 63 36 112c42 153 101 325 145 420
c-73 26 -155 71 -277 71c-153 0 -277 -88 -277 -192c0 -70 43 -126 146 -142c76 236 208 271 252 271c9 0 14 -5 14 -9c0 -22 -41 33 -125 -259c51 11 85 35 85 75c0 25 -15 37 -15 44c0 5 12 8 19 8c26 0 70 -24 70 -64c0 -69 -87 -103 -175 -117
c-88 -293 -271 -345 -390 -345c-122 0 -185 63 -185 126c0 50 36 99 90 99c45 0 77 -36 77 -81c0 -49 -45 -67 -45 -67s19 -27 63 -27c81 0 162 32 247 288c-189 11 -260 101 -260 184c0 160 175 262 418 262c134 0 269 -59 300 -63c32 45 87 72 132 72c50 0 87 -21 87 -66
c0 -43 -50 -85 -151 -87c-48 -114 -133 -365 -133 -365c52 94 135 185 194 185c32 0 49 -21 49 -54c0 -81 -45 -153 -63 -198c-7 -17 -10 -32 -10 -43c0 -19 8 -29 19 -29c36 0 82 51 197 216c5 6 10 10 17 10zM1022 658c-16 -2 -36 -24 -44 -40c0 0 4 -1 10 -1
c14 0 48 8 48 29c0 6 -5 12 -14 12z" />
    <glyph glyph-name="F_i" unicode="Fi" horiz-adv-x="889" 
d="M997 280c8 0 15 -5 15 -14c0 -4 -2 -9 -5 -14c-117 -183 -188 -261 -268 -261c-63 0 -72 54 -72 90c0 52 15 127 39 188c-44 -5 -93 -8 -142 -11c-89 -298 -278 -338 -386 -338c-127 0 -188 63 -188 126c0 49 36 99 90 99c45 0 77 -36 77 -80c0 -52 -45 -69 -45 -69
s13 -27 72 -27c74 0 157 42 237 287c-107 12 -263 64 -263 206c0 149 150 241 322 241c176 0 253 -84 327 -95c10 24 35 41 66 41c47 0 74 -32 74 -70c0 -46 -30 -87 -87 -87c-109 0 -173 153 -353 153c-130 0 -212 -80 -212 -177c0 -80 59 -141 146 -150l4 13
c29 91 77 237 209 237c23 0 25 -5 25 -7c0 -14 -34 -21 -100 -249c48 0 116 12 161 26c17 24 37 40 57 40c33 0 50 -21 50 -54c0 -27 -34 -50 -34 -50c-18 -64 -32 -128 -32 -162c0 -28 7 -45 21 -45c37 0 115 111 178 203c5 7 11 10 17 10z" />
    <glyph glyph-name="F_j" unicode="Fj" horiz-adv-x="900" 
d="M1008 278c10 0 15 -7 15 -15c0 -4 -1 -7 -3 -11c-42 -57 -102 -176 -240 -249c-31 -142 -97 -314 -236 -314c-64 0 -99 53 -99 98c0 78 71 135 222 201c12 49 20 97 25 133c9 61 17 111 27 150c-47 -6 -101 -9 -155 -13c-89 -298 -278 -338 -386 -338
c-127 0 -188 63 -188 126c0 49 36 99 90 99c45 0 77 -36 77 -80c0 -52 -45 -69 -45 -69s13 -27 72 -27c74 0 157 42 237 287c-107 12 -263 64 -263 206c0 149 150 241 322 241c176 0 253 -84 327 -95c10 24 35 41 66 41c47 0 74 -32 74 -70c0 -46 -30 -87 -87 -87
c-109 0 -173 153 -353 153c-130 0 -212 -80 -212 -177c0 -80 59 -141 146 -150l4 13c29 91 77 237 209 237c23 0 25 -5 25 -7c0 -14 -34 -21 -100 -249c51 0 120 13 166 28c17 25 38 38 69 38c29 0 54 -11 54 -32c0 -35 -35 -53 -35 -53c-11 -33 -35 -194 -44 -244
c112 72 169 177 204 221c4 5 9 8 15 8zM552 -207c40 0 84 82 106 156c-70 -32 -137 -83 -137 -125c0 -18 13 -31 31 -31z" />
    <glyph glyph-name="F_l" unicode="Fl" horiz-adv-x="947" 
d="M1099 649c0 -44 -48 -92 -126 -92c-7 0 -14 0 -22 1c-39 -68 -136 -333 -136 -426c0 -36 9 -58 31 -58c23 0 49 9 193 198c5 6 11 9 17 9c8 0 14 -5 14 -14c0 -4 -1 -8 -4 -13c-171 -234 -207 -261 -279 -261c-54 0 -89 36 -89 117c0 107 66 312 148 468
c-74 28 -180 74 -292 74c-153 0 -263 -78 -263 -182c0 -69 46 -133 149 -151c77 234 208 268 252 268c8 0 13 -5 13 -9c0 -22 -40 33 -125 -257c53 11 87 35 87 75c0 25 -15 37 -15 44c0 5 12 8 19 8c26 0 70 -24 70 -64c0 -69 -88 -103 -176 -117
c-87 -295 -272 -347 -391 -347c-121 0 -184 63 -184 126c0 50 36 99 90 99c45 0 76 -36 76 -81c0 -49 -45 -67 -45 -67s20 -27 63 -27c82 0 163 32 248 290c-190 13 -268 121 -268 204c0 160 166 242 409 242c134 0 286 -59 318 -63c31 45 71 81 132 81c50 0 86 -30 86 -75z
M1023 660c-16 -2 -36 -24 -44 -40c0 0 4 -1 10 -1c15 0 47 8 47 29c0 7 -4 12 -13 12z" />
    <glyph glyph-name="F_r" unicode="Fr" horiz-adv-x="983" 
d="M1076 265c5 6 11 9 16 9c8 0 14 -6 14 -15c0 -3 -1 -8 -3 -12c0 0 -159 -256 -321 -256c-56 0 -86 27 -86 76c0 69 79 158 79 158c-46 0 -92 23 -113 63c-31 -11 -66 -19 -97 -24c-89 -298 -279 -344 -387 -344c-127 0 -188 63 -188 126c0 49 36 99 90 99
c45 0 77 -36 77 -80c0 -52 -45 -69 -45 -69s13 -27 72 -27c74 0 157 42 237 287c-107 12 -263 64 -263 206c0 160 181 241 364 241c123 0 234 -37 319 -37c49 0 63 12 63 27c0 13 -10 16 -10 22c0 2 1 6 17 6c37 0 111 -23 111 -92c0 -47 -35 -83 -105 -83
c-115 0 -219 99 -385 99c-150 0 -237 -80 -237 -177c0 -80 59 -130 146 -150c39 79 101 268 240 268c23 0 25 -5 25 -7c0 -9 -53 -10 -126 -261c24 5 49 12 70 22c1 45 28 96 78 96c31 0 51 -25 51 -56c0 -25 -20 -44 -29 -52c0 0 13 -27 66 -27c56 0 90 36 120 36
c31 0 42 -21 42 -42c0 -37 -79 -57 -79 -57c-52 -49 -81 -109 -81 -148c0 -23 15 -32 33 -32c82 0 225 207 225 207z" />
    <glyph glyph-name="N_i" unicode="Ni" horiz-adv-x="1135" 
d="M1026 701c0 -44 -22 -110 -50 -174c19 -15 32 -21 43 -22l-2 21c0 25 21 57 59 57c44 0 76 -27 76 -67c0 -36 -30 -63 -76 -63c-38 0 -77 16 -114 43c-48 -114 -132 -261 -200 -356c3 -18 7 -30 7 -56c0 -74 -32 -122 -94 -122c-23 0 -45 20 -45 48c0 17 10 49 21 80
c-26 121 -75 216 -106 308c-76 -240 -166 -479 -380 -479c-117 0 -180 69 -180 135c0 45 28 87 78 87c48 0 87 -37 87 -85c0 -26 -11 -42 -22 -51c14 -4 28 -6 42 -6c148 0 235 224 338 482l12 30c-2 18 -3 36 -3 52c0 111 43 170 95 170c18 0 33 -18 33 -53
c0 -23 -6 -56 -21 -92c0 0 5 -57 23 -106c27 -76 71 -175 91 -255c69 102 126 236 159 329c-42 50 -71 106 -71 155s26 105 87 105c71 0 113 -56 113 -115zM868 703c0 -20 6 -54 42 -104c8 27 12 53 12 73c0 42 -15 63 -35 63c-12 0 -19 -16 -19 -32zM1226 270
c5 7 11 10 17 10c8 0 15 -5 15 -14c0 -4 -2 -9 -5 -14c-122 -180 -188 -261 -268 -261c-63 0 -72 54 -72 90c0 103 58 297 130 297c33 0 50 -21 50 -54c0 -69 -56 -136 -56 -136c-5 -22 -10 -59 -10 -76c0 -28 7 -45 21 -45c37 0 115 111 178 203z" />
    <glyph glyph-name="T_h" unicode="Th" horiz-adv-x="1049" 
d="M1158 280c10 0 14 -6 14 -15c0 -4 -2 -10 -4 -13c-156 -232 -206 -261 -278 -261c-63 0 -78 47 -78 83c0 75 60 154 60 179c0 5 -3 8 -9 8c-25 0 -94 -99 -120 -165c-21 -55 -39 -105 -92 -105c-26 0 -44 22 -44 54c0 40 22 63 35 112c42 153 101 325 145 420
c-75 28 -159 71 -257 71c-153 0 -279 -81 -279 -207c0 -67 43 -90 76 -90c45 0 59 31 72 31c4 0 6 -5 6 -14c0 -34 -32 -121 -119 -121c-81 0 -147 68 -147 158c0 175 157 297 400 297c158 0 248 -59 279 -63c32 45 77 72 122 72c58 0 90 -27 90 -72c0 -67 -92 -84 -145 -85
c-48 -116 -130 -361 -130 -361c52 94 135 185 194 185c32 0 49 -21 49 -54c0 -81 -45 -153 -63 -198c-7 -17 -10 -32 -10 -43c0 -19 8 -29 19 -29c36 0 82 51 197 216c5 6 10 10 17 10zM706 576c0 -23 -44 37 -135 -293c-86 -310 -275 -364 -396 -364
c-122 0 -185 63 -185 126c0 49 36 99 90 99c45 0 77 -36 77 -81c0 -50 -45 -68 -45 -68s19 -27 63 -27c85 0 171 36 261 333c75 248 211 284 256 284c9 0 14 -5 14 -9zM960 655c-19 0 -36 -23 -44 -39h8c15 0 48 5 48 28c0 6 -5 11 -12 11z" />
    <glyph glyph-name="T_i" unicode="Ti" horiz-adv-x="842" 
d="M692 585c9 0 13 -5 13 -9c0 -23 -44 37 -135 -293c-85 -310 -274 -364 -396 -364c-121 0 -184 63 -184 126c0 49 36 99 90 99c45 0 76 -36 76 -81c0 -50 -45 -68 -45 -68s20 -27 63 -27c86 0 171 36 261 333c76 248 212 284 257 284zM881 740c64 0 105 -50 105 -95
c0 -38 -29 -72 -96 -72c-131 0 -214 72 -376 72c-153 0 -263 -86 -263 -204c0 -67 43 -90 75 -90c45 0 60 31 72 31c4 0 6 -5 6 -14c0 -35 -32 -121 -118 -121c-81 0 -148 68 -148 158c0 175 152 297 395 297c102 0 199 -16 271 -16c66 0 74 20 74 36c0 5 -1 10 -1 13
s1 5 4 5zM933 270c5 7 11 10 17 10c8 0 15 -5 15 -14c0 -4 -2 -9 -5 -14c-122 -180 -188 -261 -268 -261c-63 0 -72 54 -72 90c0 103 58 297 130 297c33 0 50 -21 50 -54c0 -69 -56 -136 -56 -136c-5 -22 -10 -59 -10 -76c0 -28 7 -45 21 -45c37 0 115 111 178 203zM792 417
c-34 0 -59 24 -59 54c0 43 43 81 91 81c34 0 56 -24 56 -53c0 -43 -42 -78 -88 -82z" />
    <glyph glyph-name="V_i" unicode="Vi" horiz-adv-x="976" 
d="M1084 280c8 0 15 -5 15 -14c0 -4 -2 -9 -5 -14c-117 -183 -188 -261 -268 -261c-63 0 -72 54 -72 90c0 103 58 297 130 297c33 0 50 -21 50 -54c0 -69 -56 -136 -56 -136c-5 -22 -10 -59 -10 -76c0 -28 7 -45 21 -45c37 0 115 111 178 203c5 7 11 10 17 10zM817 506
c-79 -109 -194 -236 -296 -375c-19 -133 -89 -183 -148 -183c-17 0 -26 14 -26 35c0 34 21 87 56 133c0 0 -5 48 -5 123c0 100 9 248 47 388c-36 11 -75 18 -121 18c-118 0 -209 -83 -209 -155c0 -30 15 -53 45 -53c37 0 32 26 45 26c5 0 8 -9 8 -23
c0 -40 -25 -117 -105 -117c-84 0 -118 67 -118 128c0 119 139 250 334 250c42 0 103 -6 142 -13c0 0 44 23 83 23c37 0 67 -23 67 -53c0 -20 -13 -44 -45 -51c-43 -158 -36 -275 -40 -373c87 116 180 237 234 330c-30 43 -49 92 -49 134c0 53 31 117 98 117
c66 0 99 -49 99 -104c0 -49 -29 -108 -75 -175c21 -22 38 -30 49 -31v15c0 26 25 62 66 62s69 -24 69 -61c0 -39 -34 -69 -83 -69c-42 0 -85 21 -122 54zM757 698c0 -25 7 -56 29 -94c15 31 23 58 23 79c0 35 -12 51 -29 51c-14 0 -23 -19 -23 -36z" />
    <glyph glyph-name="W_h" unicode="Wh" horiz-adv-x="1374" 
d="M1483 279c10 0 14 -6 14 -15c0 -4 -2 -10 -4 -13c-156 -232 -206 -261 -278 -261c-63 0 -78 47 -78 83c0 75 60 154 60 179c0 5 -3 8 -9 8c-25 0 -94 -99 -120 -165c-21 -55 -39 -105 -92 -105c-26 0 -44 22 -44 54c0 40 22 63 36 112c43 158 102 335 144 428l-37 8
c-35 -66 -88 -137 -135 -192c-78 -92 -162 -187 -221 -281l-3 -9c-41 -133 -78 -152 -138 -152c-17 0 -25 13 -25 35c0 34 20 87 55 133c0 0 57 205 77 349c-83 -86 -165 -188 -237 -293c-8 -34 -17 -66 -28 -94c-38 -98 -68 -152 -128 -152c-19 0 -29 19 -29 50
c0 39 17 97 56 163c57 191 61 336 122 490c-34 9 -71 16 -114 16c-118 0 -209 -83 -209 -155c0 -30 15 -53 45 -53c37 0 32 26 45 26c5 0 8 -9 8 -23c0 -40 -25 -117 -105 -117c-84 0 -118 67 -118 128c0 119 139 250 334 250c42 0 103 -6 142 -13c0 0 44 23 83 23
c37 0 67 -23 67 -53c0 -23 -17 -51 -61 -54c-40 -129 -50 -204 -67 -278c63 90 136 178 211 251c15 76 48 107 111 107c35 0 56 -18 56 -45c0 -24 -18 -49 -31 -64c-33 -112 -57 -222 -81 -321c97 129 198 255 246 348c-59 22 -108 55 -108 104c0 74 72 102 110 102
c82 0 109 -57 109 -106c0 -17 -4 -35 -11 -55c19 -4 35 -7 44 -8c31 45 87 72 132 72c50 0 86 -21 86 -66c0 -40 -38 -85 -120 -85h-27c-46 -106 -138 -378 -138 -378c52 94 135 185 194 185c32 0 49 -21 49 -54c0 -81 -45 -153 -63 -198c-7 -17 -10 -32 -10 -43
c0 -19 8 -29 19 -29c36 0 82 51 197 216c5 6 10 10 17 10zM1289 666c-23 0 -36 -24 -44 -40c0 0 4 -1 10 -1c14 0 48 8 48 29c0 7 -5 12 -14 12zM1028 679c2 8 2 15 2 22c0 27 -9 45 -28 45c-16 0 -24 -12 -24 -25c0 -17 22 -31 50 -42z" />
    <glyph glyph-name="W_i" unicode="Wi" horiz-adv-x="1183" 
d="M1019 510c-79 -103 -193 -227 -298 -375l-8 -25c-41 -133 -78 -152 -138 -152c-17 0 -25 13 -25 35c0 34 20 87 55 133c0 0 57 205 77 348c-83 -85 -165 -187 -237 -292c-8 -34 -17 -66 -28 -94c-38 -99 -68 -152 -128 -152c-19 0 -29 19 -29 50c0 39 17 97 56 163
c57 191 61 336 122 489c-34 10 -71 16 -114 16c-118 0 -209 -83 -209 -155c0 -30 15 -53 45 -53c37 0 32 27 45 27c5 0 8 -9 8 -23c0 -40 -25 -118 -105 -118c-84 0 -118 68 -118 129c0 119 139 250 334 250c42 0 103 -6 142 -13c0 0 44 22 83 22c37 0 67 -23 67 -53
c0 -22 -17 -50 -61 -53c-40 -129 -50 -204 -67 -278c63 90 136 178 211 251c15 76 48 106 111 106c35 0 56 -18 56 -45c0 -23 -18 -48 -31 -64c-32 -108 -55 -215 -78 -312c79 104 163 211 213 295c-29 42 -47 90 -47 131c0 53 31 117 98 117c65 0 99 -49 99 -104
c0 -49 -31 -106 -79 -172c23 -24 41 -33 53 -34v15c0 26 24 62 65 62s70 -24 70 -61c0 -39 -35 -69 -83 -69c-44 0 -89 23 -127 58zM1291 280c8 0 15 -5 15 -14c0 -4 -2 -9 -5 -14c-122 -180 -188 -261 -268 -261c-63 0 -72 54 -72 90c0 103 58 297 130 297
c33 0 50 -21 50 -54c0 -69 -56 -136 -56 -136c-5 -22 -10 -59 -10 -76c0 -28 7 -45 21 -45c37 0 115 111 178 203c5 7 11 10 17 10zM964 698c0 -25 6 -55 28 -92c15 30 24 57 24 77c0 35 -12 51 -29 51c-14 0 -23 -19 -23 -36z" />
    <glyph glyph-name="f_j" unicode="fj" horiz-adv-x="572" 
d="M680 278c10 0 15 -7 15 -15c0 -4 -1 -7 -3 -11c-33 -44 -118 -158 -237 -234c-6 -59 -11 -120 -14 -174c-7 -112 -70 -155 -111 -155c-90 0 -102 69 -102 114c0 58 45 143 127 201c5 54 7 102 9 117l4 30c-52 -33 -104 -61 -148 -72c4 -25 9 -62 9 -101
c0 -131 -27 -289 -136 -289c-87 0 -114 80 -114 177c0 167 167 845 348 845c45 0 63 -27 63 -72c0 -144 -171 -342 -216 -405c0 0 -80 -221 -80 -339c0 -25 6 -49 29 -49c35 0 52 58 52 150c0 30 -3 59 -6 78c-13 2 -25 7 -25 25c0 22 22 36 45 36c16 0 22 -12 22 -12
c43 7 104 35 166 76c20 92 56 179 109 179c42 0 54 -22 54 -63c0 -37 -53 -91 -53 -91c-11 -40 -20 -96 -27 -157c95 67 180 171 205 203c4 5 9 8 15 8zM541 448c-34 0 -59 24 -59 54c0 43 43 81 91 81c34 0 56 -24 56 -53c0 -43 -42 -82 -88 -82zM314 567
c-27 0 -108 -225 -108 -225c67 96 115 186 115 215c0 6 -2 10 -7 10zM313 -167c18 0 30 57 37 120c-32 -30 -52 -68 -52 -99c0 -17 9 -21 15 -21z" />
    <glyph glyph-name="fi" unicode="fi" horiz-adv-x="546" 
d="M637 270c5 7 11 10 17 10c8 0 15 -5 15 -14c0 -4 -2 -9 -5 -14c-117 -183 -188 -261 -268 -261c-63 0 -72 54 -72 90c0 15 1 32 3 50c-35 -29 -58 -41 -58 -41c21 -31 30 -70 30 -112c0 -131 -90 -289 -199 -289c-87 0 -114 80 -114 177c0 182 158 845 341 845
c45 0 63 -27 63 -72c0 -144 -171 -342 -216 -405c0 0 -74 -197 -74 -315c0 -50 13 -86 52 -86c52 0 85 93 85 166c0 30 -6 57 -18 73c0 0 -11 -2 -23 -2c-18 0 -40 5 -40 29c0 22 22 36 45 36s36 -9 36 -9c36 9 69 30 100 58c21 94 65 194 117 194c33 0 50 -21 50 -54
c0 -69 -56 -136 -56 -136c-5 -22 -10 -59 -10 -76c0 -28 7 -45 21 -45c37 0 115 111 178 203zM509 448c-34 0 -59 24 -59 54c0 43 43 81 91 81c34 0 56 -24 56 -53c0 -43 -42 -78 -88 -82zM314 567c-27 0 -108 -225 -108 -225c67 96 115 186 115 215c0 6 -2 10 -7 10z" />
    <glyph glyph-name="fl" unicode="fl" horiz-adv-x="585" 
d="M669 270c5 6 11 9 17 9c8 0 14 -5 14 -14c0 -4 -1 -8 -4 -13c-171 -234 -207 -261 -279 -261c-54 0 -89 36 -89 117c0 7 0 15 1 24c-36 -30 -60 -42 -60 -42c21 -31 30 -70 30 -112c0 -131 -90 -289 -199 -289c-87 0 -114 80 -114 177c0 182 158 845 341 845
c45 0 63 -27 63 -72c0 -144 -171 -342 -216 -405c0 0 -74 -197 -74 -315c0 -50 13 -86 52 -86c52 0 85 93 85 166c0 30 -6 57 -18 73c0 0 -11 -2 -23 -2c-18 0 -40 5 -40 29c0 22 22 36 45 36s36 -9 36 -9c36 9 68 30 99 58c34 186 163 527 280 527c45 0 63 -27 63 -72
c0 -144 -171 -342 -216 -405c0 0 -18 -63 -18 -104c0 -36 9 -58 31 -58c23 0 49 9 193 198zM314 567c-27 0 -108 -225 -108 -225c67 96 115 186 115 215c0 6 -2 10 -7 10zM607 567c-27 0 -108 -225 -108 -225c67 96 115 186 115 215c0 6 -2 10 -7 10z" />
    <glyph glyph-name="lslash_lslash" unicode="&#x142;&#x142;" horiz-adv-x="522" 
d="M614 270c5 6 11 9 17 9c8 0 14 -5 14 -14c0 -4 -1 -8 -4 -13c-171 -234 -207 -261 -279 -261c-54 0 -89 36 -89 117v3c-85 -105 -119 -120 -172 -120c-54 0 -89 36 -89 117c0 10 0 21 2 34c-16 -1 -32 -1 -46 -1c-19 0 -21 4 -21 12c0 7 4 20 43 23c9 0 18 1 29 2
c32 185 163 533 281 533c45 0 63 -27 63 -72c0 -144 -171 -342 -216 -405c0 0 -7 -22 -12 -47l60 6c34 5 64 10 91 16c40 191 164 502 275 502c45 0 63 -27 63 -72c0 -131 -142 -307 -201 -385c56 28 72 52 86 52c28 0 37 -16 37 -35c0 -33 -62 -60 -149 -81
c-4 -20 -7 -42 -7 -60c0 -36 9 -58 31 -58c23 0 49 9 193 198zM160 72c17 0 37 6 110 94c-46 -7 -94 -13 -140 -17c-1 -7 -1 -13 -1 -19c0 -36 9 -58 31 -58zM552 567c-27 0 -108 -225 -108 -225c67 96 115 186 115 215c0 6 -2 10 -7 10zM291 567c-27 0 -108 -225 -108 -225
c67 96 115 186 115 215c0 6 -2 10 -7 10z" />
    <glyph glyph-name="t_h" unicode="th" horiz-adv-x="689" 
d="M798 280c10 0 14 -6 14 -15c0 -4 -2 -10 -4 -13c-156 -232 -206 -261 -278 -261c-63 0 -78 47 -78 83c0 75 60 154 60 179c0 5 -3 8 -9 8c-25 0 -94 -99 -120 -165c-21 -55 -39 -105 -92 -105c-26 0 -44 22 -44 54c0 40 22 63 36 112c25 92 56 205 92 304
c-24 -4 -48 -8 -73 -10c-35 -63 -85 -136 -153 -215c-12 -53 -20 -101 -20 -150c0 -66 23 -113 74 -113c7 0 12 2 19 2c4 0 6 -3 6 -8c0 -13 -22 -27 -57 -27c-135 0 -156 105 -156 168c0 69 35 212 87 341c-21 1 -59 4 -59 12c0 11 29 24 66 24h8c54 123 122 226 186 226
c41 0 63 -27 63 -72c0 -37 -13 -87 -43 -148c27 5 50 10 70 16c47 115 102 204 164 204c51 0 69 -41 69 -78c0 -44 -33 -93 -129 -138c-49 -125 -102 -302 -102 -302c52 77 135 185 194 185c32 0 49 -21 49 -54c0 -81 -45 -153 -63 -198c-7 -17 -10 -32 -10 -43
c0 -19 8 -29 19 -29c36 0 82 51 197 216c5 6 10 10 17 10zM293 567c-10 0 -31 -34 -54 -84l34 2c17 36 27 63 27 72c0 6 -2 10 -7 10zM178 333c30 40 55 80 75 114c-11 0 -21 0 -31 -1c-15 -35 -30 -74 -44 -113zM564 617c-10 0 -26 -26 -43 -65c36 24 50 46 50 58
c0 4 -1 7 -7 7z" />
    <glyph glyph-name="t_t" unicode="tt" horiz-adv-x="532" 
d="M641 279c8 0 14 -5 14 -14c0 -4 -1 -8 -4 -13c-171 -234 -201 -261 -273 -261c-54 0 -98 36 -98 117v4c-84 -106 -114 -121 -168 -121s-98 36 -98 117c0 69 34 209 86 338c-32 1 -57 4 -57 10c0 9 11 21 59 26c4 0 9 1 14 1c54 124 122 228 186 228c41 0 63 -27 63 -72
c0 -43 -18 -97 -49 -157h65c54 125 122 229 187 229c41 0 63 -27 63 -72c0 -40 -16 -89 -42 -144c85 19 125 57 125 84c0 7 -2 12 -7 17c-2 2 -3 4 -3 6c0 9 21 17 45 17c32 0 69 -13 69 -54c0 -63 -113 -101 -253 -114c-38 -68 -91 -142 -151 -214
c-11 -41 -17 -78 -17 -107c0 -36 9 -58 31 -58c23 0 52 9 196 198c5 6 11 9 17 9zM162 72c18 0 41 6 126 109c13 73 41 172 78 264h-70c-38 -67 -89 -138 -148 -208c-11 -41 -17 -78 -17 -107c0 -36 9 -58 31 -58zM292 567c-9 0 -30 -35 -54 -85h32c19 38 29 65 29 75
c0 6 -2 10 -7 10zM558 567c-9 0 -30 -34 -53 -84l33 3c18 36 27 62 27 71c0 6 -2 10 -7 10zM488 446c-14 -34 -30 -72 -43 -110c30 40 54 78 72 111c-9 0 -19 0 -29 -1zM221 444c-14 -33 -29 -71 -43 -109c30 39 54 77 72 109h-29z" />
    <glyph glyph-name="t_t_h" unicode="tth" horiz-adv-x="953" 
d="M1062 280c10 0 14 -6 14 -15c0 -4 -2 -10 -4 -13c-156 -232 -206 -261 -278 -261c-63 0 -78 47 -78 83c0 75 60 154 60 179c0 5 -3 8 -9 8c-25 0 -94 -99 -120 -165c-21 -55 -39 -105 -92 -105c-26 0 -44 22 -44 54c0 40 22 63 36 112c25 92 56 206 93 306
c-23 -4 -48 -7 -72 -9c-35 -64 -87 -138 -156 -218c-12 -48 -19 -98 -19 -149c0 -66 22 -114 74 -114c7 0 12 2 19 2c4 0 6 -3 6 -8c0 -13 -23 -27 -57 -27c-135 0 -156 105 -156 168v3c-83 -105 -114 -120 -167 -120c-54 0 -98 36 -98 117c0 69 35 213 88 342
c-27 1 -47 2 -54 3c-21 2 -41 23 -41 41c0 4 5 6 14 6c6 0 47 -3 100 -6c53 119 119 217 181 217c41 0 63 -27 63 -72c0 -42 -18 -95 -48 -155l63 -2c54 125 122 229 187 229c41 0 63 -27 63 -72c0 -36 -13 -84 -40 -142c25 4 49 10 69 15c47 113 101 199 162 199
c51 0 69 -41 69 -78c0 -52 -34 -94 -130 -139c-49 -125 -101 -301 -101 -301c52 77 135 185 194 185c32 0 49 -21 49 -54c0 -81 -45 -153 -63 -198c-7 -17 -10 -32 -10 -43c0 -19 8 -29 19 -29c36 0 82 51 197 216c5 6 10 10 17 10zM162 72c18 0 41 6 124 107
c13 74 42 174 79 267c-20 0 -42 0 -68 1c-38 -67 -90 -139 -149 -210c-11 -41 -17 -78 -17 -107c0 -36 9 -58 31 -58zM557 567c-10 0 -30 -33 -53 -82c12 1 23 2 34 4c17 34 26 59 26 68c0 6 -2 10 -7 10zM292 567c-9 0 -28 -32 -51 -80c11 0 21 0 32 -1c17 36 26 62 26 71
c0 6 -2 10 -7 10zM486 447c-15 -35 -31 -76 -45 -116c31 41 56 83 76 118c-10 0 -21 -1 -31 -2zM223 448c-15 -35 -31 -74 -45 -113c31 40 55 79 74 112c-10 0 -19 1 -29 1zM828 617c-11 0 -26 -26 -44 -65c37 23 51 46 51 58c0 4 -2 7 -7 7z" />
    <glyph glyph-name=".notdef" horiz-adv-x="1698" 
d="M1651 44c0 -9 -14 -21 -35 -30c-10 -44 -30 -97 -73 -97c-20 0 -31 17 -31 31c0 25 22 42 69 62c2 8 4 17 5 25c-11 -14 -23 -24 -36 -24c-19 0 -23 17 -23 28v6c-18 -18 -41 -34 -64 -34c-17 0 -26 8 -26 24c0 21 24 49 24 49c-5 0 -9 0 -13 2c-49 -67 -55 -75 -77 -75
c-13 0 -20 11 -23 22c-9 -13 -22 -22 -38 -22c-21 0 -32 13 -32 36c-26 -31 -35 -36 -52 -36c-19 0 -22 17 -22 28c0 23 17 47 17 56c0 2 -1 3 -3 3c-8 0 -28 -28 -35 -46c0 -1 -1 -2 -1 -3c-7 -18 -15 -38 -31 -38c-8 0 -14 6 -14 20c0 6 1 11 2 15
c-25 -30 -35 -35 -52 -35s-21 14 -22 25c-11 -14 -23 -25 -36 -25c-20 0 -24 17 -24 28c0 13 3 32 8 49l-17 -6c-4 -34 -28 -71 -63 -71c-22 0 -34 14 -34 39c0 35 32 61 36 61c2 0 3 -1 3 -3c0 -6 -10 -21 -10 -39c0 -15 5 -28 18 -28c18 0 32 22 34 40
c-20 0 -34 13 -34 28c0 11 12 22 23 22c16 0 26 -13 27 -37c6 1 14 3 21 7c6 17 15 30 26 30c10 0 15 -6 15 -13s-10 -17 -10 -18c-2 -7 -10 -29 -10 -51c0 -8 2 -13 6 -13c8 0 16 10 23 23c5 32 20 72 39 72c10 0 15 -6 15 -17c0 -14 -17 -36 -17 -36s-6 -17 -6 -30
c0 -7 3 -13 9 -13c9 0 16 8 41 41l6 27c2 20 15 28 28 28c8 0 11 -6 11 -15s-2 -21 -7 -35c16 23 38 50 58 50c11 0 16 -6 16 -17c0 -25 -14 -47 -20 -61c-2 -5 -3 -10 -3 -13c0 -6 3 -9 6 -9c6 0 18 10 36 32c6 29 29 68 61 68c6 0 15 -3 21 -8c5 17 12 38 12 55
c0 6 0 12 -1 17c-15 -7 -31 -11 -49 -11c-36 0 -56 16 -56 41c0 17 18 35 56 35c29 0 57 -7 72 -29c46 32 95 78 140 78c40 0 51 -20 51 -37c0 -11 -7 -21 -11 -21c-7 0 -5 15 -39 15c-59 0 -96 -29 -132 -52c3 -9 5 -20 5 -33c0 -32 -26 -96 -26 -124c0 -12 2 -15 5 -15
c5 0 16 3 50 48c-9 6 -16 16 -16 28c0 14 9 31 25 31c11 0 16 -13 16 -26c0 -4 0 -9 -2 -13c0 0 4 -3 13 -3c17 0 28 11 37 11c10 0 13 -6 13 -13c0 -11 -24 -17 -24 -17c-17 -16 -26 -34 -26 -46c0 -7 5 -10 11 -10c12 0 30 16 44 31c5 32 18 68 35 68c10 0 16 -6 16 -17
c0 -25 -19 -47 -19 -47c-1 -7 -2 -13 -2 -18c0 -8 2 -13 7 -13c8 0 17 12 24 27c6 32 18 68 36 68c13 0 17 -7 17 -19c0 -24 -19 -47 -19 -47c-1 -7 -2 -20 -5 -35c8 5 16 13 16 19c0 4 -3 3 -3 6c0 1 2 2 3 2c6 0 16 -4 16 -13zM915 131c0 -20 -27 -31 -54 -35
c-28 -93 -87 -107 -120 -107c-40 0 -58 20 -58 39c0 15 11 31 27 31c14 0 24 -11 24 -25c0 -16 -14 -21 -14 -21s4 -9 23 -9c23 0 48 13 73 89c-33 4 -81 20 -81 64c0 50 56 75 113 75c38 0 70 -12 97 -12c32 0 44 26 50 53c-11 -13 -24 -24 -36 -24c-20 0 -24 17 -24 28v6
c-24 -29 -34 -33 -50 -33c-17 0 -28 11 -28 36c0 10 3 25 7 42c-6 -3 -13 -5 -20 -7c-4 -34 -28 -71 -63 -71c-22 0 -35 14 -35 39c0 34 33 61 37 61c2 0 3 -1 3 -3c0 -6 -10 -21 -10 -39c0 -16 5 -28 18 -28c18 0 31 21 33 39c-19 0 -33 13 -33 28c0 11 11 23 22 23
c16 0 27 -13 28 -37c7 0 15 3 23 8c4 16 10 33 17 50c-10 0 -18 1 -18 3s6 8 23 8c16 39 38 71 58 71c12 0 19 -8 19 -22c0 -11 -3 -27 -12 -45c26 6 38 17 38 25c0 2 -3 7 -3 7c0 3 6 6 14 6c10 0 21 -4 21 -17c0 -19 -35 -31 -78 -35c-9 -16 -23 -32 -42 -48
c-6 -19 -11 -38 -11 -51c0 -11 3 -18 10 -18c6 0 12 1 35 29c5 31 18 66 35 66c10 0 15 -7 15 -17c0 -25 -18 -48 -18 -48c-2 -7 -2 -13 -2 -18c0 -8 2 -12 6 -12c8 0 17 12 25 26c5 33 17 69 36 69c13 0 17 -7 17 -20c0 -24 -20 -46 -20 -46c-2 -29 -16 -121 -64 -121
c-45 0 -66 31 -117 31c-47 0 -74 -25 -74 -55c0 -25 18 -40 45 -47c13 25 32 84 75 84c7 0 8 -2 8 -3c0 -2 -17 -3 -39 -81c17 4 27 12 27 24c0 9 -5 11 -5 13s4 3 6 3c8 0 21 -7 21 -21zM200 227c-42 0 -63 21 -63 40c0 28 23 46 63 46c22 0 42 -7 61 -16c1 8 2 18 2 28
c0 21 -10 49 -14 69c-65 4 -91 26 -91 44c0 19 24 34 57 34h4c0 -2 -18 -8 -18 -24s18 -32 47 -37c2 41 26 62 66 62c36 0 53 -14 53 -35c0 -15 -15 -39 -75 -44c6 -26 16 -45 16 -70c0 -20 -4 -36 -11 -49c40 -30 89 -54 141 -54c38 0 36 16 44 16c4 0 13 -10 13 -22
c0 -20 -13 -42 -58 -42c-49 0 -102 48 -152 84c-20 -21 -50 -30 -85 -30zM1018 177c0 23 15 41 34 49c5 26 11 66 17 116c2 19 15 28 28 28c7 0 10 -8 10 -18c0 -4 -1 -7 -1 -9c10 14 24 27 39 27c25 0 32 -22 34 -40c13 6 26 12 40 23c12 10 26 17 42 17
c17 0 30 -12 30 -26c0 -20 -21 -44 -71 -44c1 -15 7 -28 25 -28c17 0 30 12 40 19c1 0 3 1 5 1c1 0 3 -1 3 -4c0 -2 -1 -3 -2 -5c-19 -23 -40 -33 -64 -33c-22 0 -38 14 -38 39c0 13 4 27 10 40l-20 -10c-2 -24 -16 -69 -67 -69c-9 0 -15 3 -20 7l-4 -30
c41 -7 71 -38 111 -38c32 0 30 16 36 16c4 0 11 -11 11 -21c0 -17 -11 -35 -48 -35c-52 0 -77 54 -113 64c-7 -35 -19 -60 -44 -60c-13 0 -23 12 -23 24zM632 40c2 0 3 -3 3 -5c0 -8 -10 -24 -34 -24c-22 0 -32 15 -32 39c-27 -34 -37 -39 -54 -39c-20 0 -22 17 -22 28
c0 23 16 47 16 56c0 2 0 3 -2 3c-8 0 -28 -28 -36 -46c-6 -18 -15 -41 -32 -41c-8 0 -13 6 -13 20c0 20 8 26 14 60c-6 -3 -14 -7 -23 -9c-4 -34 -28 -71 -63 -71c-22 0 -35 14 -35 39c0 35 33 61 37 61c2 0 3 -1 3 -3c0 -6 -10 -21 -10 -39c0 -15 5 -28 18 -28
c18 0 31 22 33 40c-19 0 -33 13 -33 28c0 11 11 22 22 22c16 0 27 -13 28 -37c7 1 17 4 25 9c3 20 15 28 28 28c9 0 12 -6 12 -15s-2 -21 -7 -35c16 23 38 50 58 50c10 0 15 -6 15 -17c0 -25 -14 -47 -19 -61c-2 -5 -3 -10 -3 -13c0 -6 2 -9 6 -9c6 0 19 11 38 36
c4 23 13 55 25 85c-9 1 -17 2 -17 4s6 7 22 7c17 39 38 71 58 71c14 0 19 -8 19 -22s-5 -30 -12 -45c26 6 39 17 39 26c0 3 -3 4 -3 7s6 5 14 5c10 0 21 -4 21 -17c0 -19 -35 -31 -79 -35c-16 -29 -38 -55 -47 -67c0 0 -5 -19 -5 -32c0 -11 4 -21 14 -21c8 0 11 7 13 7z
M322 289c0 37 29 81 74 81c17 0 30 -12 30 -27c0 -17 -14 -27 -26 -27c-9 0 -16 7 -16 16c0 10 3 12 3 14c0 1 -2 3 -6 3c-14 0 -28 -27 -28 -45c0 -17 9 -29 23 -29c23 0 46 21 64 42c19 67 46 156 81 156c14 0 19 -8 19 -22c0 -44 -50 -103 -66 -124l-4 -15
c17 24 42 58 61 58c9 0 15 -7 15 -17c0 -25 -15 -40 -15 -74c0 -20 7 -35 23 -35c2 0 4 1 6 1c1 0 2 -1 2 -3c0 -4 -8 -8 -18 -8c-42 0 -48 32 -48 52c0 21 11 37 11 45c0 1 -1 2 -3 2c-8 0 -29 -30 -37 -51c0 -1 -1 -2 -1 -3c-6 -16 -12 -29 -28 -29c-8 0 -14 6 -14 16
c0 9 4 15 7 23c-22 -25 -44 -39 -70 -39c-30 0 -39 23 -39 39zM352 131c0 -20 -28 -31 -55 -35c-27 -93 -86 -107 -120 -107c-39 0 -58 20 -58 39c0 15 11 31 28 31c14 0 24 -11 24 -25c0 -16 -14 -21 -14 -21s4 -9 22 -9c23 0 49 13 73 89c-33 4 -77 20 -77 52
c0 16 14 39 50 39c10 0 14 -1 14 -2c0 -3 -26 -11 -26 -31s19 -32 46 -39c12 25 31 84 74 84c7 0 8 -2 8 -3c0 -2 -17 -3 -39 -81c17 4 27 12 27 24c0 9 -5 11 -5 13s4 3 7 3c7 0 21 -7 21 -21zM581 250c-20 0 -23 16 -23 27c0 32 18 93 41 93c10 0 15 -7 15 -17
c0 -22 -17 -42 -17 -42c-2 -7 -3 -19 -3 -24c0 -9 2 -14 6 -14c11 0 31 28 50 55c-10 5 -16 16 -16 25c0 12 9 23 26 23c12 0 16 -8 16 -16v-4s4 -1 10 -1c17 0 33 4 43 7c2 3 5 5 7 7c6 5 11 7 15 7c7 0 10 -7 10 -14c0 -12 -33 -25 -33 -25s-27 -19 -54 -50
c47 -17 64 -45 83 -45c7 0 9 3 12 3c1 0 2 -1 2 -3c0 -4 -9 -14 -21 -14c-36 0 -51 28 -88 28h-10s-6 -6 -12 -6c-7 0 -12 2 -12 11c0 10 11 22 25 26c10 11 23 25 37 39c-7 -2 -15 -3 -22 -3c-3 0 -6 1 -8 1c-34 -52 -55 -74 -79 -74zM203 296c-15 0 -28 -12 -28 -25
c0 -15 14 -25 31 -25c19 0 38 10 48 32c-18 11 -35 18 -51 18zM1326 199c13 0 27 6 42 14c-7 22 -21 31 -39 31c-16 0 -29 -9 -29 -23c0 -11 12 -22 26 -22zM1346 52c1 13 4 32 10 53c-4 2 -7 3 -10 3c-12 0 -22 -12 -28 -24c-4 -8 -7 -20 -7 -30s3 -18 14 -18
c9 0 16 7 21 16zM616 391c-11 0 -18 8 -18 17c0 13 13 25 28 25c10 0 17 -7 17 -16c0 -14 -13 -24 -27 -26zM311 457c-13 0 -23 -10 -23 -31c0 -5 1 -10 1 -15c24 3 40 11 40 27c0 11 -8 19 -18 19zM1130 346c-12 0 -27 -20 -34 -52c4 11 49 15 49 25c0 18 -5 27 -15 27z
M1249 349c-11 0 -27 -13 -27 -37c14 0 38 3 38 25c0 8 -5 12 -11 12zM1546 -50c12 0 26 25 32 48c-21 -10 -42 -26 -42 -39c0 -5 5 -9 10 -9zM1115 268c12 0 25 15 29 37c-16 -6 -38 -16 -38 -29c0 -5 4 -8 9 -8zM518 428c-9 0 -34 -70 -34 -70c21 30 36 58 36 67
c0 2 -1 3 -2 3zM946 431c-5 0 -12 -12 -21 -29c5 0 10 0 14 1c7 13 9 22 9 25c0 2 -1 3 -2 3zM655 190c-3 0 -10 -13 -16 -27c3 0 7 1 10 1c5 10 8 18 8 23c0 1 0 3 -2 3zM816 341c0 -5 6 -9 15 -10c0 11 -6 16 -10 16c-3 0 -5 -2 -5 -6zM920 390l-9 -25c9 9 15 18 21 26
c-4 -1 -8 -1 -12 -1zM389 103c0 -5 6 -9 15 -10c0 10 -6 15 -10 15c-3 0 -5 -2 -5 -5zM969 103c0 -5 5 -9 14 -10c0 10 -6 15 -10 15c-2 0 -4 -2 -4 -5zM622 120l20 32h-8c-7 -17 -12 -32 -12 -32z" />
    <glyph glyph-name="A" unicode="A" horiz-adv-x="851" 
d="M979 263c-34 -42 -116 -111 -209 -151c4 -32 12 -55 12 -83c0 -56 -28 -78 -70 -78c-64 0 -83 81 -102 127h-17c-49 0 -94 4 -134 12c-108 -102 -217 -171 -303 -171c-110 0 -166 63 -166 126c0 49 34 96 88 96c45 0 78 -33 78 -78c0 -31 -17 -50 -30 -59
c10 -3 20 -4 31 -4c60 0 139 43 223 113c-52 23 -82 56 -82 94c0 56 50 84 122 84c39 0 77 -12 112 -32c72 80 143 171 205 263l18 59c41 133 79 152 139 152c17 0 26 -14 26 -35c0 -34 -21 -87 -56 -133c0 0 -80 -263 -94 -407c105 49 179 131 179 131c6 6 12 8 18 8
c9 0 17 -6 18 -17c0 -5 -1 -11 -6 -17zM541 174c-13 -15 -27 -30 -41 -44c24 -5 52 -7 84 -8c-14 20 -28 37 -43 52zM685 354c-32 -45 -66 -89 -101 -132c21 -18 41 -39 58 -62c8 61 24 129 43 194zM382 203c0 -15 13 -34 44 -50c21 19 43 40 64 62c-20 12 -39 19 -56 20
c-3 0 -7 1 -10 1c-29 0 -42 -17 -42 -33z" />
    <glyph glyph-name="A.swash" horiz-adv-x="851" 
d="M1067 -44c7 0 13 -9 13 -26c0 -54 -52 -178 -197 -178c-172 0 -251 174 -251 335c-21 -1 -41 -1 -59 -1c-48 0 -87 2 -121 6c-114 -104 -211 -165 -305 -165c-95 0 -158 63 -158 122c0 57 59 131 213 131c71 0 125 -16 210 -31c110 94 226 233 324 381l19 60
c38 126 80 152 128 152c27 0 36 -8 36 -35c0 -34 -21 -87 -56 -133c0 0 -84 -252 -95 -408c106 49 171 132 171 132c4 4 9 6 14 6c11 0 21 -8 21 -19c0 -4 -2 -8 -5 -13c-30 -44 -107 -111 -199 -152c6 -121 48 -229 159 -229c87 0 119 65 138 65zM178 29
c49 0 116 30 181 78c-29 6 -96 19 -145 19c-54 0 -95 -16 -95 -53c0 -29 25 -44 59 -44zM497 136c29 -4 58 -5 88 -5c17 0 34 0 52 1c5 70 24 152 47 231c-56 -80 -121 -159 -187 -227z" />
    <glyph glyph-name="AE" unicode="&#xc6;" horiz-adv-x="1219" 
d="M641 -60c-38 0 -82 24 -82 74c0 63 71 101 127 101c3 0 7 0 11 -1c13 28 26 60 39 93c-21 2 -41 5 -62 8l-72 10c-123 -162 -251 -306 -430 -306c-121 0 -182 66 -182 152c0 149 183 214 436 214c41 0 77 -2 112 -5c52 67 107 139 169 205c-93 27 -131 70 -131 113
c0 62 81 112 193 112c2 0 3 0 3 -2c0 -6 -56 -25 -56 -76c0 -28 17 -57 58 -80c102 92 224 160 384 160c122 0 201 -40 201 -107c0 -47 -38 -149 -386 -149h-24c-20 -66 -40 -140 -68 -211h8c151 0 166 54 166 78c0 27 -19 38 -19 45c0 3 5 4 14 4c40 0 92 -21 92 -73
c0 -34 -22 -104 -223 -104c-18 0 -37 0 -58 1c-17 -38 -37 -74 -60 -106c44 -16 93 -27 149 -27c178 0 270 110 350 207c4 5 10 9 17 9s14 -5 14 -13c0 -4 -2 -11 -4 -14c-56 -87 -210 -310 -398 -310c-72 0 -136 33 -183 60c-24 -29 -61 -62 -105 -62zM228 46
c103 0 187 82 274 189c-19 1 -38 2 -59 2c-263 0 -292 -95 -292 -134c0 -27 14 -57 77 -57zM1130 660c-111 0 -202 -55 -284 -135c39 -10 89 -15 151 -15c100 0 161 15 196 54c13 14 20 31 20 48c0 30 -20 48 -83 48zM791 467c-54 -61 -105 -130 -156 -198l54 -8
c20 -3 42 -6 64 -8c31 89 54 176 63 211zM597 18c-6 4 -9 5 -3 2z" />
    <glyph glyph-name="AE.alt" horiz-adv-x="1030" 
d="M866 566c0 0 -68 -118 -97 -286c31 58 81 98 154 98c56 0 98 -37 98 -81c0 -96 -101 -150 -229 -163c9 -38 32 -58 78 -58c99 0 190 113 253 194c5 6 10 8 15 8c8 0 15 -6 15 -15c0 -5 -1 -7 -3 -11c-113 -158 -211 -261 -336 -261c-92 0 -130 59 -139 142
c-52 3 -102 10 -150 19c-108 -120 -244 -233 -377 -233c-95 0 -158 52 -158 151c0 91 114 167 268 167c78 0 153 -14 226 -29c104 105 198 233 257 319l17 55c41 132 78 152 138 152c17 0 26 -14 26 -35c0 -34 -21 -87 -56 -133zM191 33c77 0 165 56 250 134
c-59 10 -117 18 -178 18c-77 0 -143 -36 -143 -91c0 -43 37 -61 71 -61zM885 312c-31 0 -94 -37 -96 -135c67 8 131 32 131 97c0 26 -15 38 -35 38zM673 178c0 62 12 133 27 200c-30 -45 -79 -114 -139 -185c37 -7 74 -14 112 -17v2z" />
    <glyph glyph-name="Aacute" unicode="&#xc1;" horiz-adv-x="851" 
d="M979 263c-34 -42 -116 -111 -209 -151c4 -32 12 -55 12 -83c0 -56 -28 -78 -70 -78c-64 0 -83 81 -102 127h-17c-49 0 -94 4 -134 12c-108 -102 -217 -171 -303 -171c-110 0 -166 63 -166 126c0 49 34 96 88 96c45 0 78 -33 78 -78c0 -31 -17 -50 -30 -59
c10 -3 20 -4 31 -4c60 0 139 43 223 113c-52 23 -82 56 -82 94c0 56 50 84 122 84c39 0 77 -12 112 -32c72 80 143 171 205 263l18 59c41 133 79 152 139 152c17 0 26 -14 26 -35c0 -34 -21 -87 -56 -133c0 0 -80 -263 -94 -407c105 49 179 131 179 131c6 6 12 8 18 8
c9 0 17 -6 18 -17c0 -5 -1 -11 -6 -17zM541 174c-13 -15 -27 -30 -41 -44c24 -5 52 -7 84 -8c-14 20 -28 37 -43 52zM685 354c-32 -45 -66 -89 -101 -132c21 -18 41 -39 58 -62c8 61 24 129 43 194zM382 203c0 -15 13 -34 44 -50c21 19 43 40 64 62c-20 12 -39 19 -56 20
c-3 0 -7 1 -10 1c-29 0 -42 -17 -42 -33zM956 932c20 0 61 -24 61 -63c0 -60 -90 -99 -179 -99c-28 0 -42 6 -42 16c0 31 138 27 138 127c0 10 2 19 22 19z" />
    <glyph glyph-name="Abreve" unicode="&#x102;" horiz-adv-x="851" 
d="M979 263c-34 -42 -116 -111 -209 -151c4 -32 12 -55 12 -83c0 -56 -28 -78 -70 -78c-64 0 -83 81 -102 127h-17c-49 0 -94 4 -134 12c-108 -102 -217 -171 -303 -171c-110 0 -166 63 -166 126c0 49 34 96 88 96c45 0 78 -33 78 -78c0 -31 -17 -50 -30 -59
c10 -3 20 -4 31 -4c60 0 139 43 223 113c-52 23 -82 56 -82 94c0 56 50 84 122 84c39 0 77 -12 112 -32c72 80 143 171 205 263l18 59c41 133 79 152 139 152c17 0 26 -14 26 -35c0 -34 -21 -87 -56 -133c0 0 -80 -263 -94 -407c105 49 179 131 179 131c6 6 12 8 18 8
c9 0 17 -6 18 -17c0 -5 -1 -11 -6 -17zM541 174c-13 -15 -27 -30 -41 -44c24 -5 52 -7 84 -8c-14 20 -28 37 -43 52zM685 354c-32 -45 -66 -89 -101 -132c21 -18 41 -39 58 -62c8 61 24 129 43 194zM382 203c0 -15 13 -34 44 -50c21 19 43 40 64 62c-20 12 -39 19 -56 20
c-3 0 -7 1 -10 1c-29 0 -42 -17 -42 -33zM877 915c0 -7 -2 -11 -2 -21c0 -27 18 -46 55 -46c47 0 68 31 81 55c8 14 13 22 23 22c9 0 14 -7 14 -20c0 -44 -51 -129 -149 -129c-66 0 -95 39 -95 78c0 45 37 72 60 72c7 0 13 -2 13 -11z" />
    <glyph glyph-name="Acircumflex" unicode="&#xc2;" horiz-adv-x="851" 
d="M979 263c-34 -42 -116 -111 -209 -151c4 -32 12 -55 12 -83c0 -56 -28 -78 -70 -78c-64 0 -83 81 -102 127h-17c-49 0 -94 4 -134 12c-108 -102 -217 -171 -303 -171c-110 0 -166 63 -166 126c0 49 34 96 88 96c45 0 78 -33 78 -78c0 -31 -17 -50 -30 -59
c10 -3 20 -4 31 -4c60 0 139 43 223 113c-52 23 -82 56 -82 94c0 56 50 84 122 84c39 0 77 -12 112 -32c72 80 143 171 205 263l18 59c41 133 79 152 139 152c17 0 26 -14 26 -35c0 -34 -21 -87 -56 -133c0 0 -80 -263 -94 -407c105 49 179 131 179 131c6 6 12 8 18 8
c9 0 17 -6 18 -17c0 -5 -1 -11 -6 -17zM541 174c-13 -15 -27 -30 -41 -44c24 -5 52 -7 84 -8c-14 20 -28 37 -43 52zM685 354c-32 -45 -66 -89 -101 -132c21 -18 41 -39 58 -62c8 61 24 129 43 194zM382 203c0 -15 13 -34 44 -50c21 19 43 40 64 62c-20 12 -39 19 -56 20
c-3 0 -7 1 -10 1c-29 0 -42 -17 -42 -33zM969 835c24 -47 49 -44 49 -61c0 -16 -17 -16 -24 -16c-32 0 -62 13 -89 39c-71 -27 -84 -40 -123 -40c-15 0 -22 4 -22 11c0 22 99 31 134 122c4 9 17 30 40 30c34 0 16 -47 35 -85z" />
    <glyph glyph-name="Adieresis" unicode="&#xc4;" horiz-adv-x="851" 
d="M979 263c-34 -42 -116 -111 -209 -151c4 -32 12 -55 12 -83c0 -56 -28 -78 -70 -78c-64 0 -83 81 -102 127h-17c-49 0 -94 4 -134 12c-108 -102 -217 -171 -303 -171c-110 0 -166 63 -166 126c0 49 34 96 88 96c45 0 78 -33 78 -78c0 -31 -17 -50 -30 -59
c10 -3 20 -4 31 -4c60 0 139 43 223 113c-52 23 -82 56 -82 94c0 56 50 84 122 84c39 0 77 -12 112 -32c72 80 143 171 205 263l18 59c41 133 79 152 139 152c17 0 26 -14 26 -35c0 -34 -21 -87 -56 -133c0 0 -80 -263 -94 -407c105 49 179 131 179 131c6 6 12 8 18 8
c9 0 17 -6 18 -17c0 -5 -1 -11 -6 -17zM541 174c-13 -15 -27 -30 -41 -44c24 -5 52 -7 84 -8c-14 20 -28 37 -43 52zM685 354c-32 -45 -66 -89 -101 -132c21 -18 41 -39 58 -62c8 61 24 129 43 194zM382 203c0 -15 13 -34 44 -50c21 19 43 40 64 62c-20 12 -39 19 -56 20
c-3 0 -7 1 -10 1c-29 0 -42 -17 -42 -33zM811 763c-31 0 -54 24 -54 53c0 40 43 73 82 73c31 0 50 -22 50 -48c0 -41 -36 -74 -78 -78zM983 763c-30 0 -52 21 -52 51c0 41 40 75 81 75c31 0 49 -22 49 -48c0 -41 -38 -74 -78 -78z" />
    <glyph glyph-name="Agrave" unicode="&#xc0;" horiz-adv-x="851" 
d="M979 263c-34 -42 -116 -111 -209 -151c4 -32 12 -55 12 -83c0 -56 -28 -78 -70 -78c-64 0 -83 81 -102 127h-17c-49 0 -94 4 -134 12c-108 -102 -217 -171 -303 -171c-110 0 -166 63 -166 126c0 49 34 96 88 96c45 0 78 -33 78 -78c0 -31 -17 -50 -30 -59
c10 -3 20 -4 31 -4c60 0 139 43 223 113c-52 23 -82 56 -82 94c0 56 50 84 122 84c39 0 77 -12 112 -32c72 80 143 171 205 263l18 59c41 133 79 152 139 152c17 0 26 -14 26 -35c0 -34 -21 -87 -56 -133c0 0 -80 -263 -94 -407c105 49 179 131 179 131c6 6 12 8 18 8
c9 0 17 -6 18 -17c0 -5 -1 -11 -6 -17zM541 174c-13 -15 -27 -30 -41 -44c24 -5 52 -7 84 -8c-14 20 -28 37 -43 52zM685 354c-32 -45 -66 -89 -101 -132c21 -18 41 -39 58 -62c8 61 24 129 43 194zM382 203c0 -15 13 -34 44 -50c21 19 43 40 64 62c-20 12 -39 19 -56 20
c-3 0 -7 1 -10 1c-29 0 -42 -17 -42 -33zM874 926c8 0 10 -4 10 -10c0 -4 -1 -10 -1 -16c0 -78 152 -89 152 -120c0 -10 -14 -16 -43 -16c-89 0 -179 39 -179 99c0 39 42 63 61 63z" />
    <glyph glyph-name="Amacron" unicode="&#x100;" horiz-adv-x="851" 
d="M979 263c-34 -42 -116 -111 -209 -151c4 -32 12 -55 12 -83c0 -56 -28 -78 -70 -78c-64 0 -83 81 -102 127h-17c-49 0 -94 4 -134 12c-108 -102 -217 -171 -303 -171c-110 0 -166 63 -166 126c0 49 34 96 88 96c45 0 78 -33 78 -78c0 -31 -17 -50 -30 -59
c10 -3 20 -4 31 -4c60 0 139 43 223 113c-52 23 -82 56 -82 94c0 56 50 84 122 84c39 0 77 -12 112 -32c72 80 143 171 205 263l18 59c41 133 79 152 139 152c17 0 26 -14 26 -35c0 -34 -21 -87 -56 -133c0 0 -80 -263 -94 -407c105 49 179 131 179 131c6 6 12 8 18 8
c9 0 17 -6 18 -17c0 -5 -1 -11 -6 -17zM541 174c-13 -15 -27 -30 -41 -44c24 -5 52 -7 84 -8c-14 20 -28 37 -43 52zM685 354c-32 -45 -66 -89 -101 -132c21 -18 41 -39 58 -62c8 61 24 129 43 194zM382 203c0 -15 13 -34 44 -50c21 19 43 40 64 62c-20 12 -39 19 -56 20
c-3 0 -7 1 -10 1c-29 0 -42 -17 -42 -33zM903 846c49 0 75 0 111 9c35 10 45 16 55 16c5 0 7 -7 7 -14c0 -34 -28 -83 -80 -83c-87 0 -164 9 -210 9c-17 0 -34 8 -34 26c0 16 36 44 61 44c24 0 41 -7 90 -7z" />
    <glyph glyph-name="Aogonek" unicode="&#x104;" horiz-adv-x="851" 
d="M979 263c-34 -42 -116 -111 -209 -151c4 -32 12 -55 12 -83c0 -25 -6 -51 -29 -68c-44 -33 -88 -96 -88 -129c0 -51 45 -45 45 -61c0 -28 -37 -59 -82 -59c-47 0 -76 32 -76 79c0 60 66 129 123 171c-36 24 -51 80 -65 116h-17c-49 0 -94 4 -134 12
c-108 -102 -217 -171 -303 -171c-110 0 -166 63 -166 126c0 49 34 96 88 96c45 0 78 -33 78 -78c0 -31 -17 -50 -30 -59c10 -3 20 -4 31 -4c60 0 139 43 223 113c-52 23 -82 56 -82 94c0 56 50 84 122 84c39 0 77 -12 112 -32c72 80 143 171 205 263l18 59
c41 133 79 152 139 152c17 0 26 -14 26 -35c0 -34 -21 -87 -56 -133c0 0 -80 -263 -94 -407c105 49 179 131 179 131c6 6 12 8 18 8c9 0 17 -6 18 -17c0 -5 -1 -11 -6 -17zM685 354c-32 -45 -66 -89 -101 -132c21 -18 41 -39 58 -62c8 61 24 129 43 194zM382 203
c0 -15 13 -34 44 -50c21 19 43 40 64 62c-20 12 -39 19 -56 20c-3 0 -7 1 -10 1c-29 0 -42 -17 -42 -33zM541 174c-13 -15 -27 -30 -41 -44c24 -5 52 -7 84 -8c-14 20 -28 37 -43 52z" />
    <glyph glyph-name="Aring" unicode="&#xc5;" horiz-adv-x="851" 
d="M979 263c-34 -42 -116 -111 -209 -151c4 -32 12 -55 12 -83c0 -56 -28 -78 -70 -78c-64 0 -83 81 -102 127h-17c-49 0 -94 4 -134 12c-108 -102 -217 -171 -303 -171c-110 0 -166 63 -166 126c0 49 34 96 88 96c45 0 78 -33 78 -78c0 -31 -17 -50 -30 -59
c10 -3 20 -4 31 -4c60 0 139 43 223 113c-52 23 -82 56 -82 94c0 56 50 84 122 84c39 0 77 -12 112 -32c72 80 143 171 205 263l18 59c41 133 79 152 139 152c17 0 26 -14 26 -35c0 -34 -21 -87 -56 -133c0 0 -80 -263 -94 -407c105 49 179 131 179 131c6 6 12 8 18 8
c9 0 17 -6 18 -17c0 -5 -1 -11 -6 -17zM541 174c-13 -15 -27 -30 -41 -44c24 -5 52 -7 84 -8c-14 20 -28 37 -43 52zM685 354c-32 -45 -66 -89 -101 -132c21 -18 41 -39 58 -62c8 61 24 129 43 194zM382 203c0 -15 13 -34 44 -50c21 19 43 40 64 62c-20 12 -39 19 -56 20
c-3 0 -7 1 -10 1c-29 0 -42 -17 -42 -33zM946 935c35 0 51 -27 51 -49c0 -60 -39 -106 -83 -106c-45 0 -58 30 -58 56c0 45 40 99 90 99zM930 830c7 0 26 15 26 38c0 11 -9 19 -21 19c-11 0 -25 -20 -25 -37c0 -9 4 -20 20 -20z" />
    <glyph glyph-name="Atilde" unicode="&#xc3;" horiz-adv-x="851" 
d="M979 263c-34 -42 -116 -111 -209 -151c4 -32 12 -55 12 -83c0 -56 -28 -78 -70 -78c-64 0 -83 81 -102 127h-17c-49 0 -94 4 -134 12c-108 -102 -217 -171 -303 -171c-110 0 -166 63 -166 126c0 49 34 96 88 96c45 0 78 -33 78 -78c0 -31 -17 -50 -30 -59
c10 -3 20 -4 31 -4c60 0 139 43 223 113c-52 23 -82 56 -82 94c0 56 50 84 122 84c39 0 77 -12 112 -32c72 80 143 171 205 263l18 59c41 133 79 152 139 152c17 0 26 -14 26 -35c0 -34 -21 -87 -56 -133c0 0 -80 -263 -94 -407c105 49 179 131 179 131c6 6 12 8 18 8
c9 0 17 -6 18 -17c0 -5 -1 -11 -6 -17zM541 174c-13 -15 -27 -30 -41 -44c24 -5 52 -7 84 -8c-14 20 -28 37 -43 52zM685 354c-32 -45 -66 -89 -101 -132c21 -18 41 -39 58 -62c8 61 24 129 43 194zM382 203c0 -15 13 -34 44 -50c21 19 43 40 64 62c-20 12 -39 19 -56 20
c-3 0 -7 1 -10 1c-29 0 -42 -17 -42 -33zM789 767c-7 0 -11 9 -11 27c0 41 31 93 93 93c49 0 83 -44 120 -44c46 0 53 31 61 31c5 0 9 -1 9 -17c0 -42 -32 -100 -97 -100c-58 0 -69 43 -114 43c-39 0 -50 -33 -61 -33z" />
    <glyph glyph-name="B" unicode="B" horiz-adv-x="934" 
d="M435 302c76 248 212 301 257 301c9 0 13 -5 13 -9c0 -23 -44 19 -135 -311c-23 -86 -55 -152 -91 -203c48 -30 93 -43 134 -43c90 0 155 63 155 152c0 68 -28 107 -57 129l-33 -8c-8 -2 -16 -2 -23 -2c-36 0 -55 19 -55 38c0 18 18 36 56 36c18 0 38 -2 60 -7
c53 34 79 88 79 133c0 63 -49 162 -229 162c-185 0 -315 -103 -315 -229c0 -67 43 -90 75 -90c45 0 60 31 72 31c4 0 6 -5 6 -14c0 -35 -32 -121 -118 -121c-81 0 -148 68 -148 158c0 175 203 306 446 306c193 0 342 -77 342 -207c0 -74 -63 -124 -132 -156
c59 -30 109 -81 109 -159c0 -140 -121 -225 -247 -225c-87 0 -171 26 -216 68c-87 -92 -189 -113 -266 -113c-122 0 -184 55 -184 118s64 126 190 126c69 0 133 -19 186 -40c34 66 45 101 69 179zM187 -13c46 0 99 20 146 85c-44 18 -90 32 -134 32c-57 0 -97 -24 -97 -60
c0 -35 36 -57 85 -57z" />
    <glyph glyph-name="B.alt" horiz-adv-x="934" 
d="M794 348c59 -30 109 -81 109 -159c0 -140 -121 -225 -247 -225c-87 0 -171 26 -216 68c-87 -92 -189 -113 -266 -113c-121 0 -184 63 -184 126c0 49 36 99 90 99c45 0 76 -36 76 -81c0 -50 -45 -68 -45 -68s20 -27 63 -27c86 0 171 36 261 333c76 248 212 302 257 302
c9 0 13 -5 13 -9c0 -23 -44 19 -135 -311c-23 -86 -55 -152 -91 -203c48 -30 93 -43 134 -43c90 0 155 63 155 152c0 68 -28 107 -57 129l-33 -8c-8 -2 -16 -2 -23 -2c-36 0 -55 19 -55 38c0 18 18 36 56 36c18 0 38 -2 60 -7c53 34 79 88 79 133c0 63 -49 162 -229 162
c-185 0 -315 -103 -315 -229c0 -67 43 -90 75 -90c45 0 60 31 72 31c4 0 6 -5 6 -14c0 -35 -32 -121 -118 -121c-81 0 -148 68 -148 158c0 175 203 306 446 306c193 0 342 -77 342 -207c0 -74 -63 -124 -132 -156z" />
    <glyph glyph-name="C" unicode="C" horiz-adv-x="629" 
d="M734 251c-59 -86 -215 -324 -450 -324c-150 0 -246 84 -246 250c0 103 56 219 143 317c-71 29 -103 69 -103 103c0 62 78 112 186 112c7 0 10 -3 10 -5c0 -6 -56 -22 -56 -73c0 -24 12 -47 33 -67c101 87 224 147 345 147c132 0 168 -46 168 -100s-70 -156 -326 -156
c-66 0 -121 5 -168 14c-50 -79 -80 -172 -80 -254c0 -98 52 -194 164 -194c123 0 247 106 354 250c4 6 10 8 15 8c8 0 15 -5 15 -15c0 -4 -1 -8 -4 -13zM550 659c-89 0 -173 -54 -237 -132c30 -11 67 -18 109 -18c58 0 196 17 196 101c0 26 -20 49 -68 49z" />
    <glyph glyph-name="Cacute" unicode="&#x106;" horiz-adv-x="629" 
d="M734 251c-59 -86 -215 -324 -450 -324c-150 0 -246 84 -246 250c0 103 56 219 143 317c-71 29 -103 69 -103 103c0 62 78 112 186 112c7 0 10 -3 10 -5c0 -6 -56 -22 -56 -73c0 -24 12 -47 33 -67c101 87 224 147 345 147c132 0 168 -46 168 -100s-70 -156 -326 -156
c-66 0 -121 5 -168 14c-50 -79 -80 -172 -80 -254c0 -98 52 -194 164 -194c123 0 247 106 354 250c4 6 10 8 15 8c8 0 15 -5 15 -15c0 -4 -1 -8 -4 -13zM550 659c-89 0 -173 -54 -237 -132c30 -11 67 -18 109 -18c58 0 196 17 196 101c0 26 -20 49 -68 49zM666 923
c20 0 61 -24 61 -63c0 -60 -90 -99 -179 -99c-28 0 -42 6 -42 16c0 31 138 27 138 127c0 10 2 19 22 19z" />
    <glyph glyph-name="Ccaron" unicode="&#x10c;" horiz-adv-x="629" 
d="M734 251c-59 -86 -215 -324 -450 -324c-150 0 -246 84 -246 250c0 103 56 219 143 317c-71 29 -103 69 -103 103c0 62 78 112 186 112c7 0 10 -3 10 -5c0 -6 -56 -22 -56 -73c0 -24 12 -47 33 -67c101 87 224 147 345 147c132 0 168 -46 168 -100s-70 -156 -326 -156
c-66 0 -121 5 -168 14c-50 -79 -80 -172 -80 -254c0 -98 52 -194 164 -194c123 0 247 106 354 250c4 6 10 8 15 8c8 0 15 -5 15 -15c0 -4 -1 -8 -4 -13zM550 659c-89 0 -173 -54 -237 -132c30 -11 67 -18 109 -18c58 0 196 17 196 101c0 26 -20 49 -68 49zM583 843
c-24 47 -49 44 -49 61c0 16 17 16 24 16c32 0 73 -15 100 -41c19 14 57 42 112 42c15 0 22 -4 22 -11c0 -22 -65 -38 -129 -122c-6 -8 -22 -30 -45 -30c-34 0 -16 47 -35 85z" />
    <glyph glyph-name="Ccedilla" unicode="&#xc7;" horiz-adv-x="629" 
d="M734 251c-59 -86 -215 -324 -450 -324c-14 0 -28 1 -41 3v-2c0 -41 65 -60 65 -124c0 -45 -42 -117 -126 -117c-33 0 -69 19 -69 50c0 16 8 18 14 18s14 -12 34 -12c15 0 35 11 35 31c0 25 -40 50 -40 86c0 31 15 59 33 81c-94 30 -151 108 -151 236
c0 103 56 219 143 317c-71 29 -103 69 -103 103c0 62 78 112 186 112c7 0 10 -3 10 -5c0 -6 -56 -22 -56 -73c0 -24 12 -47 33 -67c101 87 224 147 345 147c132 0 168 -46 168 -100s-70 -156 -326 -156c-66 0 -121 5 -168 14c-50 -79 -80 -172 -80 -254
c0 -98 52 -194 164 -194c123 0 247 106 354 250c4 6 10 8 15 8c8 0 15 -5 15 -15c0 -4 -1 -8 -4 -13zM550 659c-89 0 -173 -54 -237 -132c30 -11 67 -18 109 -18c58 0 196 17 196 101c0 26 -20 49 -68 49z" />
    <glyph glyph-name="Ccircumflex" unicode="&#x108;" horiz-adv-x="629" 
d="M734 251c-59 -86 -215 -324 -450 -324c-150 0 -246 84 -246 250c0 103 56 219 143 317c-71 29 -103 69 -103 103c0 62 78 112 186 112c7 0 10 -3 10 -5c0 -6 -56 -22 -56 -73c0 -24 12 -47 33 -67c101 87 224 147 345 147c132 0 168 -46 168 -100s-70 -156 -326 -156
c-66 0 -121 5 -168 14c-50 -79 -80 -172 -80 -254c0 -98 52 -194 164 -194c123 0 247 106 354 250c4 6 10 8 15 8c8 0 15 -5 15 -15c0 -4 -1 -8 -4 -13zM550 659c-89 0 -173 -54 -237 -132c30 -11 67 -18 109 -18c58 0 196 17 196 101c0 26 -20 49 -68 49zM700 837
c24 -47 49 -44 49 -61c0 -16 -17 -16 -24 -16c-32 0 -62 13 -89 39c-71 -27 -84 -40 -123 -40c-15 0 -22 4 -22 11c0 22 99 31 134 122c4 9 17 30 40 30c34 0 16 -47 35 -85z" />
    <glyph glyph-name="Cdotaccent" unicode="&#x10a;" horiz-adv-x="629" 
d="M734 251c-59 -86 -215 -324 -450 -324c-150 0 -246 84 -246 250c0 103 56 219 143 317c-71 29 -103 69 -103 103c0 62 78 112 186 112c7 0 10 -3 10 -5c0 -6 -56 -22 -56 -73c0 -24 12 -47 33 -67c101 87 224 147 345 147c132 0 168 -46 168 -100s-70 -156 -326 -156
c-66 0 -121 5 -168 14c-50 -79 -80 -172 -80 -254c0 -98 52 -194 164 -194c123 0 247 106 354 250c4 6 10 8 15 8c8 0 15 -5 15 -15c0 -4 -1 -8 -4 -13zM550 659c-89 0 -173 -54 -237 -132c30 -11 67 -18 109 -18c58 0 196 17 196 101c0 26 -20 49 -68 49zM613 756
c-34 0 -59 24 -59 54c0 43 43 81 91 81c34 0 56 -24 56 -53c0 -43 -42 -82 -88 -82z" />
    <glyph glyph-name="D" unicode="D" horiz-adv-x="1006" 
d="M547 712c225 0 437 -140 437 -410c0 -261 -197 -337 -333 -337c-85 0 -154 30 -217 62c-85 -87 -185 -107 -259 -107c-122 0 -185 54 -185 117s64 126 190 126c69 0 133 -19 186 -40c34 66 45 101 69 179c77 250 208 302 253 302c14 0 17 -5 17 -7
c0 -6 -44 -20 -135 -313c-31 -99 -42 -130 -92 -205c42 -14 83 -22 121 -22c142 0 246 109 246 289c0 191 -117 325 -307 325c-167 0 -287 -103 -287 -226c0 -73 43 -93 76 -93c42 0 60 31 71 31c4 0 6 -4 6 -15c0 -50 -38 -120 -120 -120c-77 0 -146 63 -146 164
c0 169 192 300 409 300zM187 -13c46 0 99 20 146 85c-44 18 -90 32 -134 32c-57 0 -97 -24 -97 -60c0 -35 36 -57 85 -57z" />
    <glyph glyph-name="Dcaron" unicode="&#x10e;" horiz-adv-x="1006" 
d="M547 712c225 0 437 -140 437 -410c0 -261 -197 -337 -333 -337c-85 0 -154 30 -217 62c-85 -87 -185 -107 -259 -107c-122 0 -185 54 -185 117s64 126 190 126c69 0 133 -19 186 -40c34 66 45 101 69 179c77 250 208 302 253 302c14 0 17 -5 17 -7
c0 -6 -44 -20 -135 -313c-31 -99 -42 -130 -92 -205c42 -14 83 -22 121 -22c142 0 246 109 246 289c0 191 -117 325 -307 325c-167 0 -287 -103 -287 -226c0 -73 43 -93 76 -93c42 0 60 31 71 31c4 0 6 -4 6 -15c0 -50 -38 -120 -120 -120c-77 0 -146 63 -146 164
c0 169 192 300 409 300zM187 -13c46 0 99 20 146 85c-44 18 -90 32 -134 32c-57 0 -97 -24 -97 -60c0 -35 36 -57 85 -57zM658 846c-24 47 -49 44 -49 61c0 16 17 16 24 16c32 0 73 -15 100 -41c19 14 57 42 112 42c15 0 22 -4 22 -11c0 -22 -65 -38 -129 -122
c-6 -8 -22 -30 -45 -30c-34 0 -16 47 -35 85z" />
    <glyph glyph-name="Dcroat" unicode="&#x110;" horiz-adv-x="1006" 
d="M548 711c224 0 436 -140 436 -410c0 -261 -197 -337 -333 -337c-85 0 -154 30 -217 62c-85 -87 -185 -107 -259 -107c-122 0 -185 54 -185 117s64 126 190 126c69 0 133 -19 186 -40c18 35 30 62 40 91c-52 0 -105 5 -105 18c0 7 1 20 31 20c39 0 65 0 88 1l15 49
c77 250 208 302 253 302c14 0 17 -5 17 -7c0 -4 -42 -21 -135 -313c-1 -3 -2 -5 -2 -7c105 33 146 87 164 87c13 0 24 -28 24 -45c0 -49 -89 -83 -206 -97c-20 -59 -34 -85 -72 -143c42 -14 83 -22 121 -22c142 0 246 109 246 289c0 191 -117 325 -307 325
c-144 0 -250 -77 -250 -170c0 -56 39 -71 67 -71c37 0 52 24 62 24c3 0 5 -3 5 -12c0 -38 -33 -91 -105 -91c-69 0 -131 49 -131 128c0 132 172 233 362 233zM187 -14c46 0 99 20 146 85c-44 18 -90 32 -134 32c-57 0 -97 -24 -97 -60c0 -35 36 -57 85 -57z" />
    <glyph glyph-name="E" unicode="E" horiz-adv-x="625" 
d="M735 251c-59 -86 -215 -324 -450 -324c-144 0 -247 64 -247 174c0 123 117 214 244 261c-27 27 -46 64 -47 115c-109 28 -156 78 -156 120c0 62 78 112 186 112c7 0 10 -1 10 -2c0 -6 -56 -25 -56 -76c0 -26 14 -52 40 -73c57 89 206 153 338 153s168 -46 168 -100
s-70 -156 -326 -156c-29 0 -56 1 -81 3c5 -32 15 -54 27 -69c25 4 49 7 72 7c43 0 65 -21 65 -43c0 -24 -28 -50 -86 -50c-29 0 -63 5 -95 19c-64 -29 -131 -80 -131 -164c0 -79 61 -123 135 -123c148 0 250 82 364 236c4 6 10 8 15 8c8 0 15 -5 15 -15c0 -4 -1 -8 -4 -13z
M551 659c-114 0 -182 -74 -194 -144c20 -4 42 -6 66 -6c80 0 142 18 176 54c13 14 20 31 20 47c0 26 -20 49 -68 49z" />
    <glyph glyph-name="Eacute" unicode="&#xc9;" horiz-adv-x="625" 
d="M735 251c-59 -86 -215 -324 -450 -324c-144 0 -247 64 -247 174c0 123 117 214 244 261c-27 27 -46 64 -47 115c-109 28 -156 78 -156 120c0 62 78 112 186 112c7 0 10 -1 10 -2c0 -6 -56 -25 -56 -76c0 -26 14 -52 40 -73c57 89 206 153 338 153s168 -46 168 -100
s-70 -156 -326 -156c-29 0 -56 1 -81 3c5 -32 15 -54 27 -69c25 4 49 7 72 7c43 0 65 -21 65 -43c0 -24 -28 -50 -86 -50c-29 0 -63 5 -95 19c-64 -29 -131 -80 -131 -164c0 -79 61 -123 135 -123c148 0 250 82 364 236c4 6 10 8 15 8c8 0 15 -5 15 -15c0 -4 -1 -8 -4 -13z
M551 659c-114 0 -182 -74 -194 -144c20 -4 42 -6 66 -6c80 0 142 18 176 54c13 14 20 31 20 47c0 26 -20 49 -68 49zM664 921c20 0 61 -24 61 -63c0 -60 -90 -99 -179 -99c-28 0 -42 6 -42 16c0 31 138 27 138 127c0 10 2 19 22 19z" />
    <glyph glyph-name="Ebreve" unicode="&#x114;" horiz-adv-x="625" 
d="M735 251c-59 -86 -215 -324 -450 -324c-144 0 -247 64 -247 174c0 123 117 214 244 261c-27 27 -46 64 -47 115c-109 28 -156 78 -156 120c0 62 78 112 186 112c7 0 10 -1 10 -2c0 -6 -56 -25 -56 -76c0 -26 14 -52 40 -73c57 89 206 153 338 153s168 -46 168 -100
s-70 -156 -326 -156c-29 0 -56 1 -81 3c5 -32 15 -54 27 -69c25 4 49 7 72 7c43 0 65 -21 65 -43c0 -24 -28 -50 -86 -50c-29 0 -63 5 -95 19c-64 -29 -131 -80 -131 -164c0 -79 61 -123 135 -123c148 0 250 82 364 236c4 6 10 8 15 8c8 0 15 -5 15 -15c0 -4 -1 -8 -4 -13z
M551 659c-114 0 -182 -74 -194 -144c20 -4 42 -6 66 -6c80 0 142 18 176 54c13 14 20 31 20 47c0 26 -20 49 -68 49zM569 893c0 -7 -2 -11 -2 -21c0 -27 18 -46 55 -46c47 0 68 31 81 55c8 14 13 22 23 22c9 0 14 -7 14 -20c0 -44 -51 -129 -149 -129c-66 0 -95 39 -95 78
c0 45 37 72 60 72c7 0 13 -2 13 -11z" />
    <glyph glyph-name="Ecaron" unicode="&#x11a;" horiz-adv-x="625" 
d="M735 251c-59 -86 -215 -324 -450 -324c-144 0 -247 64 -247 174c0 123 117 214 244 261c-27 27 -46 64 -47 115c-109 28 -156 78 -156 120c0 62 78 112 186 112c7 0 10 -1 10 -2c0 -6 -56 -25 -56 -76c0 -26 14 -52 40 -73c57 89 206 153 338 153s168 -46 168 -100
s-70 -156 -326 -156c-29 0 -56 1 -81 3c5 -32 15 -54 27 -69c25 4 49 7 72 7c43 0 65 -21 65 -43c0 -24 -28 -50 -86 -50c-29 0 -63 5 -95 19c-64 -29 -131 -80 -131 -164c0 -79 61 -123 135 -123c148 0 250 82 364 236c4 6 10 8 15 8c8 0 15 -5 15 -15c0 -4 -1 -8 -4 -13z
M551 659c-114 0 -182 -74 -194 -144c20 -4 42 -6 66 -6c80 0 142 18 176 54c13 14 20 31 20 47c0 26 -20 49 -68 49zM585 836c-24 47 -49 44 -49 61c0 16 17 16 24 16c32 0 73 -15 100 -41c19 14 57 42 112 42c15 0 22 -4 22 -11c0 -22 -65 -38 -129 -122
c-6 -8 -22 -30 -45 -30c-34 0 -16 47 -35 85z" />
    <glyph glyph-name="Ecircumflex" unicode="&#xca;" horiz-adv-x="625" 
d="M735 251c-59 -86 -215 -324 -450 -324c-144 0 -247 64 -247 174c0 123 117 214 244 261c-27 27 -46 64 -47 115c-109 28 -156 78 -156 120c0 62 78 112 186 112c7 0 10 -1 10 -2c0 -6 -56 -25 -56 -76c0 -26 14 -52 40 -73c57 89 206 153 338 153s168 -46 168 -100
s-70 -156 -326 -156c-29 0 -56 1 -81 3c5 -32 15 -54 27 -69c25 4 49 7 72 7c43 0 65 -21 65 -43c0 -24 -28 -50 -86 -50c-29 0 -63 5 -95 19c-64 -29 -131 -80 -131 -164c0 -79 61 -123 135 -123c148 0 250 82 364 236c4 6 10 8 15 8c8 0 15 -5 15 -15c0 -4 -1 -8 -4 -13z
M551 659c-114 0 -182 -74 -194 -144c20 -4 42 -6 66 -6c80 0 142 18 176 54c13 14 20 31 20 47c0 26 -20 49 -68 49zM692 835c24 -47 49 -44 49 -61c0 -16 -17 -16 -24 -16c-32 0 -62 13 -89 39c-71 -27 -84 -40 -123 -40c-15 0 -22 4 -22 11c0 22 99 31 134 122
c4 9 17 30 40 30c34 0 16 -47 35 -85z" />
    <glyph glyph-name="Edieresis" unicode="&#xcb;" horiz-adv-x="625" 
d="M735 251c-59 -86 -215 -324 -450 -324c-144 0 -247 64 -247 174c0 123 117 214 244 261c-27 27 -46 64 -47 115c-109 28 -156 78 -156 120c0 62 78 112 186 112c7 0 10 -1 10 -2c0 -6 -56 -25 -56 -76c0 -26 14 -52 40 -73c57 89 206 153 338 153s168 -46 168 -100
s-70 -156 -326 -156c-29 0 -56 1 -81 3c5 -32 15 -54 27 -69c25 4 49 7 72 7c43 0 65 -21 65 -43c0 -24 -28 -50 -86 -50c-29 0 -63 5 -95 19c-64 -29 -131 -80 -131 -164c0 -79 61 -123 135 -123c148 0 250 82 364 236c4 6 10 8 15 8c8 0 15 -5 15 -15c0 -4 -1 -8 -4 -13z
M551 659c-114 0 -182 -74 -194 -144c20 -4 42 -6 66 -6c80 0 142 18 176 54c13 14 20 31 20 47c0 26 -20 49 -68 49zM498 763c-31 0 -54 24 -54 53c0 40 43 73 82 73c31 0 50 -22 50 -48c0 -41 -36 -74 -78 -78zM670 763c-30 0 -52 21 -52 51c0 41 40 75 81 75
c31 0 49 -22 49 -48c0 -41 -38 -74 -78 -78z" />
    <glyph glyph-name="Edotaccent" unicode="&#x116;" horiz-adv-x="625" 
d="M735 251c-59 -86 -215 -324 -450 -324c-144 0 -247 64 -247 174c0 123 117 214 244 261c-27 27 -46 64 -47 115c-109 28 -156 78 -156 120c0 62 78 112 186 112c7 0 10 -1 10 -2c0 -6 -56 -25 -56 -76c0 -26 14 -52 40 -73c57 89 206 153 338 153s168 -46 168 -100
s-70 -156 -326 -156c-29 0 -56 1 -81 3c5 -32 15 -54 27 -69c25 4 49 7 72 7c43 0 65 -21 65 -43c0 -24 -28 -50 -86 -50c-29 0 -63 5 -95 19c-64 -29 -131 -80 -131 -164c0 -79 61 -123 135 -123c148 0 250 82 364 236c4 6 10 8 15 8c8 0 15 -5 15 -15c0 -4 -1 -8 -4 -13z
M551 659c-114 0 -182 -74 -194 -144c20 -4 42 -6 66 -6c80 0 142 18 176 54c13 14 20 31 20 47c0 26 -20 49 -68 49zM595 767c-34 0 -59 24 -59 54c0 43 43 81 91 81c34 0 56 -24 56 -53c0 -43 -42 -82 -88 -82z" />
    <glyph glyph-name="Egrave" unicode="&#xc8;" horiz-adv-x="625" 
d="M735 251c-59 -86 -215 -324 -450 -324c-144 0 -247 64 -247 174c0 123 117 214 244 261c-27 27 -46 64 -47 115c-109 28 -156 78 -156 120c0 62 78 112 186 112c7 0 10 -1 10 -2c0 -6 -56 -25 -56 -76c0 -26 14 -52 40 -73c57 89 206 153 338 153s168 -46 168 -100
s-70 -156 -326 -156c-29 0 -56 1 -81 3c5 -32 15 -54 27 -69c25 4 49 7 72 7c43 0 65 -21 65 -43c0 -24 -28 -50 -86 -50c-29 0 -63 5 -95 19c-64 -29 -131 -80 -131 -164c0 -79 61 -123 135 -123c148 0 250 82 364 236c4 6 10 8 15 8c8 0 15 -5 15 -15c0 -4 -1 -8 -4 -13z
M551 659c-114 0 -182 -74 -194 -144c20 -4 42 -6 66 -6c80 0 142 18 176 54c13 14 20 31 20 47c0 26 -20 49 -68 49zM553 915c8 0 10 -4 10 -10c0 -4 -1 -10 -1 -16c0 -78 152 -89 152 -120c0 -10 -14 -16 -43 -16c-89 0 -179 39 -179 99c0 39 42 63 61 63z" />
    <glyph glyph-name="Emacron" unicode="&#x112;" horiz-adv-x="625" 
d="M735 251c-59 -86 -215 -324 -450 -324c-144 0 -247 64 -247 174c0 123 117 214 244 261c-27 27 -46 64 -47 115c-109 28 -156 78 -156 120c0 62 78 112 186 112c7 0 10 -1 10 -2c0 -6 -56 -25 -56 -76c0 -26 14 -52 40 -73c57 89 206 153 338 153s168 -46 168 -100
s-70 -156 -326 -156c-29 0 -56 1 -81 3c5 -32 15 -54 27 -69c25 4 49 7 72 7c43 0 65 -21 65 -43c0 -24 -28 -50 -86 -50c-29 0 -63 5 -95 19c-64 -29 -131 -80 -131 -164c0 -79 61 -123 135 -123c148 0 250 82 364 236c4 6 10 8 15 8c8 0 15 -5 15 -15c0 -4 -1 -8 -4 -13z
M551 659c-114 0 -182 -74 -194 -144c20 -4 42 -6 66 -6c80 0 142 18 176 54c13 14 20 31 20 47c0 26 -20 49 -68 49zM606 834c49 0 75 0 111 9c35 10 45 16 55 16c5 0 7 -7 7 -14c0 -34 -28 -83 -80 -83c-87 0 -164 9 -210 9c-17 0 -34 8 -34 26c0 16 36 44 61 44
c24 0 41 -7 90 -7z" />
    <glyph glyph-name="Eng" unicode="&#x14a;" horiz-adv-x="896" 
d="M789 63c-6 -4 -14 -9 -24 -14c-11 -216 -167 -360 -284 -360c-48 0 -104 27 -104 94c0 109 150 195 273 255v13c0 84 -35 164 -49 201c-20 52 -40 100 -56 146c-76 -240 -166 -479 -380 -479c-117 0 -180 69 -180 135c0 45 28 87 78 87c48 0 87 -37 87 -85
c0 -26 -11 -42 -22 -51c14 -4 28 -6 42 -6c148 0 236 223 338 482l12 30c-2 18 -3 36 -3 52c0 111 43 170 95 170c18 0 33 -18 33 -53c0 -23 -6 -56 -21 -92c0 0 5 -57 23 -106c27 -76 71 -175 91 -255c103 160 184 351 184 446c0 43 -23 68 -59 68c-20 0 -32 -10 -37 -10
c-2 0 -3 3 -3 7c0 18 25 78 90 78c89 0 113 -78 113 -115c0 -155 -185 -424 -264 -562c2 -15 3 -30 3 -44l16 9c83 50 179 131 207 166c4 5 9 8 15 8c10 0 15 -7 15 -15c0 -4 -1 -7 -3 -11c-35 -47 -121 -119 -226 -189zM481 -207c67 0 140 87 162 194
c-95 -48 -193 -102 -193 -163c0 -18 13 -31 31 -31z" />
    <glyph glyph-name="Eogonek" unicode="&#x118;" horiz-adv-x="625" 
d="M735 251c-41 -60 -93 -166 -255 -267c-50 -31 -83 -96 -83 -128c0 -51 45 -45 45 -61c0 -28 -37 -59 -82 -59c-47 0 -76 32 -76 79c0 39 28 82 63 118c-20 -3 -41 -6 -62 -6c-144 0 -247 64 -247 174c0 123 117 214 244 261c-27 27 -46 64 -47 115
c-109 28 -156 78 -156 120c0 62 78 112 186 112c7 0 10 -1 10 -2c0 -6 -56 -25 -56 -76c0 -26 14 -52 40 -73c57 89 206 153 338 153s168 -46 168 -100s-70 -156 -326 -156c-29 0 -56 1 -81 3c5 -32 15 -54 27 -69c25 4 49 7 72 7c43 0 65 -21 65 -43c0 -24 -28 -50 -86 -50
c-29 0 -63 5 -95 19c-64 -29 -131 -80 -131 -164c0 -79 61 -123 135 -123c148 0 250 82 364 236c4 6 10 8 15 8c8 0 15 -5 15 -15c0 -4 -1 -8 -4 -13zM551 659c-114 0 -182 -74 -194 -144c20 -4 42 -6 66 -6c80 0 142 18 176 54c13 14 20 31 20 47c0 26 -20 49 -68 49z" />
    <glyph glyph-name="Eth" unicode="&#xd0;" horiz-adv-x="1006" 
d="M548 711c224 0 436 -140 436 -410c0 -261 -197 -337 -333 -337c-85 0 -154 30 -217 62c-85 -87 -185 -107 -259 -107c-122 0 -185 54 -185 117s64 126 190 126c69 0 133 -19 186 -40c18 35 30 62 40 91c-52 0 -105 5 -105 18c0 7 1 20 31 20c39 0 65 0 88 1l15 49
c77 250 208 302 253 302c14 0 17 -5 17 -7c0 -4 -42 -21 -135 -313c-1 -3 -2 -5 -2 -7c105 33 146 87 164 87c13 0 24 -28 24 -45c0 -49 -89 -83 -206 -97c-20 -59 -34 -85 -72 -143c42 -14 83 -22 121 -22c142 0 246 109 246 289c0 191 -117 325 -307 325
c-144 0 -250 -77 -250 -170c0 -56 39 -71 67 -71c37 0 52 24 62 24c3 0 5 -3 5 -12c0 -38 -33 -91 -105 -91c-69 0 -131 49 -131 128c0 132 172 233 362 233zM187 -14c46 0 99 20 146 85c-44 18 -90 32 -134 32c-57 0 -97 -24 -97 -60c0 -35 36 -57 85 -57z" />
    <glyph glyph-name="Euro" unicode="&#x20ac;" horiz-adv-x="522" 
d="M400 656c-102 0 -193 -134 -227 -286c174 25 223 105 247 105c13 0 24 -28 24 -45c0 -58 -127 -96 -279 -104c-3 -21 -5 -43 -5 -65c164 17 202 75 224 75c17 0 25 -33 25 -44c0 -44 -115 -67 -248 -73c6 -95 42 -164 118 -164c46 0 96 25 96 84c0 46 -31 55 -31 69
c0 5 5 12 34 12c60 0 97 -24 97 -75c0 -80 -95 -155 -233 -155c-131 0 -223 75 -223 225v5c-30 2 -51 7 -51 16c0 7 1 20 31 20h22c2 24 6 48 11 72c-25 2 -43 7 -43 15c0 7 1 20 31 20h22c57 182 209 345 388 345c95 0 158 -46 158 -111c0 -70 -73 -100 -132 -100
c-27 0 -29 6 -29 10c0 18 37 35 37 86c0 39 -21 63 -64 63z" />
    <glyph glyph-name="F" unicode="F" horiz-adv-x="684" 
d="M911 721c37 0 111 -23 111 -92c0 -47 -35 -83 -105 -83c-115 0 -219 99 -385 99c-150 0 -237 -80 -237 -177c0 -80 59 -130 146 -150c39 79 101 268 240 268c23 0 25 -5 25 -7c0 -9 -53 -10 -126 -261c57 12 87 37 87 76c0 28 -15 34 -15 41s12 10 21 10
c25 0 68 -21 68 -66c0 -65 -88 -101 -176 -115c-89 -298 -279 -344 -387 -344c-127 0 -188 63 -188 126c0 49 36 99 90 99c45 0 77 -36 77 -80c0 -52 -45 -69 -45 -69s13 -27 72 -27c74 0 157 42 237 287c-107 12 -263 64 -263 206c0 160 181 241 364 241
c123 0 234 -37 319 -37c49 0 63 12 63 27c0 13 -10 16 -10 22c0 2 1 6 17 6z" />
    <glyph glyph-name="F.alt1" horiz-adv-x="684" 
d="M921 777c37 0 111 -23 111 -92c0 -47 -36 -83 -107 -83c-122 0 -232 56 -408 56c-138 0 -221 -76 -221 -187c0 -82 59 -133 145 -153c39 79 101 268 240 268c23 0 25 -5 25 -7c0 -9 -53 -10 -126 -261c57 12 87 37 87 76c0 28 -15 34 -15 41s12 10 21 10
c25 0 68 -21 68 -66c0 -65 -88 -101 -176 -115c-89 -298 -279 -344 -387 -344c-127 0 -188 63 -188 126c0 49 36 99 90 99c45 0 77 -36 77 -80c0 -52 -45 -69 -45 -69s13 -27 72 -27c74 0 157 42 237 287c-107 13 -262 68 -262 221c0 177 179 248 362 248
c122 0 211 -12 294 -12c62 0 95 6 95 28c0 13 -6 17 -6 24c0 4 1 12 17 12z" />
    <glyph glyph-name="G" unicode="G" horiz-adv-x="688" 
d="M809 251c-41 -56 -106 -164 -249 -252c-29 -141 -92 -311 -230 -311c-63 0 -106 41 -106 97c0 73 71 134 222 202l12 53c-69 -56 -146 -90 -208 -90c-124 0 -212 60 -212 210c0 105 60 228 150 331c-76 29 -110 70 -110 105c0 62 78 112 186 112c7 0 10 -3 10 -5
c0 -10 -56 -20 -56 -73c0 -25 14 -50 38 -70c99 88 222 150 340 150c132 0 168 -46 168 -100s-70 -156 -326 -156c-64 0 -118 5 -164 13c-45 -74 -83 -181 -83 -273c0 -101 46 -152 114 -152c61 0 121 46 170 101c15 109 55 234 118 234c42 0 54 -22 54 -63
c0 -77 -63 -149 -63 -149c-2 -24 -6 -66 -15 -117c111 73 178 177 213 221c4 5 9 8 15 8c10 0 15 -7 15 -15c0 -4 -1 -7 -3 -11zM550 658c-88 0 -171 -54 -234 -132c30 -11 66 -16 106 -16c58 0 196 15 196 99c0 26 -20 49 -68 49zM334 -207c36 0 77 72 98 140
c-67 -34 -129 -77 -129 -109c0 -18 13 -31 31 -31z" />
    <glyph glyph-name="G.swash" horiz-adv-x="689" 
d="M1186 -49c14 0 41 -33 41 -73c0 -64 -41 -135 -185 -135c-204 0 -335 154 -503 192c-36 -123 -101 -246 -218 -246c-64 0 -99 59 -99 104c0 116 133 182 221 192l13 55c-65 -50 -136 -80 -197 -80c-124 0 -221 64 -221 212c0 103 57 224 143 322c-71 29 -103 69 -103 103
c0 62 78 112 186 112c7 0 10 -1 10 -2c0 -6 -56 -25 -56 -76c0 -24 12 -47 33 -67c101 87 225 147 345 147c132 0 168 -46 168 -100s-70 -156 -326 -156c-64 0 -119 5 -165 13c-49 -79 -83 -171 -83 -270c0 -105 46 -155 114 -155c66 0 122 40 167 91c15 110 55 244 120 244
c42 0 54 -22 54 -63c0 -77 -63 -149 -63 -149c-3 -34 -11 -106 -30 -185c89 -10 167 -37 245 -58c84 -22 172 -35 248 -35c123 0 115 63 141 63zM550 659c-89 0 -171 -54 -235 -132c30 -11 66 -18 107 -18c80 0 142 18 176 54c13 14 20 31 20 47c0 26 -20 49 -68 49z
M352 -189c30 0 58 61 80 133c-57 -15 -111 -58 -111 -102c0 -18 13 -31 31 -31z" />
    <glyph glyph-name="Gbreve" unicode="&#x11e;" horiz-adv-x="688" 
d="M809 251c-41 -56 -106 -164 -249 -252c-29 -141 -92 -311 -230 -311c-63 0 -106 41 -106 97c0 73 71 134 222 202l12 53c-69 -56 -146 -90 -208 -90c-124 0 -212 60 -212 210c0 105 60 228 150 331c-76 29 -110 70 -110 105c0 62 78 112 186 112c7 0 10 -3 10 -5
c0 -10 -56 -20 -56 -73c0 -25 14 -50 38 -70c99 88 222 150 340 150c132 0 168 -46 168 -100s-70 -156 -326 -156c-64 0 -118 5 -164 13c-45 -74 -83 -181 -83 -273c0 -101 46 -152 114 -152c61 0 121 46 170 101c15 109 55 234 118 234c42 0 54 -22 54 -63
c0 -77 -63 -149 -63 -149c-2 -24 -6 -66 -15 -117c111 73 178 177 213 221c4 5 9 8 15 8c10 0 15 -7 15 -15c0 -4 -1 -7 -3 -11zM550 658c-88 0 -171 -54 -234 -132c30 -11 66 -16 106 -16c58 0 196 15 196 99c0 26 -20 49 -68 49zM334 -207c36 0 77 72 98 140
c-67 -34 -129 -77 -129 -109c0 -18 13 -31 31 -31zM624 900c0 -7 -2 -11 -2 -21c0 -27 18 -46 55 -46c47 0 68 31 81 55c8 14 13 22 23 22c9 0 14 -7 14 -20c0 -44 -51 -129 -149 -129c-66 0 -95 39 -95 78c0 45 37 72 60 72c7 0 13 -2 13 -11z" />
    <glyph glyph-name="Gcircumflex" unicode="&#x11c;" horiz-adv-x="688" 
d="M809 251c-41 -56 -106 -164 -249 -252c-29 -141 -92 -311 -230 -311c-63 0 -106 41 -106 97c0 73 71 134 222 202l12 53c-69 -56 -146 -90 -208 -90c-124 0 -212 60 -212 210c0 105 60 228 150 331c-76 29 -110 70 -110 105c0 62 78 112 186 112c7 0 10 -3 10 -5
c0 -10 -56 -20 -56 -73c0 -25 14 -50 38 -70c99 88 222 150 340 150c132 0 168 -46 168 -100s-70 -156 -326 -156c-64 0 -118 5 -164 13c-45 -74 -83 -181 -83 -273c0 -101 46 -152 114 -152c61 0 121 46 170 101c15 109 55 234 118 234c42 0 54 -22 54 -63
c0 -77 -63 -149 -63 -149c-2 -24 -6 -66 -15 -117c111 73 178 177 213 221c4 5 9 8 15 8c10 0 15 -7 15 -15c0 -4 -1 -7 -3 -11zM550 658c-88 0 -171 -54 -234 -132c30 -11 66 -16 106 -16c58 0 196 15 196 99c0 26 -20 49 -68 49zM334 -207c36 0 77 72 98 140
c-67 -34 -129 -77 -129 -109c0 -18 13 -31 31 -31zM712 833c24 -47 49 -44 49 -61c0 -16 -17 -16 -24 -16c-32 0 -62 13 -89 39c-71 -27 -84 -40 -123 -40c-15 0 -22 4 -22 11c0 22 99 31 134 122c4 9 17 30 40 30c34 0 16 -47 35 -85z" />
    <glyph glyph-name="Gcommaaccent" unicode="&#x122;" horiz-adv-x="688" 
d="M809 251c-41 -56 -106 -164 -249 -252c-29 -141 -92 -311 -230 -311c-63 0 -106 41 -106 97c0 73 71 134 222 202l12 53c-69 -56 -146 -90 -208 -90c-124 0 -212 60 -212 210c0 105 60 228 150 331c-76 29 -110 70 -110 105c0 62 78 112 186 112c7 0 10 -3 10 -5
c0 -10 -56 -20 -56 -73c0 -25 14 -50 38 -70c99 88 222 150 340 150c132 0 168 -46 168 -100s-70 -156 -326 -156c-64 0 -118 5 -164 13c-45 -74 -83 -181 -83 -273c0 -101 46 -152 114 -152c61 0 121 46 170 101c15 109 55 234 118 234c42 0 54 -22 54 -63
c0 -77 -63 -149 -63 -149c-2 -24 -6 -66 -15 -117c111 73 178 177 213 221c4 5 9 8 15 8c10 0 15 -7 15 -15c0 -4 -1 -7 -3 -11zM550 658c-88 0 -171 -54 -234 -132c30 -11 66 -16 106 -16c58 0 196 15 196 99c0 26 -20 49 -68 49zM334 -207c36 0 77 72 98 140
c-67 -34 -129 -77 -129 -109c0 -18 13 -31 31 -31zM73 -281c-6 0 -12 3 -12 10c0 22 31 35 48 135c7 42 29 59 57 59c40 0 46 -34 46 -63c0 -63 -93 -141 -139 -141z" />
    <glyph glyph-name="Gdotaccent" unicode="&#x120;" horiz-adv-x="688" 
d="M809 251c-41 -56 -106 -164 -249 -252c-29 -141 -92 -311 -230 -311c-63 0 -106 41 -106 97c0 73 71 134 222 202l12 53c-69 -56 -146 -90 -208 -90c-124 0 -212 60 -212 210c0 105 60 228 150 331c-76 29 -110 70 -110 105c0 62 78 112 186 112c7 0 10 -3 10 -5
c0 -10 -56 -20 -56 -73c0 -25 14 -50 38 -70c99 88 222 150 340 150c132 0 168 -46 168 -100s-70 -156 -326 -156c-64 0 -118 5 -164 13c-45 -74 -83 -181 -83 -273c0 -101 46 -152 114 -152c61 0 121 46 170 101c15 109 55 234 118 234c42 0 54 -22 54 -63
c0 -77 -63 -149 -63 -149c-2 -24 -6 -66 -15 -117c111 73 178 177 213 221c4 5 9 8 15 8c10 0 15 -7 15 -15c0 -4 -1 -7 -3 -11zM550 658c-88 0 -171 -54 -234 -132c30 -11 66 -16 106 -16c58 0 196 15 196 99c0 26 -20 49 -68 49zM334 -207c36 0 77 72 98 140
c-67 -34 -129 -77 -129 -109c0 -18 13 -31 31 -31zM659 758c-34 0 -59 24 -59 54c0 43 43 81 91 81c34 0 56 -24 56 -53c0 -43 -42 -82 -88 -82z" />
    <glyph glyph-name="H" unicode="H" horiz-adv-x="829" 
d="M948 614c0 -114 -107 -212 -213 -269c-27 -87 -47 -171 -47 -217c0 -31 9 -55 41 -55c30 0 48 22 189 198c4 5 9 8 15 8c10 0 15 -7 15 -15c0 -4 -1 -7 -3 -11c-166 -227 -223 -285 -293 -285c-72 0 -101 60 -101 135c0 51 13 114 36 191c-26 -6 -53 -11 -83 -15
c-49 -7 -71 -11 -101 -18c-47 -171 -112 -342 -271 -342c-84 0 -117 48 -117 106c0 64 44 183 247 258c38 136 86 291 180 354c-26 6 -56 9 -80 9c-126 0 -214 -83 -214 -156c0 -30 15 -52 46 -52c34 0 33 26 43 26c6 0 9 -8 9 -22c0 -41 -27 -118 -110 -118
c-76 0 -113 66 -113 128c0 119 139 250 335 250c42 0 102 -6 141 -13c0 0 44 23 82 23s68 -23 68 -53c0 -24 -19 -54 -67 -54c-17 0 -37 4 -57 9c-68 -97 -78 -192 -105 -289c20 4 59 10 81 13c57 8 65 10 108 21c61 171 161 353 261 353c41 0 78 -31 78 -98zM145 41
c42 0 69 71 96 166c-102 -50 -127 -109 -127 -135c0 -18 12 -31 31 -31zM865 584c-28 0 -67 -69 -100 -155c83 56 111 115 111 141c0 7 -2 14 -11 14z" />
    <glyph glyph-name="H.swash" horiz-adv-x="830" 
d="M999 -53c9 0 14 -10 14 -26c0 -55 -58 -178 -189 -178c-205 0 -261 175 -261 344c0 56 12 130 32 207c-28 -6 -58 -12 -90 -16c-38 -5 -71 -11 -102 -18c-52 -187 -106 -342 -282 -342c-63 0 -106 48 -106 104c0 65 42 184 248 260c38 136 85 291 180 354
c-26 6 -55 9 -86 9c-117 0 -208 -83 -208 -155c0 -30 15 -53 45 -53c37 0 32 26 44 26c5 0 8 -10 8 -24c0 -40 -24 -116 -104 -116c-84 0 -119 67 -119 128c0 119 140 250 335 250c42 0 102 -6 142 -13c0 0 44 23 83 23c37 0 67 -23 67 -53c0 -24 -19 -54 -68 -54
c-16 0 -37 4 -57 9c-47 -90 -77 -192 -104 -289c25 5 52 9 81 13c41 5 79 13 112 23c57 177 155 351 257 351c42 0 78 -34 78 -96c0 -5 -1 -9 -1 -14c-7 -73 -61 -181 -206 -254c-21 -77 -35 -155 -35 -205c0 -130 32 -260 157 -260c83 0 119 65 135 65zM145 40
c43 0 69 71 97 166c-102 -50 -128 -109 -128 -135c0 -18 13 -31 31 -31zM868 583c-34 0 -70 -67 -100 -153c78 52 109 112 109 139c0 8 -3 14 -9 14z" />
    <glyph glyph-name="Hbar" unicode="&#x126;" horiz-adv-x="829" 
d="M933 279c10 0 15 -7 15 -15c0 -4 -1 -7 -3 -11c-166 -227 -223 -285 -293 -285c-72 0 -101 60 -101 135c0 51 13 114 36 191c-26 -6 -53 -11 -83 -15c-49 -7 -71 -11 -101 -18c-47 -171 -112 -342 -271 -342c-84 0 -117 48 -117 106c0 64 44 183 247 258
c11 42 24 86 39 128c-23 -6 -45 -11 -57 -11c-6 0 -9 1 -9 4c0 7 20 56 47 56c10 0 23 -1 37 0c31 75 69 141 123 177c-26 6 -56 9 -80 9c-126 0 -214 -83 -214 -156c0 -24 9 -41 25 -41c19 0 25 15 32 15c6 0 9 -8 9 -22c0 -63 -52 -93 -108 -93c-58 0 -83 61 -83 103
c0 119 139 250 335 250c42 0 102 -6 141 -13c0 0 44 23 82 23s68 -23 68 -53c0 -24 -19 -54 -67 -54c-17 0 -37 4 -57 9c-35 -49 -54 -98 -69 -147c2 0 4 1 6 1c82 10 150 22 208 35c57 116 128 209 200 209c45 0 59 -51 59 -82c0 -11 -4 -14 -11 -14s-12 6 -27 6
c-19 0 -46 -31 -73 -77c61 21 92 37 104 37c7 0 10 -2 10 -13c0 -13 -29 -63 -74 -82c-24 -10 -52 -19 -83 -26c-9 -19 -17 -39 -25 -59l95 32c7 0 10 -2 10 -13c0 -13 -29 -63 -74 -82c-18 -8 -38 -14 -59 -20c-21 -68 -34 -136 -34 -191c0 -31 9 -55 41 -55
c30 0 48 22 189 198c4 5 9 8 15 8zM639 437c-68 -9 -137 -13 -195 -16c-8 -32 -15 -64 -24 -96c20 4 59 10 81 13c57 8 65 10 108 21c9 26 19 52 30 78zM145 41c42 0 69 71 96 166c-102 -50 -127 -109 -127 -135c0 -18 12 -31 31 -31z" />
    <glyph glyph-name="Hcircumflex" unicode="&#x124;" horiz-adv-x="829" 
d="M948 614c0 -114 -107 -212 -213 -269c-27 -87 -47 -171 -47 -217c0 -31 9 -55 41 -55c30 0 48 22 189 198c4 5 9 8 15 8c10 0 15 -7 15 -15c0 -4 -1 -7 -3 -11c-166 -227 -223 -285 -293 -285c-72 0 -101 60 -101 135c0 51 13 114 36 191c-26 -6 -53 -11 -83 -15
c-49 -7 -71 -11 -101 -18c-47 -171 -112 -342 -271 -342c-84 0 -117 48 -117 106c0 64 44 183 247 258c38 136 86 291 180 354c-26 6 -56 9 -80 9c-126 0 -214 -83 -214 -156c0 -30 15 -52 46 -52c34 0 33 26 43 26c6 0 9 -8 9 -22c0 -41 -27 -118 -110 -118
c-76 0 -113 66 -113 128c0 119 139 250 335 250c42 0 102 -6 141 -13c0 0 44 23 82 23s68 -23 68 -53c0 -24 -19 -54 -67 -54c-17 0 -37 4 -57 9c-68 -97 -78 -192 -105 -289c20 4 59 10 81 13c57 8 65 10 108 21c61 171 161 353 261 353c41 0 78 -31 78 -98zM145 41
c42 0 69 71 96 166c-102 -50 -127 -109 -127 -135c0 -18 12 -31 31 -31zM865 584c-28 0 -67 -69 -100 -155c83 56 111 115 111 141c0 7 -2 14 -11 14zM794 829c24 -47 49 -44 49 -61c0 -16 -17 -16 -24 -16c-32 0 -62 13 -89 39c-71 -27 -84 -40 -123 -40
c-15 0 -22 4 -22 11c0 22 99 31 134 122c4 9 17 30 40 30c34 0 16 -47 35 -85z" />
    <glyph glyph-name="I" unicode="I" horiz-adv-x="592" 
d="M698 712c37 0 67 -23 67 -53c0 -24 -19 -54 -68 -54c-17 0 -40 5 -61 10c-30 -41 -70 -118 -107 -289c-86 -393 -233 -407 -355 -407c-121 0 -184 63 -184 126c0 49 36 99 90 99c45 0 76 -36 76 -81c0 -50 -45 -68 -45 -68s20 -27 63 -27c86 0 135 38 215 358
c45 179 114 273 167 312c-26 5 -53 8 -83 8c-118 0 -209 -83 -209 -155c0 -30 15 -53 45 -53c33 0 35 26 45 26c5 0 8 -9 8 -23c0 -40 -25 -117 -105 -117c-84 0 -118 67 -118 128c0 119 139 250 334 250c42 0 103 -6 142 -13c0 0 44 23 83 23z" />
    <glyph glyph-name="IJ" unicode="&#x132;" horiz-adv-x="798" 
d="M515 295c-90 -361 -224 -376 -341 -376c-121 0 -184 63 -184 126c0 49 36 99 90 99c44 0 74 -36 74 -81c0 -50 -44 -68 -44 -68s19 -27 61 -27c83 0 128 60 216 338c28 89 57 158 87 211c-92 10 -140 47 -140 95c0 78 112 151 266 151c96 0 190 -41 262 -75
c0 0 42 23 78 23c35 0 63 -23 63 -53c0 -24 -19 -54 -67 -54c-16 0 -37 4 -57 9c-68 -130 -112 -326 -165 -504c77 59 132 126 160 161c4 5 9 8 15 8c10 0 15 -7 15 -15c0 -4 -1 -7 -3 -11c-35 -47 -100 -136 -205 -205c-63 -197 -143 -358 -285 -358c-48 0 -104 27 -104 94
c0 83 65 169 244 238c63 215 134 530 255 615c-56 23 -109 65 -219 65c-92 0 -138 -54 -138 -87c0 -20 23 -38 64 -39c43 53 91 77 146 77c35 0 63 -21 63 -49c0 -46 -67 -73 -133 -83c-20 -49 -50 -129 -74 -225zM418 -207c34 0 92 84 122 179c-93 -38 -153 -111 -153 -148
c0 -18 13 -31 31 -31z" />
    <glyph glyph-name="Iacute" unicode="&#xcd;" horiz-adv-x="592" 
d="M698 712c37 0 67 -23 67 -53c0 -24 -19 -54 -68 -54c-17 0 -40 5 -61 10c-30 -41 -70 -118 -107 -289c-86 -393 -233 -407 -355 -407c-121 0 -184 63 -184 126c0 49 36 99 90 99c45 0 76 -36 76 -81c0 -50 -45 -68 -45 -68s20 -27 63 -27c86 0 135 38 215 358
c45 179 114 273 167 312c-26 5 -53 8 -83 8c-118 0 -209 -83 -209 -155c0 -30 15 -53 45 -53c33 0 35 26 45 26c5 0 8 -9 8 -23c0 -40 -25 -117 -105 -117c-84 0 -118 67 -118 128c0 119 139 250 334 250c42 0 103 -6 142 -13c0 0 44 23 83 23zM655 921c20 0 61 -24 61 -63
c0 -60 -90 -99 -179 -99c-28 0 -42 6 -42 16c0 31 138 27 138 127c0 10 2 19 22 19z" />
    <glyph glyph-name="Ibreve" unicode="&#x12c;" horiz-adv-x="592" 
d="M698 712c37 0 67 -23 67 -53c0 -24 -19 -54 -68 -54c-17 0 -40 5 -61 10c-30 -41 -70 -118 -107 -289c-86 -393 -233 -407 -355 -407c-121 0 -184 63 -184 126c0 49 36 99 90 99c45 0 76 -36 76 -81c0 -50 -45 -68 -45 -68s20 -27 63 -27c86 0 135 38 215 358
c45 179 114 273 167 312c-26 5 -53 8 -83 8c-118 0 -209 -83 -209 -155c0 -30 15 -53 45 -53c33 0 35 26 45 26c5 0 8 -9 8 -23c0 -40 -25 -117 -105 -117c-84 0 -118 67 -118 128c0 119 139 250 334 250c42 0 103 -6 142 -13c0 0 44 23 83 23zM606 891c0 -7 -2 -11 -2 -21
c0 -27 18 -46 55 -46c47 0 68 31 81 55c8 14 13 22 23 22c9 0 14 -7 14 -20c0 -44 -51 -129 -149 -129c-66 0 -95 39 -95 78c0 45 37 72 60 72c7 0 13 -2 13 -11z" />
    <glyph glyph-name="Icircumflex" unicode="&#xce;" horiz-adv-x="592" 
d="M698 712c37 0 67 -23 67 -53c0 -24 -19 -54 -68 -54c-17 0 -40 5 -61 10c-30 -41 -70 -118 -107 -289c-86 -393 -233 -407 -355 -407c-121 0 -184 63 -184 126c0 49 36 99 90 99c45 0 76 -36 76 -81c0 -50 -45 -68 -45 -68s20 -27 63 -27c86 0 135 38 215 358
c45 179 114 273 167 312c-26 5 -53 8 -83 8c-118 0 -209 -83 -209 -155c0 -30 15 -53 45 -53c33 0 35 26 45 26c5 0 8 -9 8 -23c0 -40 -25 -117 -105 -117c-84 0 -118 67 -118 128c0 119 139 250 334 250c42 0 103 -6 142 -13c0 0 44 23 83 23zM702 842
c24 -47 49 -44 49 -61c0 -16 -17 -16 -24 -16c-32 0 -62 13 -89 39c-71 -27 -84 -40 -123 -40c-15 0 -22 4 -22 11c0 22 99 31 134 122c4 9 17 30 40 30c34 0 16 -47 35 -85z" />
    <glyph glyph-name="Idieresis" unicode="&#xcf;" horiz-adv-x="592" 
d="M698 712c37 0 67 -23 67 -53c0 -24 -19 -54 -68 -54c-17 0 -40 5 -61 10c-30 -41 -70 -118 -107 -289c-86 -393 -233 -407 -355 -407c-121 0 -184 63 -184 126c0 49 36 99 90 99c45 0 76 -36 76 -81c0 -50 -45 -68 -45 -68s20 -27 63 -27c86 0 135 38 215 358
c45 179 114 273 167 312c-26 5 -53 8 -83 8c-118 0 -209 -83 -209 -155c0 -30 15 -53 45 -53c33 0 35 26 45 26c5 0 8 -9 8 -23c0 -40 -25 -117 -105 -117c-84 0 -118 67 -118 128c0 119 139 250 334 250c42 0 103 -6 142 -13c0 0 44 23 83 23zM518 754c-33 0 -58 26 -58 57
c0 43 46 78 87 78c33 0 54 -23 54 -51c0 -44 -39 -80 -83 -84zM702 754c-32 0 -57 22 -57 54c0 44 43 81 87 81c34 0 53 -23 53 -51c0 -44 -40 -80 -83 -84z" />
    <glyph glyph-name="Idotaccent" unicode="&#x130;" horiz-adv-x="592" 
d="M698 712c37 0 67 -23 67 -53c0 -24 -19 -54 -68 -54c-17 0 -40 5 -61 10c-30 -41 -70 -118 -107 -289c-86 -393 -233 -407 -355 -407c-121 0 -184 63 -184 126c0 49 36 99 90 99c45 0 76 -36 76 -81c0 -50 -45 -68 -45 -68s20 -27 63 -27c86 0 135 38 215 358
c45 179 114 273 167 312c-26 5 -53 8 -83 8c-118 0 -209 -83 -209 -155c0 -30 15 -53 45 -53c33 0 35 26 45 26c5 0 8 -9 8 -23c0 -40 -25 -117 -105 -117c-84 0 -118 67 -118 128c0 119 139 250 334 250c42 0 103 -6 142 -13c0 0 44 23 83 23zM633 761c-34 0 -59 24 -59 54
c0 43 43 81 91 81c34 0 56 -24 56 -53c0 -43 -42 -82 -88 -82z" />
    <glyph glyph-name="Igrave" unicode="&#xcc;" horiz-adv-x="592" 
d="M698 712c37 0 67 -23 67 -53c0 -24 -19 -54 -68 -54c-17 0 -40 5 -61 10c-30 -41 -70 -118 -107 -289c-86 -393 -233 -407 -355 -407c-121 0 -184 63 -184 126c0 49 36 99 90 99c45 0 76 -36 76 -81c0 -50 -45 -68 -45 -68s20 -27 63 -27c86 0 135 38 215 358
c45 179 114 273 167 312c-26 5 -53 8 -83 8c-118 0 -209 -83 -209 -155c0 -30 15 -53 45 -53c33 0 35 26 45 26c5 0 8 -9 8 -23c0 -40 -25 -117 -105 -117c-84 0 -118 67 -118 128c0 119 139 250 334 250c42 0 103 -6 142 -13c0 0 44 23 83 23zM567 932c8 0 10 -4 10 -10
c0 -4 -1 -10 -1 -16c0 -78 152 -89 152 -120c0 -10 -14 -16 -43 -16c-89 0 -179 39 -179 99c0 39 42 63 61 63z" />
    <glyph glyph-name="Imacron" unicode="&#x12a;" horiz-adv-x="592" 
d="M698 712c37 0 67 -23 67 -53c0 -24 -19 -54 -68 -54c-17 0 -40 5 -61 10c-30 -41 -70 -118 -107 -289c-86 -393 -233 -407 -355 -407c-121 0 -184 63 -184 126c0 49 36 99 90 99c45 0 76 -36 76 -81c0 -50 -45 -68 -45 -68s20 -27 63 -27c86 0 135 38 215 358
c45 179 114 273 167 312c-26 5 -53 8 -83 8c-118 0 -209 -83 -209 -155c0 -30 15 -53 45 -53c33 0 35 26 45 26c5 0 8 -9 8 -23c0 -40 -25 -117 -105 -117c-84 0 -118 67 -118 128c0 119 139 250 334 250c42 0 103 -6 142 -13c0 0 44 23 83 23zM619 828c49 0 75 0 111 9
c35 10 45 16 55 16c5 0 7 -7 7 -14c0 -34 -28 -83 -80 -83c-87 0 -164 9 -210 9c-17 0 -34 8 -34 26c0 16 36 44 61 44c24 0 41 -7 90 -7z" />
    <glyph glyph-name="Iogonek" unicode="&#x12e;" horiz-adv-x="592" 
d="M698 712c37 0 67 -23 67 -53c0 -24 -19 -54 -68 -54c-17 0 -40 5 -61 10c-30 -41 -70 -118 -107 -289c-43 -194 -99 -297 -161 -348c-48 -39 -105 -107 -105 -149c0 -51 45 -45 45 -61c0 -28 -37 -59 -82 -59c-47 0 -76 32 -76 79c0 45 36 94 77 133
c-18 -1 -36 -2 -53 -2c-121 0 -184 63 -184 126c0 49 36 99 90 99c45 0 76 -36 76 -81c0 -50 -45 -68 -45 -68s20 -27 63 -27c86 0 135 38 215 358c45 179 114 273 167 312c-26 5 -53 8 -83 8c-118 0 -209 -83 -209 -155c0 -30 15 -53 45 -53c33 0 35 26 45 26
c5 0 8 -9 8 -23c0 -40 -25 -117 -105 -117c-84 0 -118 67 -118 128c0 119 139 250 334 250c42 0 103 -6 142 -13c0 0 44 23 83 23z" />
    <glyph glyph-name="Itilde" unicode="&#x128;" horiz-adv-x="592" 
d="M698 712c37 0 67 -23 67 -53c0 -24 -19 -54 -68 -54c-17 0 -40 5 -61 10c-30 -41 -70 -118 -107 -289c-86 -393 -233 -407 -355 -407c-121 0 -184 63 -184 126c0 49 36 99 90 99c45 0 76 -36 76 -81c0 -50 -45 -68 -45 -68s20 -27 63 -27c86 0 135 38 215 358
c45 179 114 273 167 312c-26 5 -53 8 -83 8c-118 0 -209 -83 -209 -155c0 -30 15 -53 45 -53c33 0 35 26 45 26c5 0 8 -9 8 -23c0 -40 -25 -117 -105 -117c-84 0 -118 67 -118 128c0 119 139 250 334 250c42 0 103 -6 142 -13c0 0 44 23 83 23zM525 769c-6 0 -9 7 -9 23
c0 36 27 81 81 81c42 0 72 -38 104 -38c40 0 46 27 53 27c4 0 8 -1 8 -15c0 -37 -28 -87 -85 -87c-50 0 -60 37 -99 37c-34 0 -43 -28 -53 -28z" />
    <glyph glyph-name="J" unicode="J" horiz-adv-x="486" 
d="M624 711c37 0 67 -23 67 -53c0 -24 -19 -54 -68 -54c-16 0 -37 4 -57 9c-69 -130 -113 -326 -166 -504c77 59 133 126 161 161c4 5 9 8 15 8c10 0 15 -7 15 -15c0 -4 -1 -7 -3 -11c-35 -47 -101 -136 -207 -205c-63 -197 -144 -358 -287 -358c-48 0 -104 27 -104 94
c0 83 65 169 239 238c63 215 134 530 255 615c-26 6 -54 9 -85 9c-118 0 -209 -83 -209 -155c0 -30 15 -53 45 -53c31 0 35 26 45 26c5 0 8 -9 8 -23c0 -40 -25 -117 -105 -117c-84 0 -118 67 -118 128c0 119 139 250 334 250c42 0 103 -6 142 -13c0 0 44 23 83 23zM94 -207
c34 0 92 84 122 179c-93 -38 -153 -111 -153 -148c0 -18 13 -31 31 -31z" />
    <glyph glyph-name="J.swash" horiz-adv-x="486" 
d="M623 603c-16 0 -38 5 -58 10c-1 0 -3 1 -4 1c-86 -162 -134 -427 -208 -632c128 -11 283 -55 283 -159c0 -68 -60 -113 -132 -113c-103 0 -135 55 -135 74c0 4 1 5 4 5c6 0 19 -5 46 -5c34 0 64 19 64 57c0 32 -23 89 -143 106c-57 -149 -132 -258 -250 -258
c-63 0 -106 47 -106 103c0 75 89 170 228 192c66 215 138 564 267 653c-25 4 -51 7 -80 7c-118 0 -209 -83 -209 -155c0 -30 15 -53 45 -53c37 0 32 27 45 27c5 0 8 -9 8 -23c0 -40 -25 -118 -105 -118c-84 0 -118 68 -118 129c0 119 139 250 334 250c42 0 103 -6 142 -13
c0 0 44 22 83 22c37 0 67 -23 67 -53c0 -24 -19 -54 -68 -54zM114 -190c30 0 56 51 83 128c-77 -17 -114 -63 -114 -96c0 -18 13 -32 31 -32z" />
    <glyph glyph-name="Jcircumflex" unicode="&#x134;" horiz-adv-x="486" 
d="M624 711c37 0 67 -23 67 -53c0 -24 -19 -54 -68 -54c-16 0 -37 4 -57 9c-69 -130 -113 -326 -166 -504c77 59 133 126 161 161c4 5 9 8 15 8c10 0 15 -7 15 -15c0 -4 -1 -7 -3 -11c-35 -47 -101 -136 -207 -205c-63 -197 -144 -358 -287 -358c-48 0 -104 27 -104 94
c0 83 65 169 239 238c63 215 134 530 255 615c-26 6 -54 9 -85 9c-118 0 -209 -83 -209 -155c0 -30 15 -53 45 -53c31 0 35 26 45 26c5 0 8 -9 8 -23c0 -40 -25 -117 -105 -117c-84 0 -118 67 -118 128c0 119 139 250 334 250c42 0 103 -6 142 -13c0 0 44 23 83 23zM94 -207
c34 0 92 84 122 179c-93 -38 -153 -111 -153 -148c0 -18 13 -31 31 -31zM661 839c24 -47 49 -44 49 -61c0 -16 -17 -16 -24 -16c-32 0 -62 13 -89 39c-71 -27 -84 -40 -123 -40c-15 0 -22 4 -22 11c0 22 99 31 134 122c4 9 17 30 40 30c34 0 16 -47 35 -85z" />
    <glyph glyph-name="K" unicode="K" horiz-adv-x="944" 
d="M1040 265c4 6 11 9 16 9c8 0 15 -7 15 -15c0 -4 -1 -7 -4 -12c-104 -161 -197 -283 -284 -283c-90 0 -112 63 -112 137c0 50 12 104 12 146c0 19 -1 35 -6 47c-7 -1 -15 -2 -21 -2c-36 0 -55 19 -55 38c0 18 18 36 56 36c19 0 35 -3 49 -9c87 57 184 182 184 246
c0 51 -27 63 -27 80c0 11 8 18 28 18c79 0 130 -36 130 -103c0 -100 -164 -223 -273 -277c61 -91 12 -265 86 -265c52 0 160 140 206 209zM713 604c-6 0 -13 1 -20 2c-23 -36 -65 -116 -122 -323c-86 -310 -275 -364 -396 -364c-122 0 -185 63 -185 126c0 49 36 99 90 99
c45 0 77 -36 77 -81c0 -50 -45 -68 -45 -68s19 -27 63 -27c85 0 171 36 261 333c46 153 104 267 153 332c-30 7 -64 12 -101 12c-117 0 -208 -83 -208 -155c0 -30 15 -53 45 -53c37 0 32 27 44 27c5 0 8 -10 8 -24c0 -40 -24 -117 -104 -117c-84 0 -119 68 -119 129
c0 119 140 250 335 250c42 0 102 -6 142 -14c0 0 44 23 83 23c37 0 67 -23 67 -53c0 -24 -19 -54 -68 -54z" />
    <glyph glyph-name="K.swash" horiz-adv-x="944" 
d="M1072 -53c15 0 27 -29 27 -66c0 -60 -31 -138 -133 -138c-256 0 -222 439 -290 550c-7 -1 -13 -2 -19 -2c-37 0 -57 20 -57 39c0 18 18 36 56 36c16 0 31 -5 44 -13c91 55 190 184 190 250c0 50 -27 62 -27 79c0 11 8 18 28 18c79 0 129 -35 129 -102
c0 -104 -170 -230 -280 -282c93 -123 128 -429 262 -429c62 0 54 60 70 60zM712 604c-6 0 -12 1 -19 1c-24 -36 -66 -115 -123 -322c-85 -310 -274 -364 -396 -364c-121 0 -184 63 -184 126c0 49 36 99 90 99c45 0 76 -36 76 -81c0 -50 -45 -68 -45 -68s20 -27 63 -27
c86 0 171 36 261 333c47 152 105 266 154 332c-31 7 -64 12 -101 12c-118 0 -209 -83 -209 -155c0 -30 15 -53 45 -53c37 0 32 26 45 26c5 0 8 -9 8 -23c0 -40 -25 -117 -105 -117c-84 0 -118 67 -118 128c0 119 139 250 334 250c42 0 103 -6 142 -13c0 0 44 23 83 23
c37 0 67 -23 67 -53c0 -24 -19 -54 -68 -54z" />
    <glyph glyph-name="Kcommaaccent" unicode="&#x136;" horiz-adv-x="944" 
d="M1040 265c4 6 11 9 16 9c8 0 15 -7 15 -15c0 -4 -1 -7 -4 -12c-104 -161 -197 -283 -284 -283c-90 0 -112 63 -112 137c0 50 12 104 12 146c0 19 -1 35 -6 47c-7 -1 -15 -2 -21 -2c-36 0 -55 19 -55 38c0 18 18 36 56 36c19 0 35 -3 49 -9c87 57 184 182 184 246
c0 51 -27 63 -27 80c0 11 8 18 28 18c79 0 130 -36 130 -103c0 -100 -164 -223 -273 -277c61 -91 12 -265 86 -265c52 0 160 140 206 209zM713 604c-6 0 -13 1 -20 2c-23 -36 -65 -116 -122 -323c-86 -310 -275 -364 -396 -364c-122 0 -185 63 -185 126c0 49 36 99 90 99
c45 0 77 -36 77 -81c0 -50 -45 -68 -45 -68s19 -27 63 -27c85 0 171 36 261 333c46 153 104 267 153 332c-30 7 -64 12 -101 12c-117 0 -208 -83 -208 -155c0 -30 15 -53 45 -53c37 0 32 27 44 27c5 0 8 -10 8 -24c0 -40 -24 -117 -104 -117c-84 0 -119 68 -119 129
c0 119 140 250 335 250c42 0 102 -6 142 -14c0 0 44 23 83 23c37 0 67 -23 67 -53c0 -24 -19 -54 -68 -54zM408 -260c-6 0 -12 3 -12 10c0 22 31 35 48 135c7 42 29 59 57 59c40 0 46 -34 46 -63c0 -63 -93 -141 -139 -141z" />
    <glyph glyph-name="L" unicode="L" horiz-adv-x="894" 
d="M984 268c4 5 11 9 16 9c9 0 15 -5 15 -14c0 -3 -2 -10 -4 -13c-41 -70 -211 -329 -389 -329c-91 0 -151 36 -209 71c-58 -46 -135 -75 -239 -75c-121 0 -184 54 -184 117s63 126 193 126c69 0 133 -20 185 -41c49 99 77 235 129 352c-126 26 -181 80 -181 125
c0 62 78 112 186 112c6 0 10 -3 10 -7c0 -9 -56 -20 -56 -71c0 -35 27 -70 72 -93c86 157 211 173 312 173c109 0 168 -46 168 -100s-76 -156 -332 -156c-14 0 -28 0 -42 1c-38 -121 -69 -274 -149 -386c44 -16 91 -27 152 -27c173 0 282 142 347 226zM810 651h-7
c-64 -3 -116 -36 -152 -143h9c58 0 209 10 209 99c0 24 -17 44 -59 44zM183 -15c64 0 109 26 144 69c-44 22 -87 42 -129 42c-59 0 -96 -21 -96 -57c0 -32 38 -54 81 -54z" />
    <glyph glyph-name="L.swash" horiz-adv-x="894" 
d="M1013 -50c14 0 41 -33 41 -73c0 -64 -42 -135 -185 -135c-219 0 -357 140 -442 225l-20 20c-58 -43 -133 -70 -233 -70c-121 0 -184 54 -184 117s63 126 193 126c69 0 133 -20 185 -41c49 99 77 235 129 352c-126 26 -181 80 -181 125c0 62 78 112 186 112
c7 0 10 -1 10 -2c0 -6 -56 -25 -56 -76c0 -35 27 -70 72 -93c86 157 211 173 312 173c109 0 168 -46 168 -100s-76 -156 -332 -156c-14 0 -28 0 -42 1c-40 -126 -72 -285 -158 -398l9 -6c89 -61 224 -154 387 -154c123 0 115 53 141 53zM810 651h-7
c-64 -3 -116 -36 -152 -143h9c80 0 153 14 187 50c14 14 22 32 22 49c0 24 -17 44 -59 44zM183 -15c64 0 109 26 144 69c-44 22 -87 42 -129 42c-59 0 -96 -21 -96 -57c0 -32 38 -54 81 -54z" />
    <glyph glyph-name="Lacute" unicode="&#x139;" horiz-adv-x="894" 
d="M984 268c4 5 11 9 16 9c9 0 15 -5 15 -14c0 -3 -2 -10 -4 -13c-41 -70 -211 -329 -389 -329c-91 0 -151 36 -209 71c-58 -46 -135 -75 -239 -75c-121 0 -184 54 -184 117s63 126 193 126c69 0 133 -20 185 -41c49 99 77 235 129 352c-126 26 -181 80 -181 125
c0 62 78 112 186 112c6 0 10 -3 10 -7c0 -9 -56 -20 -56 -71c0 -35 27 -70 72 -93c86 157 211 173 312 173c109 0 168 -46 168 -100s-76 -156 -332 -156c-14 0 -28 0 -42 1c-38 -121 -69 -274 -149 -386c44 -16 91 -27 152 -27c173 0 282 142 347 226zM810 651h-7
c-64 -3 -116 -36 -152 -143h9c58 0 209 10 209 99c0 24 -17 44 -59 44zM183 -15c64 0 109 26 144 69c-44 22 -87 42 -129 42c-59 0 -96 -21 -96 -57c0 -32 38 -54 81 -54zM904 921c20 0 61 -24 61 -63c0 -60 -90 -99 -179 -99c-28 0 -42 6 -42 16c0 31 138 27 138 127
c0 10 2 19 22 19z" />
    <glyph glyph-name="Lcaron" unicode="&#x13d;" horiz-adv-x="894" 
d="M1023 506c-6 0 -12 3 -12 10c0 22 31 35 48 135c7 42 29 59 57 59c40 0 46 -34 46 -63c0 -63 -93 -141 -139 -141zM984 268c4 5 11 9 16 9c9 0 15 -5 15 -14c0 -3 -2 -10 -4 -13c-41 -70 -211 -329 -389 -329c-91 0 -151 36 -209 71c-58 -46 -135 -75 -239 -75
c-121 0 -184 54 -184 117s63 126 193 126c69 0 133 -20 185 -41c49 99 77 235 129 352c-126 26 -181 80 -181 125c0 62 78 112 186 112c6 0 10 -3 10 -7c0 -9 -56 -20 -56 -71c0 -35 27 -70 72 -93c86 157 211 173 312 173c109 0 168 -46 168 -100s-76 -156 -332 -156
c-14 0 -28 0 -42 1c-38 -121 -69 -274 -149 -386c44 -16 91 -27 152 -27c173 0 282 142 347 226zM810 651h-7c-64 -3 -116 -36 -152 -143h9c58 0 209 10 209 99c0 24 -17 44 -59 44zM183 -15c64 0 109 26 144 69c-44 22 -87 42 -129 42c-59 0 -96 -21 -96 -57
c0 -32 38 -54 81 -54z" />
    <glyph glyph-name="Lcommaaccent" unicode="&#x13b;" horiz-adv-x="894" 
d="M984 268c4 5 11 9 16 9c9 0 15 -5 15 -14c0 -3 -2 -10 -4 -13c-41 -70 -211 -329 -389 -329c-91 0 -151 36 -209 71c-58 -46 -135 -75 -239 -75c-121 0 -184 54 -184 117s63 126 193 126c69 0 133 -20 185 -41c49 99 77 235 129 352c-126 26 -181 80 -181 125
c0 62 78 112 186 112c6 0 10 -3 10 -7c0 -9 -56 -20 -56 -71c0 -35 27 -70 72 -93c86 157 211 173 312 173c109 0 168 -46 168 -100s-76 -156 -332 -156c-14 0 -28 0 -42 1c-38 -121 -69 -274 -149 -386c44 -16 91 -27 152 -27c173 0 282 142 347 226zM810 651h-7
c-64 -3 -116 -36 -152 -143h9c58 0 209 10 209 99c0 24 -17 44 -59 44zM183 -15c64 0 109 26 144 69c-44 22 -87 42 -129 42c-59 0 -96 -21 -96 -57c0 -32 38 -54 81 -54zM387 -286c-6 0 -12 3 -12 10c0 22 31 35 48 135c7 42 29 59 57 59c40 0 46 -34 46 -63
c0 -63 -93 -141 -139 -141z" />
    <glyph glyph-name="Ldot" unicode="&#x13f;" horiz-adv-x="894" 
d="M724 274c-34 0 -59 24 -59 54c0 43 43 81 91 81c34 0 56 -24 56 -53c0 -43 -42 -82 -88 -82zM984 268c4 5 11 9 16 9c9 0 15 -5 15 -14c0 -3 -2 -10 -4 -13c-41 -70 -211 -329 -389 -329c-91 0 -151 36 -209 71c-58 -46 -135 -75 -239 -75c-121 0 -184 54 -184 117
s63 126 193 126c69 0 133 -20 185 -41c49 99 77 235 129 352c-126 26 -181 80 -181 125c0 62 78 112 186 112c6 0 10 -3 10 -7c0 -9 -56 -20 -56 -71c0 -35 27 -70 72 -93c86 157 211 173 312 173c109 0 168 -46 168 -100s-76 -156 -332 -156c-14 0 -28 0 -42 1
c-38 -121 -69 -274 -149 -386c44 -16 91 -27 152 -27c173 0 282 142 347 226zM810 651h-7c-64 -3 -116 -36 -152 -143h9c58 0 209 10 209 99c0 24 -17 44 -59 44zM183 -15c64 0 109 26 144 69c-44 22 -87 42 -129 42c-59 0 -96 -21 -96 -57c0 -32 38 -54 81 -54z" />
    <glyph glyph-name="Lslash" unicode="&#x141;" horiz-adv-x="894" 
d="M984 268c4 5 11 9 16 9c9 0 15 -5 15 -14c0 -3 -2 -10 -4 -13c-41 -70 -211 -329 -389 -329c-91 0 -151 36 -209 71c-58 -46 -135 -75 -239 -75c-121 0 -184 54 -184 117s63 126 193 126c69 0 133 -20 185 -41c14 28 26 60 38 94c-44 0 -105 4 -105 18c0 7 1 20 31 20
c21 0 55 -1 87 1c24 72 47 149 78 219c-126 26 -181 80 -181 125c0 62 78 112 186 112c6 0 10 -3 10 -7c0 -9 -56 -20 -56 -71c0 -35 27 -70 72 -93c86 157 211 173 312 173c109 0 168 -46 168 -100s-76 -156 -332 -156c-14 0 -28 0 -42 1c-17 -54 -33 -114 -52 -174
c100 33 132 82 146 82c21 0 28 -30 28 -49c0 -43 -81 -76 -194 -92c-20 -54 -44 -107 -77 -153c44 -16 91 -27 152 -27c173 0 282 142 347 226zM810 651h-7c-64 -3 -116 -36 -152 -143h9c58 0 209 10 209 99c0 24 -17 44 -59 44zM183 -15c64 0 109 26 144 69
c-44 22 -87 42 -129 42c-59 0 -96 -21 -96 -57c0 -32 38 -54 81 -54z" />
    <glyph glyph-name="M" unicode="M" horiz-adv-x="1187" 
d="M1270 265c4 6 10 9 15 9c8 0 16 -5 16 -14c0 -4 -1 -10 -3 -13c-46 -87 -160 -283 -270 -283c-98 0 -107 102 -107 184c0 74 12 160 21 206c-54 -90 -119 -178 -186 -251c-11 -87 -50 -140 -112 -140c-37 0 -61 20 -61 49c0 28 23 57 34 69c16 96 31 197 44 290v10
c-132 -234 -343 -462 -498 -462c-116 0 -179 69 -179 135c0 47 29 88 79 88c48 0 86 -38 86 -86c0 -26 -13 -43 -25 -52c11 -3 21 -4 32 -4c147 0 378 258 527 527c4 19 7 38 11 55c28 132 62 152 122 152c20 0 29 -17 29 -44c0 -32 -14 -82 -41 -124c0 0 -37 -205 -41 -349
c80 91 156 202 219 315c1 18 5 34 8 50c26 132 61 152 121 152c20 0 29 -19 29 -47c0 -35 -15 -87 -42 -130c-27 -126 -52 -280 -52 -379c0 -72 9 -116 52 -116c48 0 109 100 172 203z" />
    <glyph glyph-name="M.swash" horiz-adv-x="1187" 
d="M1377 -52c10 0 18 -14 18 -35c0 -57 -47 -169 -171 -169c-208 0 -303 206 -303 403c0 64 7 140 17 202c-52 -88 -116 -174 -182 -246c-12 -87 -50 -140 -112 -140c-37 0 -61 20 -61 49c0 28 22 57 33 69c17 95 30 194 43 287l2 13c-132 -234 -344 -462 -499 -462
c-116 0 -179 69 -179 135c0 47 29 88 79 88c48 0 86 -38 86 -86c0 -26 -13 -43 -25 -52c10 -3 20 -4 31 -4c148 0 378 258 529 527c3 19 6 38 10 55c27 132 62 152 122 152c20 0 30 -17 30 -44c0 -33 -14 -82 -42 -124c0 0 -36 -205 -41 -349c77 88 152 195 213 304
c6 22 10 42 14 61c27 132 62 152 122 152c20 0 29 -19 29 -45c0 -34 -13 -81 -41 -123c0 0 -42 -212 -42 -367c0 -143 41 -316 193 -316c83 0 111 65 127 65z" />
    <glyph glyph-name="N" unicode="N" horiz-adv-x="892" 
d="M1026 701c0 -162 -192 -429 -264 -561c3 -18 7 -30 7 -56c0 -74 -32 -122 -94 -122c-23 0 -45 20 -45 48c0 17 10 49 21 80c-26 121 -75 216 -106 308c-76 -240 -166 -479 -380 -479c-117 0 -180 69 -180 135c0 45 28 87 78 87c48 0 87 -37 87 -85c0 -26 -11 -42 -22 -51
c14 -4 28 -6 42 -6c148 0 236 223 338 482l12 30c-2 18 -3 36 -3 52c0 111 43 170 95 170c18 0 33 -18 33 -53c0 -23 -6 -56 -21 -92c0 0 5 -57 23 -106c27 -76 71 -175 91 -255c103 160 184 351 184 446c0 43 -23 68 -59 68c-20 0 -32 -10 -37 -10c-2 0 -3 3 -3 7
c0 18 25 78 90 78c89 0 113 -78 113 -115z" />
    <glyph glyph-name="N.swash" horiz-adv-x="866" 
d="M1091 734c117 0 180 -69 180 -135c0 -46 -28 -88 -78 -88c-46 0 -83 29 -83 44c0 10 18 15 18 40c0 24 -20 45 -51 45c-158 0 -258 -300 -313 -524c2 -20 3 -30 3 -39c0 -70 -31 -114 -93 -114c-24 0 -45 20 -45 48c0 17 10 48 21 79c-26 121 -75 217 -106 309
c-76 -240 -166 -480 -380 -480c-117 0 -180 69 -180 135c0 46 29 88 78 88s87 -38 87 -86c0 -25 -11 -42 -22 -51c14 -4 28 -6 41 -6c154 0 244 241 351 513c-2 18 -3 36 -3 52c0 111 43 170 95 170c18 0 33 -18 33 -53c0 -23 -6 -56 -22 -92c0 0 7 -57 25 -107
c25 -69 63 -158 84 -234c64 231 159 486 360 486z" />
    <glyph glyph-name="Nacute" unicode="&#x143;" horiz-adv-x="892" 
d="M1002 635c0 -143 -179 -379 -240 -495c3 -18 7 -30 7 -56c0 -74 -32 -122 -94 -122c-23 0 -45 20 -45 48c0 17 10 49 21 80c-26 121 -75 216 -106 308c-76 -240 -166 -479 -380 -479c-117 0 -180 69 -180 135c0 45 28 87 78 87c48 0 87 -37 87 -85c0 -26 -11 -42 -22 -51
c14 -4 28 -6 42 -6c148 0 236 223 338 482l12 30c-2 18 -3 36 -3 52c0 111 43 170 95 170c18 0 33 -18 33 -53c0 -23 -6 -56 -21 -92c0 0 5 -57 23 -106c27 -76 71 -175 91 -255c89 138 160 303 160 385c0 38 -21 59 -52 59c-17 0 -28 -8 -32 -8c-2 0 -3 2 -3 6
c0 15 22 67 78 67c89 0 113 -69 113 -101zM853 918c20 0 61 -24 61 -63c0 -60 -90 -99 -179 -99c-28 0 -42 6 -42 16c0 31 138 27 138 127c0 10 2 19 22 19z" />
    <glyph glyph-name="Ncaron" unicode="&#x147;" horiz-adv-x="892" 
d="M1002 635c0 -143 -179 -379 -240 -495c3 -18 7 -30 7 -56c0 -74 -32 -122 -94 -122c-23 0 -45 20 -45 48c0 17 10 49 21 80c-26 121 -75 216 -106 308c-76 -240 -166 -479 -380 -479c-117 0 -180 69 -180 135c0 45 28 87 78 87c48 0 87 -37 87 -85c0 -26 -11 -42 -22 -51
c14 -4 28 -6 42 -6c148 0 236 223 338 482l12 30c-2 18 -3 36 -3 52c0 111 43 170 95 170c18 0 33 -18 33 -53c0 -23 -6 -56 -21 -92c0 0 5 -57 23 -106c27 -76 71 -175 91 -255c89 138 160 303 160 385c0 38 -21 59 -52 59c-17 0 -28 -8 -32 -8c-2 0 -3 2 -3 6
c0 15 22 67 78 67c89 0 113 -69 113 -101zM754 840c-24 47 -49 44 -49 61c0 16 17 16 24 16c32 0 73 -15 100 -41c19 14 57 42 112 42c15 0 22 -4 22 -11c0 -22 -65 -38 -129 -122c-6 -8 -22 -30 -45 -30c-34 0 -16 47 -35 85z" />
    <glyph glyph-name="Ncommaaccent" unicode="&#x145;" horiz-adv-x="892" 
d="M1026 701c0 -162 -192 -429 -264 -561c3 -18 7 -30 7 -56c0 -74 -32 -122 -94 -122c-23 0 -45 20 -45 48c0 17 10 49 21 80c-26 121 -75 216 -106 308c-76 -240 -166 -479 -380 -479c-117 0 -180 69 -180 135c0 45 28 87 78 87c48 0 87 -37 87 -85c0 -26 -11 -42 -22 -51
c14 -4 28 -6 42 -6c148 0 236 223 338 482l12 30c-2 18 -3 36 -3 52c0 111 43 170 95 170c18 0 33 -18 33 -53c0 -23 -6 -56 -21 -92c0 0 5 -57 23 -106c27 -76 71 -175 91 -255c103 160 184 351 184 446c0 43 -23 68 -59 68c-20 0 -32 -10 -37 -10c-2 0 -3 3 -3 7
c0 18 25 78 90 78c89 0 113 -78 113 -115zM382 -260c-6 0 -12 3 -12 10c0 22 31 35 48 135c7 42 29 59 57 59c40 0 46 -34 46 -63c0 -63 -93 -141 -139 -141z" />
    <glyph glyph-name="Ntilde" unicode="&#xd1;" horiz-adv-x="892" 
d="M1002 635c0 -143 -179 -379 -240 -495c3 -18 7 -30 7 -56c0 -74 -32 -122 -94 -122c-23 0 -45 20 -45 48c0 17 10 49 21 80c-26 121 -75 216 -106 308c-76 -240 -166 -479 -380 -479c-117 0 -180 69 -180 135c0 45 28 87 78 87c48 0 87 -37 87 -85c0 -26 -11 -42 -22 -51
c14 -4 28 -6 42 -6c148 0 236 223 338 482l12 30c-2 18 -3 36 -3 52c0 111 43 170 95 170c18 0 33 -18 33 -53c0 -23 -6 -56 -21 -92c0 0 5 -57 23 -106c27 -76 71 -175 91 -255c89 138 160 303 160 385c0 38 -21 59 -52 59c-17 0 -28 -8 -32 -8c-2 0 -3 2 -3 6
c0 15 22 67 78 67c89 0 113 -69 113 -101zM695 767c-7 0 -11 9 -11 27c0 41 31 93 93 93c49 0 83 -44 120 -44c46 0 53 31 61 31c5 0 9 -1 9 -17c0 -42 -32 -100 -97 -100c-58 0 -69 43 -114 43c-39 0 -50 -33 -61 -33z" />
    <glyph glyph-name="O" unicode="O" horiz-adv-x="752" 
d="M564 598c141 0 194 -111 194 -218c0 -203 -189 -454 -459 -454c-156 0 -261 83 -261 248c0 262 265 537 562 537c107 0 169 -35 169 -88c0 -35 -28 -57 -59 -57c-11 0 -14 3 -14 8s2 7 2 16c0 35 -33 69 -114 69c-209 0 -394 -229 -394 -442c0 -119 58 -188 170 -188
c182 0 288 180 288 347c0 107 -43 174 -115 174c-86 0 -181 -97 -181 -225c0 -60 21 -96 51 -96c15 0 23 9 29 9c3 0 5 -3 5 -7c0 -15 -31 -48 -77 -48c-47 0 -98 33 -98 119c0 141 136 296 302 296z" />
    <glyph glyph-name="O.swash" horiz-adv-x="753" 
d="M218 631c0 -24 11 -47 32 -67c103 88 230 147 357 147c112 0 157 -46 157 -96c0 -25 -12 -59 -47 -89c28 -39 41 -91 41 -146c0 -206 -182 -453 -460 -453c-158 0 -260 80 -260 235c0 115 55 234 142 333c-70 29 -102 69 -102 105c0 57 80 109 193 109c2 0 3 0 3 -2
c0 -6 -56 -25 -56 -76zM262 300c0 54 20 112 55 161c-16 2 -32 4 -46 7c-50 -80 -81 -174 -81 -259c0 -115 57 -186 166 -186c180 0 302 194 302 371c0 38 -5 68 -16 91c-50 -18 -119 -30 -214 -30c-16 0 -31 0 -46 1c-19 -34 -30 -76 -30 -126c0 -69 21 -101 51 -101
c15 0 23 9 29 9c3 0 5 -3 5 -7c0 -15 -29 -48 -76 -48c-44 0 -99 28 -99 117zM565 598c18 0 35 -2 50 -6c2 6 3 12 3 18c0 26 -17 49 -73 49c-86 0 -168 -54 -232 -132c16 -5 32 -10 51 -13c53 50 124 84 201 84zM538 550c-40 0 -80 -14 -113 -41h2c53 0 111 10 149 36
c-12 3 -24 5 -38 5z" />
    <glyph glyph-name="OE" unicode="&#x152;" horiz-adv-x="1179" 
d="M600 712c111 0 196 -48 274 -92c69 53 172 92 277 92c132 0 168 -46 168 -100s-81 -122 -237 -122c-67 0 -120 16 -168 38c-3 -13 -4 -26 -4 -40c0 -53 17 -83 29 -98c25 4 49 7 72 7c43 0 65 -21 65 -43c0 -24 -28 -50 -86 -50c-29 0 -63 5 -95 19
c-64 -29 -131 -80 -131 -164c0 -79 61 -123 135 -123c148 0 250 82 364 236c4 6 10 8 15 8c8 0 15 -5 15 -15c0 -4 -1 -8 -4 -13c-59 -86 -215 -324 -450 -324c-119 0 -210 44 -238 121c-79 -72 -182 -122 -302 -122c-156 0 -261 83 -261 248c0 262 265 537 562 537z
M758 381c0 -19 -2 -38 -5 -57c26 15 54 28 83 39c-27 27 -47 48 -47 126c0 28 14 58 38 87c-71 42 -141 84 -243 84c-209 0 -394 -229 -394 -442c0 -119 58 -188 171 -188c181 0 287 177 287 355c0 95 -45 166 -110 166c-94 0 -186 -97 -186 -226c0 -59 21 -95 51 -95
c15 0 23 9 29 9c3 0 5 -3 5 -7c0 -15 -31 -48 -77 -48c-47 0 -98 33 -98 119c0 141 136 296 302 296c141 0 194 -111 194 -218zM1066 550c80 0 107 26 107 61c0 26 -20 49 -68 49c-72 0 -131 -30 -164 -76c41 -20 82 -34 125 -34z" />
    <glyph glyph-name="OE.alt" horiz-adv-x="962" 
d="M1070 278c8 0 15 -6 15 -16c0 -4 -1 -6 -3 -10c-111 -156 -213 -261 -332 -261c-63 0 -107 29 -122 83c-81 -86 -195 -148 -329 -148c-156 0 -261 83 -261 248c0 262 265 537 562 537c107 0 169 -35 169 -88c0 -35 -28 -57 -59 -57c-11 0 -14 3 -14 8s2 7 2 16
c0 35 -33 69 -114 69c-209 0 -394 -229 -394 -442c0 -119 58 -188 170 -188c98 0 175 53 224 128c-191 20 -289 99 -289 210c0 131 136 231 269 231c141 0 194 -111 194 -218c0 -9 -1 -19 -2 -28c29 16 61 26 94 26c65 0 103 -37 103 -83c0 -62 -68 -143 -227 -143h-4
c4 -42 21 -76 78 -76c102 0 190 111 255 194c5 6 10 8 15 8zM383 382c0 -109 89 -168 224 -184c27 55 41 117 41 177c0 109 -46 175 -122 175c-83 0 -143 -79 -143 -168zM818 312c-37 0 -90 -42 -96 -121h6c47 0 124 13 124 80c0 30 -15 41 -34 41z" />
    <glyph glyph-name="Oacute" unicode="&#xd3;" horiz-adv-x="752" 
d="M564 598c141 0 194 -111 194 -218c0 -203 -189 -454 -459 -454c-156 0 -261 83 -261 248c0 262 265 537 562 537c107 0 169 -35 169 -88c0 -35 -28 -57 -59 -57c-11 0 -14 3 -14 8s2 7 2 16c0 35 -33 69 -114 69c-209 0 -394 -229 -394 -442c0 -119 58 -188 170 -188
c182 0 288 180 288 347c0 107 -43 174 -115 174c-86 0 -181 -97 -181 -225c0 -60 21 -96 51 -96c15 0 23 9 29 9c3 0 5 -3 5 -7c0 -15 -31 -48 -77 -48c-47 0 -98 33 -98 119c0 141 136 296 302 296zM679 919c20 0 61 -24 61 -63c0 -60 -90 -99 -179 -99c-28 0 -42 6 -42 16
c0 31 138 27 138 127c0 10 2 19 22 19z" />
    <glyph glyph-name="Obreve" unicode="&#x14e;" horiz-adv-x="752" 
d="M564 598c141 0 194 -111 194 -218c0 -203 -189 -454 -459 -454c-156 0 -261 83 -261 248c0 262 265 537 562 537c107 0 169 -35 169 -88c0 -35 -28 -57 -59 -57c-11 0 -14 3 -14 8s2 7 2 16c0 35 -33 69 -114 69c-209 0 -394 -229 -394 -442c0 -119 58 -188 170 -188
c182 0 288 180 288 347c0 107 -43 174 -115 174c-86 0 -181 -97 -181 -225c0 -60 21 -96 51 -96c15 0 23 9 29 9c3 0 5 -3 5 -7c0 -15 -31 -48 -77 -48c-47 0 -98 33 -98 119c0 141 136 296 302 296zM597 890c0 -7 -2 -11 -2 -21c0 -27 18 -46 55 -46c47 0 68 31 81 55
c8 14 13 22 23 22c9 0 14 -7 14 -20c0 -44 -51 -129 -149 -129c-66 0 -95 39 -95 78c0 45 37 72 60 72c7 0 13 -2 13 -11z" />
    <glyph glyph-name="Ocircumflex" unicode="&#xd4;" horiz-adv-x="752" 
d="M564 598c141 0 194 -111 194 -218c0 -203 -189 -454 -459 -454c-156 0 -261 83 -261 248c0 262 265 537 562 537c107 0 169 -35 169 -88c0 -35 -28 -57 -59 -57c-11 0 -14 3 -14 8s2 7 2 16c0 35 -33 69 -114 69c-209 0 -394 -229 -394 -442c0 -119 58 -188 170 -188
c182 0 288 180 288 347c0 107 -43 174 -115 174c-86 0 -181 -97 -181 -225c0 -60 21 -96 51 -96c15 0 23 9 29 9c3 0 5 -3 5 -7c0 -15 -31 -48 -77 -48c-47 0 -98 33 -98 119c0 141 136 296 302 296zM704 834c24 -47 49 -44 49 -61c0 -16 -17 -16 -24 -16
c-32 0 -62 13 -89 39c-71 -27 -84 -40 -123 -40c-15 0 -22 4 -22 11c0 22 99 31 134 122c4 9 17 30 40 30c34 0 16 -47 35 -85z" />
    <glyph glyph-name="Odieresis" unicode="&#xd6;" horiz-adv-x="752" 
d="M564 598c141 0 194 -111 194 -218c0 -203 -189 -454 -459 -454c-156 0 -261 83 -261 248c0 262 265 537 562 537c107 0 169 -35 169 -88c0 -35 -28 -57 -59 -57c-11 0 -14 3 -14 8s2 7 2 16c0 35 -33 69 -114 69c-209 0 -394 -229 -394 -442c0 -119 58 -188 170 -188
c182 0 288 180 288 347c0 107 -43 174 -115 174c-86 0 -181 -97 -181 -225c0 -60 21 -96 51 -96c15 0 23 9 29 9c3 0 5 -3 5 -7c0 -15 -31 -48 -77 -48c-47 0 -98 33 -98 119c0 141 136 296 302 296zM505 746c-30 0 -53 24 -53 52c0 40 42 72 80 72c31 0 50 -21 50 -47
c0 -40 -36 -73 -77 -77zM674 746c-29 0 -52 21 -52 50c0 41 40 74 80 74c30 0 48 -21 48 -47c0 -40 -37 -73 -76 -77z" />
    <glyph glyph-name="Ograve" unicode="&#xd2;" horiz-adv-x="752" 
d="M564 598c141 0 194 -111 194 -218c0 -203 -189 -454 -459 -454c-156 0 -261 83 -261 248c0 262 265 537 562 537c107 0 169 -35 169 -88c0 -35 -28 -57 -59 -57c-11 0 -14 3 -14 8s2 7 2 16c0 35 -33 69 -114 69c-209 0 -394 -229 -394 -442c0 -119 58 -188 170 -188
c182 0 288 180 288 347c0 107 -43 174 -115 174c-86 0 -181 -97 -181 -225c0 -60 21 -96 51 -96c15 0 23 9 29 9c3 0 5 -3 5 -7c0 -15 -31 -48 -77 -48c-47 0 -98 33 -98 119c0 141 136 296 302 296zM562 919c8 0 10 -4 10 -10c0 -4 -1 -10 -1 -16c0 -78 152 -89 152 -120
c0 -10 -14 -16 -43 -16c-89 0 -179 39 -179 99c0 39 42 63 61 63z" />
    <glyph glyph-name="Ohungarumlaut" unicode="&#x150;" horiz-adv-x="752" 
d="M564 598c141 0 194 -111 194 -218c0 -203 -189 -454 -459 -454c-156 0 -261 83 -261 248c0 262 265 537 562 537c107 0 169 -35 169 -88c0 -35 -28 -57 -59 -57c-11 0 -14 3 -14 8s2 7 2 16c0 35 -33 69 -114 69c-209 0 -394 -229 -394 -442c0 -119 58 -188 170 -188
c182 0 288 180 288 347c0 107 -43 174 -115 174c-86 0 -181 -97 -181 -225c0 -60 21 -96 51 -96c15 0 23 9 29 9c3 0 5 -3 5 -7c0 -15 -31 -48 -77 -48c-47 0 -98 33 -98 119c0 141 136 296 302 296zM648 943c17 0 61 -10 61 -57c0 -52 -85 -125 -133 -125
c-19 0 -26 7 -26 18c0 26 82 48 82 142c0 18 7 22 16 22zM776 943c17 0 61 -10 61 -57c0 -52 -86 -125 -133 -125c-17 0 -26 7 -26 18c0 26 82 48 82 142c0 18 7 22 16 22z" />
    <glyph glyph-name="Omacron" unicode="&#x14c;" horiz-adv-x="752" 
d="M564 598c141 0 194 -111 194 -218c0 -203 -189 -454 -459 -454c-156 0 -261 83 -261 248c0 262 265 537 562 537c107 0 169 -35 169 -88c0 -35 -28 -57 -59 -57c-11 0 -14 3 -14 8s2 7 2 16c0 35 -33 69 -114 69c-209 0 -394 -229 -394 -442c0 -119 58 -188 170 -188
c182 0 288 180 288 347c0 107 -43 174 -115 174c-86 0 -181 -97 -181 -225c0 -60 21 -96 51 -96c15 0 23 9 29 9c3 0 5 -3 5 -7c0 -15 -31 -48 -77 -48c-47 0 -98 33 -98 119c0 141 136 296 302 296zM633 839c49 0 75 0 111 9c35 10 45 16 55 16c5 0 7 -7 7 -14
c0 -34 -28 -83 -80 -83c-87 0 -164 9 -210 9c-17 0 -34 8 -34 26c0 16 36 44 61 44c24 0 41 -7 90 -7z" />
    <glyph glyph-name="Oslash" unicode="&#xd8;" horiz-adv-x="752" 
d="M267 -143c-36 -40 -70 -60 -107 -60c-29 0 -98 8 -98 31c0 16 25 38 97 127c-75 37 -121 110 -121 219c0 262 265 537 562 537c15 0 29 -1 42 -2c11 18 18 31 22 35c11 19 34 32 56 32c7 0 10 -3 10 -7c0 -7 -10 -33 -28 -73c43 -15 67 -41 67 -73c0 -35 -28 -57 -59 -57
c-11 0 -14 3 -14 8s2 7 2 16c0 16 -8 33 -24 45l-25 -54c78 -35 109 -119 109 -201c0 -200 -183 -446 -447 -453c-20 -35 -36 -60 -44 -70zM613 509c-75 -154 -171 -344 -245 -480c177 6 280 182 280 347c0 57 -12 103 -35 133zM564 598c6 0 11 0 17 -1l32 60
c-9 1 -19 2 -29 2c-209 0 -394 -229 -394 -442c0 -68 19 -119 56 -151c25 33 53 72 85 116l3 4c-38 11 -72 46 -72 116c0 141 136 296 302 296zM373 244c63 96 128 209 180 304c-6 1 -13 2 -20 2c-86 0 -181 -97 -181 -225c0 -37 8 -65 21 -81z" />
    <glyph glyph-name="Otilde" unicode="&#xd5;" horiz-adv-x="752" 
d="M564 598c141 0 194 -111 194 -218c0 -203 -189 -454 -459 -454c-156 0 -261 83 -261 248c0 262 265 537 562 537c107 0 169 -35 169 -88c0 -35 -28 -57 -59 -57c-11 0 -14 3 -14 8s2 7 2 16c0 35 -33 69 -114 69c-209 0 -394 -229 -394 -442c0 -119 58 -188 170 -188
c182 0 288 180 288 347c0 107 -43 174 -115 174c-86 0 -181 -97 -181 -225c0 -60 21 -96 51 -96c15 0 23 9 29 9c3 0 5 -3 5 -7c0 -15 -31 -48 -77 -48c-47 0 -98 33 -98 119c0 141 136 296 302 296zM472 765c-6 0 -10 8 -10 26c0 40 30 89 89 89c47 0 80 -42 115 -42
c44 0 51 30 58 30c5 0 9 -1 9 -16c0 -41 -31 -97 -93 -97c-55 0 -66 41 -109 41c-38 0 -48 -31 -59 -31z" />
    <glyph glyph-name="P" unicode="P" horiz-adv-x="906" 
d="M584 711c191 0 374 -96 374 -248c0 -212 -222 -257 -365 -257c-17 0 -33 1 -47 2c-93 -244 -261 -289 -372 -289c-121 0 -184 63 -184 126c0 49 36 99 90 99c45 0 76 -36 76 -81c0 -50 -45 -68 -45 -68s20 -27 63 -27c86 0 171 36 261 333c76 248 212 302 257 302
c9 0 13 -5 13 -9c0 -23 -49 20 -135 -311l-6 -23c7 0 8 -1 21 -1c133 0 243 74 243 212c0 94 -77 199 -262 199s-315 -103 -315 -229c0 -67 43 -90 75 -90c45 0 60 31 72 31c4 0 6 -5 6 -14c0 -35 -32 -121 -118 -121c-81 0 -148 68 -148 158c0 175 203 306 446 306z" />
    <glyph glyph-name="Q" unicode="Q" horiz-adv-x="759" 
d="M273 239c0 176 112 359 291 359c131 0 194 -97 194 -219c0 -158 -106 -342 -282 -417c76 -59 172 -84 260 -84c125 0 135 51 139 82c1 8 2 13 15 13c29 0 116 -24 116 -97c0 -59 -56 -133 -223 -133c-169 0 -312 76 -403 191c-26 -5 -52 -7 -79 -7
c-164 0 -263 84 -263 243c0 268 281 541 567 541c118 0 162 -47 162 -89c0 -34 -29 -56 -59 -56c-12 0 -14 3 -14 8c0 4 2 5 2 14c0 31 -23 71 -112 71c-213 0 -394 -231 -394 -444c0 -104 42 -177 132 -190c-32 65 -49 138 -49 214zM337 274c0 -104 28 -184 73 -245
c146 35 238 205 238 358c0 104 -43 163 -107 163c-86 0 -204 -106 -204 -276z" />
    <glyph glyph-name="Q.alt" horiz-adv-x="749" 
d="M486 254c5 0 8 -3 8 -10c0 -35 -72 -215 -239 -215c-115 0 -205 85 -205 214c0 190 194 468 472 468c152 0 259 -83 259 -264c0 -214 -150 -410 -327 -520c85 -24 170 -49 253 -49c113 0 125 45 132 82c1 8 3 12 17 12c36 0 115 -28 115 -96c0 -62 -65 -133 -214 -133
c-166 0 -278 87 -380 142c-71 -33 -143 -51 -209 -51c-91 0 -130 34 -130 67c0 44 68 75 162 75c52 0 106 -9 159 -23c130 85 283 265 283 493c0 152 -68 200 -141 200c-124 0 -300 -140 -300 -338c0 -111 55 -148 119 -148c101 0 141 94 166 94zM222 -102c20 0 46 7 75 21
c-19 5 -38 8 -57 8c-29 0 -49 -7 -49 -17c0 -8 16 -12 31 -12z" />
    <glyph glyph-name="Q.swash" horiz-adv-x="760" 
d="M784 -256c-169 0 -313 77 -405 191c-26 -4 -53 -7 -81 -7c-158 0 -260 80 -260 235c0 115 55 234 142 333c-70 29 -102 69 -102 105c0 57 80 109 193 109c2 0 3 0 3 -2c0 -6 -56 -25 -56 -76c0 -24 11 -47 32 -67c103 88 230 147 357 147c112 0 157 -46 157 -96
c0 -25 -12 -59 -48 -89c28 -39 42 -91 42 -146c0 -158 -107 -340 -283 -416c76 -59 173 -86 263 -86c125 0 133 53 137 82c1 10 4 13 15 13c30 0 117 -24 117 -97c0 -60 -58 -133 -223 -133zM337 263c0 -97 28 -174 73 -233c149 34 248 205 248 360c0 40 -7 71 -18 95
c-50 -18 -118 -29 -212 -29c-14 0 -28 0 -41 1c-30 -47 -50 -112 -50 -194zM273 233c0 82 22 163 61 227c-23 2 -44 6 -63 9c-50 -80 -81 -174 -81 -259c0 -103 45 -170 131 -184c-31 64 -48 134 -48 207zM545 660c-86 0 -168 -54 -232 -132c18 -6 39 -12 61 -15
c49 53 114 86 191 86c18 0 35 -2 50 -6c2 6 3 12 3 18c0 26 -17 49 -73 49zM539 551c-35 0 -72 -14 -105 -41c51 1 105 11 142 35c-12 4 -25 6 -37 6z" />
    <glyph glyph-name="R" unicode="R" horiz-adv-x="946" 
d="M706 594c0 -22 -44 20 -135 -311c-86 -310 -275 -364 -396 -364c-122 0 -185 63 -185 126c0 49 36 99 90 99c45 0 77 -36 77 -81c0 -50 -45 -68 -45 -68s19 -27 63 -27c85 0 171 36 261 333c75 249 211 302 256 302c9 0 14 -4 14 -9zM1030 265c4 5 10 7 15 7
c8 0 15 -5 15 -14c0 -3 -1 -7 -3 -11c-104 -174 -193 -279 -285 -279c-85 0 -110 59 -110 132c0 50 20 106 20 148c0 18 -1 34 -6 46c-7 -1 -15 -2 -21 -2c-36 0 -54 19 -54 38c0 18 17 36 55 36c22 0 39 -4 54 -11c57 35 86 94 86 154c0 63 -50 162 -230 162
c-184 0 -315 -104 -315 -230c0 -67 43 -90 76 -90c45 0 59 32 72 32c4 0 6 -5 6 -14c0 -34 -32 -121 -119 -121c-81 0 -147 67 -147 157c0 176 202 306 445 306c194 0 342 -76 342 -207c0 -96 -91 -157 -175 -189c62 -108 3 -248 84 -248c48 0 131 105 195 198z" />
    <glyph glyph-name="R.swash" horiz-adv-x="946" 
d="M704 593c0 -22 -44 20 -135 -310c-85 -311 -274 -365 -396 -365c-121 0 -184 63 -184 126c0 50 36 99 90 99c45 0 76 -36 76 -81c0 -49 -45 -67 -45 -67s20 -27 63 -27c86 0 171 36 261 333c76 248 212 301 257 301c9 0 13 -4 13 -9zM1071 -53c15 0 27 -29 27 -66
c0 -60 -31 -138 -133 -138c-256 0 -222 438 -290 550c-7 -1 -15 -2 -21 -2c-36 0 -55 19 -55 38c0 18 18 36 56 36c17 0 33 -5 47 -14c62 34 92 95 92 157c0 63 -49 162 -229 162c-185 0 -315 -104 -315 -230c0 -66 43 -90 75 -90c45 0 60 32 72 32c4 0 6 -5 6 -14
c0 -35 -32 -121 -118 -121c-81 0 -148 67 -148 157c0 176 203 306 446 306c193 0 342 -76 342 -207c0 -99 -98 -161 -183 -192c91 -125 126 -424 259 -424c62 0 54 60 70 60z" />
    <glyph glyph-name="Racute" unicode="&#x154;" horiz-adv-x="946" 
d="M706 594c0 -22 -44 20 -135 -311c-86 -310 -275 -364 -396 -364c-122 0 -185 63 -185 126c0 49 36 99 90 99c45 0 77 -36 77 -81c0 -50 -45 -68 -45 -68s19 -27 63 -27c85 0 171 36 261 333c75 249 211 302 256 302c9 0 14 -4 14 -9zM1030 265c4 5 10 7 15 7
c8 0 15 -5 15 -14c0 -3 -1 -7 -3 -11c-104 -174 -193 -279 -285 -279c-85 0 -110 59 -110 132c0 50 20 106 20 148c0 18 -1 34 -6 46c-7 -1 -15 -2 -21 -2c-36 0 -54 19 -54 38c0 18 17 36 55 36c22 0 39 -4 54 -11c57 35 86 94 86 154c0 63 -50 162 -230 162
c-184 0 -315 -104 -315 -230c0 -67 43 -90 76 -90c45 0 59 32 72 32c4 0 6 -5 6 -14c0 -34 -32 -121 -119 -121c-81 0 -147 67 -147 157c0 176 202 306 445 306c194 0 342 -76 342 -207c0 -96 -91 -157 -175 -189c62 -108 3 -248 84 -248c48 0 131 105 195 198zM853 920
c20 0 61 -24 61 -63c0 -60 -90 -99 -179 -99c-28 0 -42 6 -42 16c0 31 138 27 138 127c0 10 2 19 22 19z" />
    <glyph glyph-name="Rcaron" unicode="&#x158;" horiz-adv-x="946" 
d="M706 594c0 -22 -44 20 -135 -311c-86 -310 -275 -364 -396 -364c-122 0 -185 63 -185 126c0 49 36 99 90 99c45 0 77 -36 77 -81c0 -50 -45 -68 -45 -68s19 -27 63 -27c85 0 171 36 261 333c75 249 211 302 256 302c9 0 14 -4 14 -9zM1030 265c4 5 10 7 15 7
c8 0 15 -5 15 -14c0 -3 -1 -7 -3 -11c-104 -174 -193 -279 -285 -279c-85 0 -110 59 -110 132c0 50 20 106 20 148c0 18 -1 34 -6 46c-7 -1 -15 -2 -21 -2c-36 0 -54 19 -54 38c0 18 17 36 55 36c22 0 39 -4 54 -11c57 35 86 94 86 154c0 63 -50 162 -230 162
c-184 0 -315 -104 -315 -230c0 -67 43 -90 76 -90c45 0 59 32 72 32c4 0 6 -5 6 -14c0 -34 -32 -121 -119 -121c-81 0 -147 67 -147 157c0 176 202 306 445 306c194 0 342 -76 342 -207c0 -96 -91 -157 -175 -189c62 -108 3 -248 84 -248c48 0 131 105 195 198zM684 836
c-24 47 -49 44 -49 61c0 16 17 16 24 16c32 0 73 -15 100 -41c19 14 57 42 112 42c15 0 22 -4 22 -11c0 -22 -65 -38 -129 -122c-6 -8 -22 -30 -45 -30c-34 0 -16 47 -35 85z" />
    <glyph glyph-name="Rcommaaccent" unicode="&#x156;" horiz-adv-x="946" 
d="M706 594c0 -22 -44 20 -135 -311c-86 -310 -275 -364 -396 -364c-122 0 -185 63 -185 126c0 49 36 99 90 99c45 0 77 -36 77 -81c0 -50 -45 -68 -45 -68s19 -27 63 -27c85 0 171 36 261 333c75 249 211 302 256 302c9 0 14 -4 14 -9zM1030 265c4 5 10 7 15 7
c8 0 15 -5 15 -14c0 -3 -1 -7 -3 -11c-104 -174 -193 -279 -285 -279c-85 0 -110 59 -110 132c0 50 20 106 20 148c0 18 -1 34 -6 46c-7 -1 -15 -2 -21 -2c-36 0 -54 19 -54 38c0 18 17 36 55 36c22 0 39 -4 54 -11c57 35 86 94 86 154c0 63 -50 162 -230 162
c-184 0 -315 -104 -315 -230c0 -67 43 -90 76 -90c45 0 59 32 72 32c4 0 6 -5 6 -14c0 -34 -32 -121 -119 -121c-81 0 -147 67 -147 157c0 176 202 306 445 306c194 0 342 -76 342 -207c0 -96 -91 -157 -175 -189c62 -108 3 -248 84 -248c48 0 131 105 195 198zM409 -260
c-6 0 -12 3 -12 10c0 22 31 35 48 135c7 42 29 59 57 59c40 0 46 -34 46 -63c0 -63 -93 -141 -139 -141z" />
    <glyph glyph-name="S" unicode="S" horiz-adv-x="582" 
d="M710 596c0 -48 -46 -123 -237 -138c22 -88 61 -152 61 -241c0 -212 -147 -298 -341 -298c-137 0 -205 65 -205 129c0 48 34 96 87 96c46 0 78 -37 78 -83c0 -49 -42 -66 -42 -66s38 -27 81 -27c109 0 198 88 198 254c0 77 -41 169 -55 235c-212 13 -300 85 -300 142
c0 61 75 110 182 110c5 0 10 -2 10 -6c0 -10 -53 -26 -53 -70c0 -53 61 -106 156 -120c2 131 77 198 204 198c119 0 176 -47 176 -115zM462 513c77 9 125 34 125 82c0 38 -27 64 -60 64c-39 0 -69 -31 -69 -92c0 -15 2 -34 4 -54z" />
    <glyph glyph-name="S.alt1" horiz-adv-x="582" 
d="M704 297c-46 -48 -106 -67 -170 -78v-2c0 -212 -146 -298 -340 -298c-138 0 -206 68 -206 134c0 164 234 180 401 190c-6 70 -40 150 -54 214c-212 12 -300 84 -300 142c0 61 76 110 182 110c7 0 10 -1 10 -2c0 -6 -53 -25 -53 -74c0 -54 60 -106 155 -120
c3 131 79 198 205 198c120 0 176 -47 176 -115c0 -49 -47 -124 -238 -139c18 -73 50 -131 59 -201c56 9 111 26 155 68c4 3 8 4 11 4c11 0 15 -7 15 -15c0 -5 -3 -11 -8 -16zM215 -21c86 0 168 71 174 224c-119 -9 -280 -27 -280 -134c0 -56 48 -90 106 -90zM458 567
c0 -19 1 -37 3 -54c78 9 126 34 126 82c0 38 -26 64 -60 64c-39 0 -69 -31 -69 -92z" />
    <glyph glyph-name="S.alt2" horiz-adv-x="582" 
d="M618 195c14 -1 22 -9 22 -19c0 -9 -8 -19 -23 -19c-26 1 -56 2 -87 5c-24 -172 -160 -243 -336 -243c-138 0 -206 67 -206 132c0 128 172 157 357 157c15 0 30 0 45 -1v15c0 74 -39 165 -55 235c-212 12 -300 84 -300 142c0 61 75 110 182 110c7 0 10 -1 10 -2
c0 -6 -53 -25 -53 -74c0 -54 60 -106 155 -120c3 131 79 198 205 198c119 0 176 -47 176 -115c0 -49 -47 -124 -238 -139c22 -86 62 -151 62 -240c0 -6 -1 -12 -1 -17c31 -2 59 -4 85 -5zM214 -21c81 0 157 61 173 191h-19c-136 0 -253 -32 -253 -115c0 -45 42 -76 99 -76z
M458 567c0 -19 1 -37 3 -54c78 9 126 34 126 82c0 38 -26 64 -60 64c-39 0 -69 -31 -69 -92z" />
    <glyph glyph-name="S.swash" horiz-adv-x="582" 
d="M966 -257c-188 0 -356 151 -506 266c-61 -62 -156 -90 -266 -90c-137 0 -207 68 -207 133c0 86 71 143 197 143c75 0 138 -22 197 -54c5 24 8 50 8 80c0 74 -40 166 -55 236c-211 12 -299 84 -299 142c0 61 76 110 182 110c7 0 10 -1 10 -2c0 -6 -53 -25 -53 -74
c0 -54 60 -106 155 -120c3 130 78 198 205 198c120 0 175 -48 175 -115c0 -49 -46 -124 -238 -139c22 -86 62 -151 62 -240c0 -61 -12 -111 -33 -152c117 -79 246 -167 463 -167c123 0 113 53 139 53c14 0 44 -34 44 -77c0 -63 -41 -131 -180 -131zM214 -22
c59 0 115 33 147 101c-57 36 -111 61 -163 61c-49 0 -89 -37 -89 -78c0 -49 49 -84 105 -84zM457 566c0 -19 1 -36 3 -53c78 9 126 33 126 82c0 38 -25 64 -59 64c-40 0 -70 -31 -70 -93z" />
    <glyph glyph-name="Sacute" unicode="&#x15a;" horiz-adv-x="582" 
d="M710 596c0 -48 -46 -123 -237 -138c22 -88 61 -152 61 -241c0 -212 -147 -298 -341 -298c-137 0 -205 65 -205 129c0 48 34 96 87 96c46 0 78 -37 78 -83c0 -49 -42 -66 -42 -66s38 -27 81 -27c109 0 198 88 198 254c0 77 -41 169 -55 235c-212 13 -300 85 -300 142
c0 61 75 110 182 110c5 0 10 -2 10 -6c0 -10 -53 -26 -53 -70c0 -53 61 -106 156 -120c2 131 77 198 204 198c119 0 176 -47 176 -115zM462 513c77 9 125 34 125 82c0 38 -27 64 -60 64c-39 0 -69 -31 -69 -92c0 -15 2 -34 4 -54zM702 922c20 0 61 -24 61 -63
c0 -60 -90 -99 -179 -99c-28 0 -42 6 -42 16c0 31 138 27 138 127c0 10 2 19 22 19z" />
    <glyph glyph-name="Scaron" unicode="&#x160;" horiz-adv-x="582" 
d="M710 596c0 -48 -46 -123 -237 -138c22 -88 61 -152 61 -241c0 -212 -147 -298 -341 -298c-137 0 -205 65 -205 129c0 48 34 96 87 96c46 0 78 -37 78 -83c0 -49 -42 -66 -42 -66s38 -27 81 -27c109 0 198 88 198 254c0 77 -41 169 -55 235c-212 13 -300 85 -300 142
c0 61 75 110 182 110c5 0 10 -2 10 -6c0 -10 -53 -26 -53 -70c0 -53 61 -106 156 -120c2 131 77 198 204 198c119 0 176 -47 176 -115zM462 517v-4c77 9 125 34 125 82c0 38 -27 64 -60 64c-39 0 -69 -31 -69 -92c0 -14 2 -31 4 -50zM571 841c-24 47 -49 44 -49 61
c0 16 17 16 24 16c32 0 73 -15 100 -41c19 14 57 42 112 42c15 0 22 -4 22 -11c0 -22 -65 -38 -129 -122c-6 -8 -22 -30 -45 -30c-34 0 -16 47 -35 85z" />
    <glyph glyph-name="Scedilla" unicode="&#x15e;" horiz-adv-x="582" 
d="M710 596c0 -48 -46 -123 -237 -138c22 -88 61 -152 61 -241c0 -212 -147 -297 -340 -298c-2 -4 -2 -8 -2 -14c0 -36 57 -53 57 -109c0 -40 -37 -104 -111 -104c-29 0 -61 17 -61 44c0 14 7 16 12 16c6 0 13 -10 30 -10c14 0 31 9 31 27c0 22 -35 44 -35 76
c0 30 17 57 34 77c-108 12 -161 70 -161 126c0 48 34 96 87 96c46 0 78 -37 78 -83c0 -49 -42 -66 -42 -66s38 -27 81 -27c109 0 198 88 198 254c0 77 -41 169 -55 235c-212 13 -300 85 -300 142c0 61 75 110 182 110c5 0 10 -2 10 -6c0 -10 -53 -26 -53 -70
c0 -53 61 -106 156 -120c2 131 77 198 204 198c119 0 176 -47 176 -115zM462 513c77 9 125 34 125 82c0 38 -27 64 -60 64c-39 0 -69 -31 -69 -92c0 -15 2 -34 4 -54z" />
    <glyph glyph-name="Scircumflex" unicode="&#x15c;" horiz-adv-x="582" 
d="M710 596c0 -48 -46 -123 -237 -138c22 -88 61 -152 61 -241c0 -212 -147 -298 -341 -298c-137 0 -205 65 -205 129c0 48 34 96 87 96c46 0 78 -37 78 -83c0 -49 -42 -66 -42 -66s38 -27 81 -27c109 0 198 88 198 254c0 77 -41 169 -55 235c-212 13 -300 85 -300 142
c0 61 75 110 182 110c5 0 10 -2 10 -6c0 -10 -53 -26 -53 -70c0 -53 61 -106 156 -120c2 131 77 198 204 198c119 0 176 -47 176 -115zM462 513c77 9 125 34 125 82c0 38 -27 64 -60 64c-39 0 -69 -31 -69 -92c0 -15 2 -34 4 -54zM674 829c24 -47 49 -44 49 -61
c0 -16 -17 -16 -24 -16c-32 0 -62 13 -89 39c-71 -27 -84 -40 -123 -40c-15 0 -22 4 -22 11c0 22 99 31 134 122c4 9 17 30 40 30c34 0 16 -47 35 -85z" />
    <glyph glyph-name="Scommaaccent" unicode="&#x218;" horiz-adv-x="582" 
d="M57 -307c-6 0 -12 3 -12 10c0 22 31 35 48 135c7 42 29 59 57 59c40 0 46 -34 46 -63c0 -63 -93 -141 -139 -141zM710 596c0 -48 -46 -123 -237 -138c22 -88 61 -152 61 -241c0 -212 -147 -298 -341 -298c-137 0 -205 65 -205 129c0 48 34 96 87 96c46 0 78 -37 78 -83
c0 -49 -42 -66 -42 -66s38 -27 81 -27c109 0 198 88 198 254c0 77 -41 169 -55 235c-212 13 -300 85 -300 142c0 61 75 110 182 110c5 0 10 -2 10 -6c0 -10 -53 -26 -53 -70c0 -53 61 -106 156 -120c2 131 77 198 204 198c119 0 176 -47 176 -115zM462 513
c77 9 125 34 125 82c0 38 -27 64 -60 64c-39 0 -69 -31 -69 -92c0 -15 2 -34 4 -54z" />
    <glyph glyph-name="T" unicode="T" horiz-adv-x="594" 
d="M692 585c9 0 13 -5 13 -9c0 -23 -44 37 -135 -293c-85 -310 -274 -364 -396 -364c-121 0 -184 63 -184 126c0 49 36 99 90 99c45 0 76 -36 76 -81c0 -50 -45 -68 -45 -68s20 -27 63 -27c86 0 171 36 261 333c76 248 212 284 257 284zM881 720c64 0 105 -50 105 -95
c0 -38 -29 -72 -96 -72c-131 0 -214 92 -376 92c-153 0 -263 -86 -263 -204c0 -67 43 -90 75 -90c45 0 60 31 72 31c4 0 6 -5 6 -14c0 -35 -32 -121 -118 -121c-81 0 -148 68 -148 158c0 175 152 297 395 297c102 0 199 -36 271 -36c66 0 74 20 74 36c0 5 -1 10 -1 13
s1 5 4 5z" />
    <glyph glyph-name="T.001" horiz-adv-x="594" 
d="M692 585c9 0 13 -5 13 -9c0 -23 -44 37 -135 -293c-85 -310 -274 -364 -396 -364c-121 0 -184 63 -184 126c0 49 36 99 90 99c45 0 76 -36 76 -81c0 -50 -45 -68 -45 -68s20 -27 63 -27c86 0 171 36 261 333c76 248 212 284 257 284zM881 750c64 0 105 -50 105 -95
c0 -38 -29 -72 -96 -72c-131 0 -214 62 -376 62c-153 0 -263 -86 -263 -204c0 -67 43 -90 75 -90c45 0 60 31 72 31c4 0 6 -5 6 -14c0 -35 -32 -121 -118 -121c-81 0 -148 68 -148 158c0 175 152 297 395 297c102 0 199 -6 271 -6c66 0 74 20 74 36c0 5 -1 10 -1 13s1 5 4 5
z" />
    <glyph glyph-name="Tbar" unicode="&#x166;" horiz-adv-x="594" 
d="M692 585c9 0 13 -5 13 -9c0 -16 -22 8 -66 -90c81 23 121 50 137 50c13 0 24 -28 24 -45c0 -44 -81 -63 -188 -71c-13 -36 -27 -81 -42 -137c-85 -310 -274 -364 -396 -364c-121 0 -184 63 -184 126c0 49 36 99 90 99c45 0 76 -36 76 -81c0 -50 -45 -68 -45 -68
s20 -27 63 -27c86 0 171 36 261 333c14 45 29 83 46 115h-31c-56 0 -120 4 -120 18c0 7 1 20 31 20c70 0 100 1 137 5c3 0 6 0 9 1c71 105 152 125 185 125zM881 720c64 0 105 -50 105 -95c0 -38 -29 -72 -96 -72c-131 0 -214 92 -376 92c-153 0 -263 -86 -263 -204
c0 -67 43 -90 75 -90c45 0 60 31 72 31c4 0 6 -5 6 -14c0 -35 -32 -121 -118 -121c-81 0 -148 68 -148 158c0 175 152 297 395 297c102 0 199 -36 271 -36c66 0 74 20 74 36c0 5 -1 10 -1 13s1 5 4 5z" />
    <glyph glyph-name="Tcaron" unicode="&#x164;" horiz-adv-x="594" 
d="M692 585c9 0 13 -5 13 -9c0 -23 -44 37 -135 -293c-85 -310 -274 -364 -396 -364c-121 0 -184 63 -184 126c0 49 36 99 90 99c45 0 76 -36 76 -81c0 -50 -45 -68 -45 -68s20 -27 63 -27c86 0 171 36 261 333c76 248 212 284 257 284zM881 720c64 0 105 -50 105 -95
c0 -38 -29 -72 -96 -72c-131 0 -214 92 -376 92c-153 0 -263 -86 -263 -204c0 -67 43 -90 75 -90c45 0 60 31 72 31c4 0 6 -5 6 -14c0 -35 -32 -121 -118 -121c-81 0 -148 68 -148 158c0 175 152 297 395 297c102 0 199 -36 271 -36c66 0 74 20 74 36c0 5 -1 10 -1 13
s1 5 4 5zM658 814c-24 47 -49 44 -49 61c0 16 17 16 24 16c32 0 73 -15 100 -41c19 14 57 42 112 42c15 0 22 -4 22 -11c0 -22 -65 -38 -129 -122c-6 -8 -22 -30 -45 -30c-34 0 -16 47 -35 85z" />
    <glyph glyph-name="Tcommaaccent" unicode="&#x162;" horiz-adv-x="594" 
d="M692 585c9 0 13 -5 13 -9c0 -23 -44 37 -135 -293c-85 -310 -274 -364 -396 -364c-121 0 -184 63 -184 126c0 49 36 99 90 99c45 0 76 -36 76 -81c0 -50 -45 -68 -45 -68s20 -27 63 -27c86 0 171 36 261 333c76 248 212 284 257 284zM881 720c64 0 105 -50 105 -95
c0 -38 -29 -72 -96 -72c-131 0 -214 92 -376 92c-153 0 -263 -86 -263 -204c0 -67 43 -90 75 -90c45 0 60 31 72 31c4 0 6 -5 6 -14c0 -35 -32 -121 -118 -121c-81 0 -148 68 -148 158c0 175 152 297 395 297c102 0 199 -36 271 -36c66 0 74 20 74 36c0 5 -1 10 -1 13
s1 5 4 5zM225 -298c-6 0 -12 3 -12 10c0 22 31 35 48 135c7 42 29 59 57 59c40 0 46 -34 46 -63c0 -63 -93 -141 -139 -141z" />
    <glyph glyph-name="Thorn" unicode="&#xde;" horiz-adv-x="906" 
d="M699 711c37 0 67 -23 67 -53c0 -24 -20 -54 -67 -54c-19 0 -42 5 -63 10c-26 -33 -42 -66 -59 -115c19 3 38 4 57 4c158 0 264 -78 264 -185c0 -122 -139 -201 -291 -201c-57 0 -101 10 -131 20c-50 -137 -119 -219 -278 -219c-139 0 -207 63 -207 127c0 47 36 98 90 98
c45 0 76 -36 76 -80c0 -52 -45 -69 -45 -69s16 -27 69 -27c142 0 165 196 209 358c49 179 107 269 156 314c-21 4 -42 6 -64 6c-131 0 -217 -83 -217 -155c0 -31 15 -53 46 -53c34 0 34 26 42 26c6 0 9 -10 9 -26c0 -41 -25 -114 -107 -114c-79 0 -115 67 -115 128
c0 119 135 250 341 250c57 0 83 -10 135 -10c0 0 59 20 83 20zM591 453c-9 0 -19 -1 -28 -2c-10 -34 -20 -75 -33 -126c-12 -47 -23 -90 -35 -130c26 -8 61 -17 100 -17c100 0 170 70 170 148c0 68 -47 127 -174 127z" />
    <glyph glyph-name="U" unicode="U" horiz-adv-x="792" 
d="M884 271c5 7 12 10 18 10c7 0 13 -5 13 -13c0 -6 -1 -10 -4 -15c-160 -242 -223 -285 -295 -285c-38 0 -62 48 -73 101c-57 -78 -126 -143 -198 -143c-89 0 -124 71 -124 178c0 178 96 434 193 532c-28 6 -57 10 -90 10c-118 0 -209 -83 -209 -155c0 -30 15 -53 45 -53
c37 0 32 26 45 26c5 0 8 -9 8 -23c0 -40 -25 -117 -105 -117c-84 0 -118 67 -118 128c0 119 139 250 334 250c42 0 103 -6 142 -13c0 0 44 23 83 23c37 0 67 -23 67 -53c0 -24 -19 -54 -68 -54c-16 0 -38 4 -58 10c-71 -92 -139 -298 -139 -427c0 -65 15 -116 58 -116
c31 0 82 56 128 117c28 215 131 523 267 523c20 0 30 -18 30 -53c0 -77 -52 -233 -169 -436c-3 -26 -5 -49 -5 -68c0 -54 12 -82 26 -82c23 0 54 9 198 198z" />
    <glyph glyph-name="U.swash" horiz-adv-x="792" 
d="M965 -53c9 0 14 -10 14 -26c0 -55 -67 -159 -198 -159c-166 0 -233 146 -242 301c-45 -74 -128 -145 -195 -145c-89 0 -123 79 -123 185c0 178 96 434 192 532c-28 6 -57 10 -90 10c-118 0 -209 -83 -209 -155c0 -30 15 -53 45 -53c37 0 32 26 45 26c5 0 8 -9 8 -23
c0 -40 -25 -117 -105 -117c-84 0 -118 67 -118 128c0 119 139 250 334 250c42 0 103 -6 142 -13c0 0 44 23 83 23c37 0 67 -23 67 -53c0 -24 -19 -54 -68 -54c-16 0 -38 4 -58 10c-71 -91 -139 -298 -139 -427c0 -65 16 -118 59 -118c31 0 81 58 127 119
c28 215 131 523 267 523c20 0 30 -19 30 -54c0 -73 -46 -217 -151 -404c-6 -44 -9 -83 -9 -111c0 -130 31 -260 157 -260c83 0 119 65 135 65z" />
    <glyph glyph-name="Uacute" unicode="&#xda;" horiz-adv-x="792" 
d="M884 271c5 7 12 10 18 10c7 0 13 -5 13 -13c0 -6 -1 -10 -4 -15c-160 -242 -223 -285 -295 -285c-38 0 -62 48 -73 101c-57 -78 -126 -143 -198 -143c-89 0 -124 71 -124 178c0 178 96 434 193 532c-28 6 -57 10 -90 10c-118 0 -209 -83 -209 -155c0 -30 15 -53 45 -53
c37 0 32 26 45 26c5 0 8 -9 8 -23c0 -40 -25 -117 -105 -117c-84 0 -118 67 -118 128c0 119 139 250 334 250c42 0 103 -6 142 -13c0 0 44 23 83 23c37 0 67 -23 67 -53c0 -24 -19 -54 -68 -54c-16 0 -38 4 -58 10c-71 -92 -139 -298 -139 -427c0 -65 15 -116 58 -116
c31 0 82 56 128 117c28 215 131 523 267 523c20 0 30 -18 30 -53c0 -77 -52 -233 -169 -436c-3 -26 -5 -49 -5 -68c0 -54 12 -82 26 -82c23 0 54 9 198 198zM743 908c20 0 61 -24 61 -63c0 -60 -90 -99 -179 -99c-28 0 -42 6 -42 16c0 31 138 27 138 127c0 10 2 19 22 19z
" />
    <glyph glyph-name="Ubreve" unicode="&#x16c;" horiz-adv-x="792" 
d="M884 271c5 7 12 10 18 10c7 0 13 -5 13 -13c0 -6 -1 -10 -4 -15c-160 -242 -223 -285 -295 -285c-38 0 -62 48 -73 101c-57 -78 -126 -143 -198 -143c-89 0 -124 71 -124 178c0 178 96 434 193 532c-28 6 -57 10 -90 10c-118 0 -209 -83 -209 -155c0 -30 15 -53 45 -53
c37 0 32 26 45 26c5 0 8 -9 8 -23c0 -40 -25 -117 -105 -117c-84 0 -118 67 -118 128c0 119 139 250 334 250c42 0 103 -6 142 -13c0 0 44 23 83 23c37 0 67 -23 67 -53c0 -24 -19 -54 -68 -54c-16 0 -38 4 -58 10c-71 -92 -139 -298 -139 -427c0 -65 15 -116 58 -116
c31 0 82 56 128 117c28 215 131 523 267 523c20 0 30 -18 30 -53c0 -77 -52 -233 -169 -436c-3 -26 -5 -49 -5 -68c0 -54 12 -82 26 -82c23 0 54 9 198 198zM672 895c0 -7 -2 -11 -2 -21c0 -27 18 -46 55 -46c47 0 68 31 81 55c8 14 13 22 23 22c9 0 14 -7 14 -20
c0 -44 -51 -129 -149 -129c-66 0 -95 39 -95 78c0 45 37 72 60 72c7 0 13 -2 13 -11z" />
    <glyph glyph-name="Ucircumflex" unicode="&#xdb;" horiz-adv-x="792" 
d="M884 271c5 7 12 10 18 10c7 0 13 -5 13 -13c0 -6 -1 -10 -4 -15c-160 -242 -223 -285 -295 -285c-38 0 -62 48 -73 101c-57 -78 -126 -143 -198 -143c-89 0 -124 71 -124 178c0 178 96 434 193 532c-28 6 -57 10 -90 10c-118 0 -209 -83 -209 -155c0 -30 15 -53 45 -53
c37 0 32 26 45 26c5 0 8 -9 8 -23c0 -40 -25 -117 -105 -117c-84 0 -118 67 -118 128c0 119 139 250 334 250c42 0 103 -6 142 -13c0 0 44 23 83 23c37 0 67 -23 67 -53c0 -24 -19 -54 -68 -54c-16 0 -38 4 -58 10c-71 -92 -139 -298 -139 -427c0 -65 15 -116 58 -116
c31 0 82 56 128 117c28 215 131 523 267 523c20 0 30 -18 30 -53c0 -77 -52 -233 -169 -436c-3 -26 -5 -49 -5 -68c0 -54 12 -82 26 -82c23 0 54 9 198 198zM764 840c24 -47 49 -44 49 -61c0 -16 -17 -16 -24 -16c-32 0 -62 13 -89 39c-71 -27 -84 -40 -123 -40
c-15 0 -22 4 -22 11c0 22 99 31 134 122c4 9 17 30 40 30c34 0 16 -47 35 -85z" />
    <glyph glyph-name="Udieresis" unicode="&#xdc;" horiz-adv-x="792" 
d="M884 271c5 7 12 10 18 10c7 0 13 -5 13 -13c0 -6 -1 -10 -4 -15c-160 -242 -223 -285 -295 -285c-38 0 -62 48 -73 101c-57 -78 -126 -143 -198 -143c-89 0 -124 71 -124 178c0 178 96 434 193 532c-28 6 -57 10 -90 10c-118 0 -209 -83 -209 -155c0 -30 15 -53 45 -53
c37 0 32 26 45 26c5 0 8 -9 8 -23c0 -40 -25 -117 -105 -117c-84 0 -118 67 -118 128c0 119 139 250 334 250c42 0 103 -6 142 -13c0 0 44 23 83 23c37 0 67 -23 67 -53c0 -24 -19 -54 -68 -54c-16 0 -38 4 -58 10c-71 -92 -139 -298 -139 -427c0 -65 15 -116 58 -116
c31 0 82 56 128 117c28 215 131 523 267 523c20 0 30 -18 30 -53c0 -77 -52 -233 -169 -436c-3 -26 -5 -49 -5 -68c0 -54 12 -82 26 -82c23 0 54 9 198 198zM588 745c-34 0 -59 26 -59 58c0 44 46 81 89 81c34 0 56 -24 56 -53c0 -46 -41 -82 -86 -86zM778 745
c-33 0 -59 23 -59 55c0 46 45 84 90 84c34 0 55 -24 55 -53c0 -46 -42 -82 -86 -86z" />
    <glyph glyph-name="Ugrave" unicode="&#xd9;" horiz-adv-x="792" 
d="M884 271c5 7 12 10 18 10c7 0 13 -5 13 -13c0 -6 -1 -10 -4 -15c-160 -242 -223 -285 -295 -285c-38 0 -62 48 -73 101c-57 -78 -126 -143 -198 -143c-89 0 -124 71 -124 178c0 178 96 434 193 532c-28 6 -57 10 -90 10c-118 0 -209 -83 -209 -155c0 -30 15 -53 45 -53
c37 0 32 26 45 26c5 0 8 -9 8 -23c0 -40 -25 -117 -105 -117c-84 0 -118 67 -118 128c0 119 139 250 334 250c42 0 103 -6 142 -13c0 0 44 23 83 23c37 0 67 -23 67 -53c0 -24 -19 -54 -68 -54c-16 0 -38 4 -58 10c-71 -92 -139 -298 -139 -427c0 -65 15 -116 58 -116
c31 0 82 56 128 117c28 215 131 523 267 523c20 0 30 -18 30 -53c0 -77 -52 -233 -169 -436c-3 -26 -5 -49 -5 -68c0 -54 12 -82 26 -82c23 0 54 9 198 198zM604 906c8 0 10 -4 10 -10c0 -4 -1 -10 -1 -16c0 -78 152 -89 152 -120c0 -10 -14 -16 -43 -16
c-89 0 -179 39 -179 99c0 39 42 63 61 63z" />
    <glyph glyph-name="Uhungarumlaut" unicode="&#x170;" horiz-adv-x="792" 
d="M884 271c5 7 12 10 18 10c7 0 13 -5 13 -13c0 -6 -1 -10 -4 -15c-160 -242 -223 -285 -295 -285c-38 0 -62 48 -73 101c-57 -78 -126 -143 -198 -143c-89 0 -124 71 -124 178c0 178 96 434 193 532c-28 6 -57 10 -90 10c-118 0 -209 -83 -209 -155c0 -30 15 -53 45 -53
c37 0 32 26 45 26c5 0 8 -9 8 -23c0 -40 -25 -117 -105 -117c-84 0 -118 67 -118 128c0 119 139 250 334 250c42 0 103 -6 142 -13c0 0 44 23 83 23c37 0 67 -23 67 -53c0 -24 -19 -54 -68 -54c-16 0 -38 4 -58 10c-71 -92 -139 -298 -139 -427c0 -65 15 -116 58 -116
c31 0 82 56 128 117c28 215 131 523 267 523c20 0 30 -18 30 -53c0 -77 -52 -233 -169 -436c-3 -26 -5 -49 -5 -68c0 -54 12 -82 26 -82c23 0 54 9 198 198zM685 934c17 0 61 -10 61 -57c0 -52 -85 -125 -133 -125c-19 0 -26 7 -26 18c0 26 82 48 82 142c0 18 7 22 16 22z
M813 934c17 0 61 -10 61 -57c0 -52 -86 -125 -133 -125c-17 0 -26 7 -26 18c0 26 82 48 82 142c0 18 7 22 16 22z" />
    <glyph glyph-name="Umacron" unicode="&#x16a;" horiz-adv-x="792" 
d="M884 271c5 7 12 10 18 10c7 0 13 -5 13 -13c0 -6 -1 -10 -4 -15c-160 -242 -223 -285 -295 -285c-38 0 -62 48 -73 101c-57 -78 -126 -143 -198 -143c-89 0 -124 71 -124 178c0 178 96 434 193 532c-28 6 -57 10 -90 10c-118 0 -209 -83 -209 -155c0 -30 15 -53 45 -53
c37 0 32 26 45 26c5 0 8 -9 8 -23c0 -40 -25 -117 -105 -117c-84 0 -118 67 -118 128c0 119 139 250 334 250c42 0 103 -6 142 -13c0 0 44 23 83 23c37 0 67 -23 67 -53c0 -24 -19 -54 -68 -54c-16 0 -38 4 -58 10c-71 -92 -139 -298 -139 -427c0 -65 15 -116 58 -116
c31 0 82 56 128 117c28 215 131 523 267 523c20 0 30 -18 30 -53c0 -77 -52 -233 -169 -436c-3 -26 -5 -49 -5 -68c0 -54 12 -82 26 -82c23 0 54 9 198 198zM680 836c49 0 75 0 111 9c35 10 45 16 55 16c5 0 7 -7 7 -14c0 -34 -28 -83 -80 -83c-87 0 -164 9 -210 9
c-17 0 -34 8 -34 26c0 16 36 44 61 44c24 0 41 -7 90 -7z" />
    <glyph glyph-name="Uogonek" unicode="&#x172;" horiz-adv-x="792" 
d="M884 271c5 7 12 10 18 10c7 0 13 -5 13 -13c0 -6 -1 -10 -4 -15c-104 -157 -170 -226 -218 -262c-49 -37 -103 -105 -103 -145c0 -51 45 -45 45 -61c0 -28 -37 -59 -82 -59c-47 0 -76 32 -76 79c0 59 62 125 118 168c-26 12 -43 46 -52 89c-57 -78 -126 -143 -198 -143
c-89 0 -124 78 -124 185c0 178 96 434 193 532c-28 6 -57 10 -90 10c-118 0 -209 -83 -209 -155c0 -30 15 -53 45 -53c37 0 32 26 45 26c5 0 8 -9 8 -23c0 -40 -25 -117 -105 -117c-84 0 -118 67 -118 128c0 119 139 250 334 250c42 0 103 -6 142 -13c0 0 44 23 83 23
c37 0 67 -23 67 -53c0 -24 -19 -54 -68 -54c-16 0 -38 4 -58 10c-71 -92 -139 -298 -139 -427c0 -65 17 -110 60 -110c31 0 80 50 126 111c28 215 131 523 267 523c20 0 30 -18 30 -53c0 -77 -52 -233 -169 -436c-3 -26 -5 -49 -5 -68c0 -54 12 -82 26 -82
c23 0 54 9 198 198z" />
    <glyph glyph-name="Uring" unicode="&#x16e;" horiz-adv-x="792" 
d="M884 271c5 7 12 10 18 10c7 0 13 -5 13 -13c0 -6 -1 -10 -4 -15c-160 -242 -223 -285 -295 -285c-38 0 -62 48 -73 101c-57 -78 -126 -143 -198 -143c-89 0 -124 71 -124 178c0 178 96 434 193 532c-28 6 -57 10 -90 10c-118 0 -209 -83 -209 -155c0 -30 15 -53 45 -53
c37 0 32 26 45 26c5 0 8 -9 8 -23c0 -40 -25 -117 -105 -117c-84 0 -118 67 -118 128c0 119 139 250 334 250c42 0 103 -6 142 -13c0 0 44 23 83 23c37 0 67 -23 67 -53c0 -24 -19 -54 -68 -54c-16 0 -38 4 -58 10c-71 -92 -139 -298 -139 -427c0 -65 15 -116 58 -116
c31 0 82 56 128 117c28 215 131 523 267 523c20 0 30 -18 30 -53c0 -77 -52 -233 -169 -436c-3 -26 -5 -49 -5 -68c0 -54 12 -82 26 -82c23 0 54 9 198 198zM730 917c35 0 51 -27 51 -49c0 -60 -39 -106 -83 -106c-45 0 -58 30 -58 56c0 45 40 99 90 99zM714 812
c7 0 26 15 26 38c0 11 -9 19 -21 19c-11 0 -25 -20 -25 -37c0 -9 4 -20 20 -20z" />
    <glyph glyph-name="Utilde" unicode="&#x168;" horiz-adv-x="792" 
d="M884 271c5 7 12 10 18 10c7 0 13 -5 13 -13c0 -6 -1 -10 -4 -15c-160 -242 -223 -285 -295 -285c-38 0 -62 48 -73 101c-57 -78 -126 -143 -198 -143c-89 0 -124 71 -124 178c0 178 96 434 193 532c-28 6 -57 10 -90 10c-118 0 -209 -83 -209 -155c0 -30 15 -53 45 -53
c37 0 32 26 45 26c5 0 8 -9 8 -23c0 -40 -25 -117 -105 -117c-84 0 -118 67 -118 128c0 119 139 250 334 250c42 0 103 -6 142 -13c0 0 44 23 83 23c37 0 67 -23 67 -53c0 -24 -19 -54 -68 -54c-16 0 -38 4 -58 10c-71 -92 -139 -298 -139 -427c0 -65 15 -116 58 -116
c31 0 82 56 128 117c28 215 131 523 267 523c20 0 30 -18 30 -53c0 -77 -52 -233 -169 -436c-3 -26 -5 -49 -5 -68c0 -54 12 -82 26 -82c23 0 54 9 198 198zM576 757c-6 0 -9 7 -9 23c0 36 27 81 81 81c42 0 72 -38 104 -38c40 0 46 27 53 27c4 0 8 -1 8 -15
c0 -37 -28 -87 -85 -87c-50 0 -60 37 -99 37c-34 0 -43 -28 -53 -28z" />
    <glyph glyph-name="V" unicode="V" horiz-adv-x="679" 
d="M913 711c0 -82 -105 -229 -183 -321c-74 -88 -155 -178 -213 -269l-6 -21c-42 -132 -78 -152 -138 -152c-17 0 -26 14 -26 35c0 34 21 87 56 133c0 0 -5 48 -5 123c0 100 9 248 47 388c-36 11 -75 18 -121 18c-118 0 -209 -83 -209 -155c0 -30 15 -53 45 -53
c37 0 32 26 45 26c5 0 8 -9 8 -23c0 -40 -25 -117 -105 -117c-84 0 -118 67 -118 128c0 119 139 250 334 250c42 0 103 -6 142 -13c0 0 44 23 83 23c37 0 67 -23 67 -53c0 -20 -13 -44 -45 -51c-44 -161 -36 -273 -40 -372c133 180 275 357 275 449c0 35 -21 56 -53 56
c-21 0 -30 -9 -36 -9c-2 0 -5 1 -5 5c0 16 32 79 99 79c81 0 102 -69 102 -104z" />
    <glyph glyph-name="V.swash" horiz-adv-x="679" 
d="M1081 734c110 0 166 -63 166 -126c0 -50 -34 -97 -88 -97c-45 0 -79 28 -79 43c0 12 23 16 23 45c0 22 -18 41 -47 41c-157 0 -417 -304 -542 -523c-1 -5 -2 -11 -4 -16c-42 -132 -78 -152 -138 -152c-17 0 -26 14 -26 35c0 34 21 87 56 133c0 0 -4 46 -4 118
c0 100 8 250 47 393c-37 11 -76 18 -122 18c-118 0 -209 -83 -209 -155c0 -30 15 -53 45 -53c37 0 32 26 45 26c5 0 8 -9 8 -23c0 -40 -25 -117 -105 -117c-84 0 -118 67 -118 128c0 119 139 250 334 250c42 0 103 -6 142 -13c0 0 44 23 83 23c37 0 67 -23 67 -53
c0 -20 -13 -44 -45 -51c-42 -153 -37 -262 -39 -357c149 228 350 483 550 483z" />
    <glyph glyph-name="W" unicode="W" horiz-adv-x="877" 
d="M1120 720c0 -81 -105 -228 -183 -320s-162 -187 -221 -281l-3 -9c-41 -133 -78 -152 -138 -152c-17 0 -25 13 -25 35c0 34 20 87 55 133c0 0 57 205 77 348c-83 -85 -165 -187 -237 -292c-8 -34 -17 -66 -28 -94c-38 -99 -68 -152 -128 -152c-19 0 -29 19 -29 50
c0 39 17 97 56 163c57 191 61 336 122 489c-34 10 -71 16 -114 16c-118 0 -209 -83 -209 -155c0 -30 15 -53 45 -53c37 0 32 27 45 27c5 0 8 -9 8 -23c0 -40 -25 -118 -105 -118c-84 0 -118 68 -118 129c0 119 139 250 334 250c42 0 103 -6 142 -13c0 0 44 22 83 22
c37 0 67 -23 67 -53c0 -22 -17 -50 -61 -53c-40 -129 -50 -204 -67 -278c63 90 136 178 211 251c15 76 48 106 111 106c35 0 56 -18 56 -45c0 -23 -18 -48 -31 -64c-32 -109 -56 -218 -80 -316l32 43c117 156 226 302 226 382c0 35 -21 57 -53 57c-19 0 -30 -10 -36 -10
c-3 0 -5 2 -5 5c0 17 32 80 99 80c81 0 102 -69 102 -105z" />
    <glyph glyph-name="W.swash" horiz-adv-x="861" 
d="M1283 744c110 0 166 -63 166 -126c0 -50 -34 -97 -88 -97c-45 0 -78 28 -78 43c0 12 23 16 23 45c0 22 -18 41 -47 41c-157 0 -417 -303 -541 -522l-6 -17c-41 -132 -78 -152 -138 -152c-17 0 -25 13 -25 35c0 34 20 87 55 133c0 0 57 205 77 349
c-83 -85 -165 -188 -237 -292c-8 -35 -17 -67 -28 -95c-38 -98 -68 -152 -128 -152c-19 0 -29 19 -29 50c0 39 17 98 56 164c57 191 61 336 122 489c-34 9 -71 16 -114 16c-118 0 -209 -83 -209 -155c0 -30 15 -53 45 -53c37 0 32 26 45 26c5 0 8 -9 8 -23
c0 -40 -25 -117 -105 -117c-84 0 -118 67 -118 128c0 119 139 250 334 250c42 0 103 -6 142 -13c0 0 44 23 83 23c37 0 67 -23 67 -53c0 -23 -17 -51 -61 -54c-40 -128 -50 -204 -67 -278c63 90 136 178 211 251c15 77 48 107 111 107c35 0 56 -18 56 -45
c0 -23 -18 -49 -31 -64c-28 -96 -50 -192 -71 -280c146 215 334 438 520 438z" />
    <glyph glyph-name="Wcircumflex" unicode="&#x174;" horiz-adv-x="877" 
d="M1120 720c0 -81 -105 -228 -183 -320s-162 -187 -221 -281l-3 -9c-41 -133 -78 -152 -138 -152c-17 0 -25 13 -25 35c0 34 20 87 55 133c0 0 57 205 77 348c-83 -85 -165 -187 -237 -292c-8 -34 -17 -66 -28 -94c-38 -99 -68 -152 -128 -152c-19 0 -29 19 -29 50
c0 39 17 97 56 163c57 191 61 336 122 489c-34 10 -71 16 -114 16c-118 0 -209 -83 -209 -155c0 -30 15 -53 45 -53c37 0 32 27 45 27c5 0 8 -9 8 -23c0 -40 -25 -118 -105 -118c-84 0 -118 68 -118 129c0 119 139 250 334 250c42 0 103 -6 142 -13c0 0 44 22 83 22
c37 0 67 -23 67 -53c0 -22 -17 -50 -61 -53c-40 -129 -50 -204 -67 -278c63 90 136 178 211 251c15 76 48 106 111 106c35 0 56 -18 56 -45c0 -23 -18 -48 -31 -64c-32 -109 -56 -218 -80 -316l32 43c117 156 226 302 226 382c0 33 -13 54 -32 54c-12 0 -18 -10 -22 -10
c-2 0 -3 2 -3 5c0 17 26 80 81 80c66 0 83 -69 83 -102zM894 798c24 -47 49 -44 49 -61c0 -16 -17 -16 -24 -16c-32 0 -62 13 -89 39c-71 -27 -84 -40 -123 -40c-15 0 -22 4 -22 11c0 22 99 31 134 122c4 9 17 30 40 30c34 0 16 -47 35 -85z" />
    <glyph glyph-name="X" unicode="X" horiz-adv-x="980" 
d="M858 63c75 0 160 128 223 207c4 5 9 8 15 8c10 0 15 -7 15 -15c0 -4 -1 -7 -3 -11c-80 -107 -197 -288 -319 -288c-95 0 -160 74 -247 282c-126 -168 -260 -327 -386 -327c-110 0 -166 63 -166 126c0 49 34 97 88 97c45 0 78 -34 78 -79c0 -30 -15 -48 -28 -58
c8 -2 17 -3 26 -3c110 0 229 160 352 330c-50 123 -94 218 -167 218c-59 0 -59 -63 -75 -63c-13 0 -22 24 -22 56c0 66 37 168 147 168c86 0 152 -115 213 -249c112 146 227 271 344 271c110 0 166 -63 166 -126c0 -50 -34 -97 -88 -97c-45 0 -78 28 -78 43
c0 12 22 16 22 45c0 22 -17 41 -46 41c-80 0 -177 -120 -283 -261c69 -159 135 -315 219 -315z" />
    <glyph glyph-name="X.swash" horiz-adv-x="980" 
d="M1024 509c-45 0 -78 28 -78 43c0 12 22 17 22 46c0 22 -17 40 -46 40c-80 0 -177 -119 -282 -260c103 -228 202 -491 299 -491c62 0 54 60 70 60c13 0 21 -21 21 -49c0 -60 -37 -155 -149 -155c-141 0 -236 242 -323 460c-6 14 -12 28 -17 42
c-126 -168 -259 -326 -385 -326c-110 0 -166 63 -166 126c0 49 34 96 88 96c45 0 78 -33 78 -78c0 -30 -15 -48 -28 -58c9 -2 17 -3 26 -3c110 0 229 159 352 330c-50 123 -94 218 -167 218c-62 0 -59 -63 -75 -63c-13 0 -22 24 -22 56c0 66 37 168 147 168
c74 0 145 -110 212 -250c112 146 228 271 345 271c110 0 166 -63 166 -126c0 -49 -34 -97 -88 -97z" />
    <glyph glyph-name="Y" unicode="Y" horiz-adv-x="749" 
d="M872 252c-35 -57 -104 -162 -227 -236c-26 -214 -107 -327 -251 -327c-94 0 -132 56 -132 104c0 89 96 147 268 214c5 30 9 65 10 105c-53 -66 -120 -120 -195 -120c-89 0 -123 68 -123 162c0 157 96 385 192 481c-28 6 -57 10 -90 10c-118 0 -209 -83 -209 -155
c0 -30 15 -53 45 -53c35 0 34 26 45 26c5 0 8 -9 8 -23c0 -40 -25 -117 -105 -117c-84 0 -118 67 -118 128c0 119 139 250 334 250c42 0 103 -6 142 -13c0 0 44 23 83 23c37 0 67 -23 67 -53c0 -24 -19 -54 -68 -54c-16 0 -38 4 -58 10c-71 -90 -139 -265 -139 -372
c0 -54 17 -91 60 -91c37 0 92 45 138 100c31 204 126 460 255 460c20 0 30 -16 30 -46c0 -68 -53 -209 -176 -414c-1 -68 -3 -131 -8 -187c103 68 161 164 195 206c4 5 9 8 15 8c10 0 15 -7 15 -15c0 -4 -1 -7 -3 -11zM417 -189c37 0 80 40 105 149
c-84 -36 -136 -71 -136 -118c0 -18 13 -31 31 -31z" />
    <glyph glyph-name="Y.swash" horiz-adv-x="749" 
d="M1222 -103c14 0 41 -33 41 -73c0 -64 -42 -135 -185 -135c-163 0 -339 91 -498 154c-68 -126 -166 -153 -268 -153c-135 0 -202 66 -202 129c0 88 90 140 218 140c66 0 123 -6 176 -16c13 44 23 97 29 162c-52 -63 -117 -113 -189 -113c-89 0 -123 68 -123 162
c0 157 96 385 192 481c-28 6 -57 10 -90 10c-118 0 -209 -83 -209 -155c0 -30 15 -53 45 -53c37 0 32 26 45 26c5 0 8 -9 8 -23c0 -40 -25 -117 -105 -117c-84 0 -118 67 -118 128c0 119 139 250 334 250c42 0 103 -6 142 -13c0 0 44 23 83 23c37 0 67 -23 67 -53
c0 -24 -19 -54 -68 -54c-16 0 -38 4 -58 10c-71 -90 -139 -265 -139 -372c0 -54 17 -91 60 -91c37 0 92 45 138 100c31 203 126 460 255 460c20 0 30 -15 30 -45c0 -66 -50 -201 -166 -398c-7 -153 -27 -266 -55 -350c127 -33 255 -74 469 -74c123 0 115 53 141 53z
M333 -240c56 0 110 30 149 119c-50 15 -98 25 -142 25c-66 0 -108 -31 -108 -73c0 -48 45 -71 101 -71z" />
    <glyph glyph-name="Yacute" unicode="&#xdd;" horiz-adv-x="749" 
d="M872 252c-35 -57 -104 -162 -227 -236c-26 -214 -107 -327 -251 -327c-94 0 -132 56 -132 104c0 89 96 147 268 214c5 30 9 65 10 105c-53 -66 -120 -120 -195 -120c-89 0 -123 68 -123 162c0 157 96 385 192 481c-28 6 -57 10 -90 10c-118 0 -209 -83 -209 -155
c0 -30 15 -53 45 -53c35 0 34 26 45 26c5 0 8 -9 8 -23c0 -40 -25 -117 -105 -117c-84 0 -118 67 -118 128c0 119 139 250 334 250c42 0 103 -6 142 -13c0 0 44 23 83 23c37 0 67 -23 67 -53c0 -24 -19 -54 -68 -54c-16 0 -38 4 -58 10c-71 -90 -139 -265 -139 -372
c0 -54 17 -91 60 -91c37 0 92 45 138 100c31 204 126 460 255 460c20 0 30 -16 30 -46c0 -68 -53 -209 -176 -414c-1 -68 -3 -131 -8 -187c103 68 161 164 195 206c4 5 9 8 15 8c10 0 15 -7 15 -15c0 -4 -1 -7 -3 -11zM417 -189c37 0 80 40 105 149
c-84 -36 -136 -71 -136 -118c0 -18 13 -31 31 -31zM745 907c20 0 61 -24 61 -63c0 -60 -90 -99 -179 -99c-28 0 -42 6 -42 16c0 31 138 27 138 127c0 10 2 19 22 19z" />
    <glyph glyph-name="Ycircumflex" unicode="&#x176;" horiz-adv-x="749" 
d="M872 252c-35 -57 -104 -162 -227 -236c-26 -214 -107 -327 -251 -327c-94 0 -132 56 -132 104c0 89 96 147 268 214c5 30 9 65 10 105c-53 -66 -120 -120 -195 -120c-89 0 -123 68 -123 162c0 157 96 385 192 481c-28 6 -57 10 -90 10c-118 0 -209 -83 -209 -155
c0 -30 15 -53 45 -53c35 0 34 26 45 26c5 0 8 -9 8 -23c0 -40 -25 -117 -105 -117c-84 0 -118 67 -118 128c0 119 139 250 334 250c42 0 103 -6 142 -13c0 0 44 23 83 23c37 0 67 -23 67 -53c0 -24 -19 -54 -68 -54c-16 0 -38 4 -58 10c-71 -90 -139 -265 -139 -372
c0 -54 17 -91 60 -91c37 0 92 45 138 100c31 204 126 460 255 460c20 0 30 -16 30 -46c0 -68 -53 -209 -176 -414c-1 -68 -3 -131 -8 -187c103 68 161 164 195 206c4 5 9 8 15 8c10 0 15 -7 15 -15c0 -4 -1 -7 -3 -11zM417 -189c37 0 80 40 105 149
c-84 -36 -136 -71 -136 -118c0 -18 13 -31 31 -31zM768 828c24 -47 49 -44 49 -61c0 -16 -17 -16 -24 -16c-32 0 -62 13 -89 39c-71 -27 -84 -40 -123 -40c-15 0 -22 4 -22 11c0 22 99 31 134 122c4 9 17 30 40 30c34 0 16 -47 35 -85z" />
    <glyph glyph-name="Ydieresis" unicode="&#x178;" horiz-adv-x="749" 
d="M872 252c-35 -57 -104 -162 -227 -236c-26 -214 -107 -327 -251 -327c-94 0 -132 56 -132 104c0 89 96 147 268 214c5 30 9 65 10 105c-53 -66 -120 -120 -195 -120c-89 0 -123 68 -123 162c0 157 96 385 192 481c-28 6 -57 10 -90 10c-118 0 -209 -83 -209 -155
c0 -30 15 -53 45 -53c35 0 34 26 45 26c5 0 8 -9 8 -23c0 -40 -25 -117 -105 -117c-84 0 -118 67 -118 128c0 119 139 250 334 250c42 0 103 -6 142 -13c0 0 44 23 83 23c37 0 67 -23 67 -53c0 -24 -19 -54 -68 -54c-16 0 -38 4 -58 10c-71 -90 -139 -265 -139 -372
c0 -54 17 -91 60 -91c37 0 92 45 138 100c31 204 126 460 255 460c20 0 30 -16 30 -46c0 -68 -53 -209 -176 -414c-1 -68 -3 -131 -8 -187c103 68 161 164 195 206c4 5 9 8 15 8c10 0 15 -7 15 -15c0 -4 -1 -7 -3 -11zM417 -189c37 0 80 40 105 149
c-84 -36 -136 -71 -136 -118c0 -18 13 -31 31 -31zM590 748c-33 0 -58 26 -58 57c0 43 46 78 87 78c33 0 54 -23 54 -51c0 -44 -39 -80 -83 -84zM774 748c-32 0 -57 22 -57 54c0 44 43 81 87 81c34 0 53 -23 53 -51c0 -44 -40 -80 -83 -84z" />
    <glyph glyph-name="Z" unicode="Z" horiz-adv-x="936" 
d="M1035 270c5 7 11 10 16 10c8 0 15 -6 15 -15c0 -4 -1 -9 -4 -13c-46 -65 -224 -322 -388 -322c-106 0 -189 64 -264 102c-72 -68 -151 -114 -242 -114c-121 0 -178 54 -178 117s57 141 187 141c63 0 123 -12 181 -32c95 142 252 351 375 471c-53 21 -142 35 -215 35
c-153 0 -260 -82 -260 -200c0 -67 42 -90 75 -90c45 0 59 31 72 31c4 0 6 -5 6 -14c0 -35 -32 -121 -118 -121c-81 0 -148 68 -148 158c0 175 151 297 394 297c89 0 199 -19 273 -34c37 21 77 33 119 33c65 0 103 -36 103 -74c0 -37 -33 -74 -107 -74c-26 0 -51 4 -74 10
c-91 -103 -252 -319 -382 -475c66 -28 125 -54 217 -54c176 0 287 147 347 227zM177 -8c48 0 93 35 137 90c-43 16 -87 24 -122 24c-59 0 -90 -25 -90 -61c0 -32 32 -53 75 -53z" />
    <glyph glyph-name="Z.swash" horiz-adv-x="936" 
d="M1055 -50c14 0 41 -33 41 -73c0 -64 -41 -135 -185 -135c-262 0 -374 185 -505 285c-71 -65 -149 -109 -238 -109c-121 0 -178 54 -178 117s57 141 187 141c63 0 123 -12 182 -32c94 142 248 351 371 471c-53 21 -136 37 -209 37c-153 0 -266 -84 -266 -202
c0 -67 43 -90 76 -90c45 0 59 31 72 31c4 0 6 -5 6 -14c0 -34 -32 -121 -119 -121c-81 0 -147 68 -147 158c0 175 154 297 397 297c89 0 201 -27 269 -34c37 21 76 33 119 33c65 0 103 -36 103 -74c0 -37 -34 -74 -108 -74c-26 0 -50 4 -73 10c-92 -104 -251 -324 -383 -480
c95 -53 244 -195 447 -195c123 0 115 53 141 53zM177 -8c48 0 93 35 137 90c-43 16 -86 24 -122 24c-59 0 -90 -25 -90 -61c0 -32 32 -53 75 -53z" />
    <glyph glyph-name="Zacute" unicode="&#x179;" horiz-adv-x="936" 
d="M1035 270c5 7 11 10 16 10c8 0 15 -6 15 -15c0 -4 -1 -9 -4 -13c-46 -65 -224 -322 -388 -322c-106 0 -189 64 -264 102c-72 -68 -151 -114 -242 -114c-121 0 -178 54 -178 117s57 141 187 141c63 0 123 -12 181 -32c95 142 252 351 375 471c-53 21 -142 35 -215 35
c-153 0 -260 -82 -260 -200c0 -67 42 -90 75 -90c45 0 59 31 72 31c4 0 6 -5 6 -14c0 -35 -32 -121 -118 -121c-81 0 -148 68 -148 158c0 175 151 297 394 297c89 0 199 -19 273 -34c37 21 77 33 119 33c65 0 103 -36 103 -74c0 -37 -33 -74 -107 -74c-26 0 -51 4 -74 10
c-91 -103 -252 -319 -382 -475c66 -28 125 -54 217 -54c176 0 287 147 347 227zM177 -8c48 0 93 35 137 90c-43 16 -87 24 -122 24c-59 0 -90 -25 -90 -61c0 -32 32 -53 75 -53zM728 914c20 0 61 -24 61 -63c0 -60 -90 -99 -179 -99c-28 0 -42 6 -42 16c0 31 138 27 138 127
c0 10 2 19 22 19z" />
    <glyph glyph-name="Zcaron" unicode="&#x17d;" horiz-adv-x="936" 
d="M1035 270c5 7 11 10 16 10c8 0 15 -6 15 -15c0 -4 -1 -9 -4 -13c-46 -65 -224 -322 -388 -322c-106 0 -189 64 -264 102c-72 -68 -151 -114 -242 -114c-121 0 -178 54 -178 117s57 141 187 141c63 0 123 -12 181 -32c95 142 252 351 375 471c-53 21 -142 35 -215 35
c-153 0 -260 -82 -260 -200c0 -67 42 -90 75 -90c45 0 59 31 72 31c4 0 6 -5 6 -14c0 -35 -32 -121 -118 -121c-81 0 -148 68 -148 158c0 175 151 297 394 297c89 0 199 -19 273 -34c37 21 77 33 119 33c65 0 103 -36 103 -74c0 -37 -33 -74 -107 -74c-26 0 -51 4 -74 10
c-91 -103 -252 -319 -382 -475c66 -28 125 -54 217 -54c176 0 287 147 347 227zM177 -8c48 0 93 35 137 90c-43 16 -87 24 -122 24c-59 0 -90 -25 -90 -61c0 -32 32 -53 75 -53zM648 831c-24 47 -49 44 -49 61c0 16 17 16 24 16c32 0 73 -15 100 -41c19 14 57 42 112 42
c15 0 22 -4 22 -11c0 -22 -65 -38 -129 -122c-6 -8 -22 -30 -45 -30c-34 0 -16 47 -35 85z" />
    <glyph glyph-name="Zdotaccent" unicode="&#x17b;" horiz-adv-x="936" 
d="M1035 270c5 7 11 10 16 10c8 0 15 -6 15 -15c0 -4 -1 -9 -4 -13c-46 -65 -224 -322 -388 -322c-106 0 -189 64 -264 102c-72 -68 -151 -114 -242 -114c-121 0 -178 54 -178 117s57 141 187 141c63 0 123 -12 181 -32c95 142 252 351 375 471c-53 21 -142 35 -215 35
c-153 0 -260 -82 -260 -200c0 -67 42 -90 75 -90c45 0 59 31 72 31c4 0 6 -5 6 -14c0 -35 -32 -121 -118 -121c-81 0 -148 68 -148 158c0 175 151 297 394 297c89 0 199 -19 273 -34c37 21 77 33 119 33c65 0 103 -36 103 -74c0 -37 -33 -74 -107 -74c-26 0 -51 4 -74 10
c-91 -103 -252 -319 -382 -475c66 -28 125 -54 217 -54c176 0 287 147 347 227zM177 -8c48 0 93 35 137 90c-43 16 -87 24 -122 24c-59 0 -90 -25 -90 -61c0 -32 32 -53 75 -53zM635 766c-34 0 -59 24 -59 54c0 43 43 81 91 81c34 0 56 -24 56 -53c0 -43 -42 -82 -88 -82z
" />
    <glyph glyph-name="a" unicode="a" horiz-adv-x="404" 
d="M495 270c4 5 9 8 15 8c10 0 15 -7 15 -15c0 -4 -1 -7 -3 -11c-117 -182 -166 -261 -245 -261c-33 0 -51 25 -60 54c-28 -33 -65 -54 -111 -54c-70 0 -103 45 -103 126c0 90 83 261 205 261c26 0 53 -17 67 -34c12 21 25 34 38 34c33 0 68 -17 68 -50
c0 -81 -86 -207 -86 -207c0 -36 9 -49 27 -49c40 0 113 108 173 198zM156 72c21 0 39 12 54 31c1 32 19 122 43 191c-11 6 -21 9 -31 9c-38 0 -69 -39 -89 -78c-12 -24 -23 -62 -23 -94c0 -33 12 -59 46 -59z" />
    <glyph glyph-name="a.alt5" horiz-adv-x="394" 
d="M430 -26c4 0 6 -3 6 -8c0 -13 -23 -27 -57 -27c-103 0 -139 61 -151 118c-30 -40 -70 -67 -121 -67c-71 0 -104 45 -104 126c0 90 80 261 203 261c27 0 50 -14 70 -34c13 23 27 34 38 34c30 0 68 -15 68 -48c0 -51 -32 -102 -48 -149c-7 -44 -8 -72 -8 -94
c0 -66 33 -114 85 -114c7 0 12 2 19 2zM224 121c4 54 20 129 31 172c-11 6 -22 9 -32 9c-38 0 -69 -39 -89 -78c-12 -24 -24 -62 -24 -94c0 -33 12 -59 46 -59c28 0 51 20 68 50z" />
    <glyph glyph-name="a.end" horiz-adv-x="404" 
d="M322 59c26 0 30 25 38 25c6 0 9 -8 9 -17c0 -24 -23 -76 -86 -76c-33 0 -57 25 -66 54c-28 -33 -65 -54 -111 -54c-70 0 -103 45 -103 126c0 90 83 261 205 261c26 0 53 -17 67 -34c12 21 25 34 38 34c33 0 68 -17 68 -50c0 -81 -86 -207 -86 -207c0 -36 6 -62 27 -62z
M156 72c21 0 39 12 54 31c1 32 19 122 43 191c-11 6 -21 9 -31 9c-38 0 -69 -39 -89 -78c-12 -24 -23 -62 -23 -94c0 -33 12 -59 46 -59z" />
    <glyph glyph-name="aacute" unicode="&#xe1;" horiz-adv-x="404" 
d="M495 270c4 5 9 8 15 8c10 0 15 -7 15 -15c0 -4 -1 -7 -3 -11c-117 -182 -166 -261 -245 -261c-33 0 -51 25 -60 54c-28 -33 -65 -54 -111 -54c-70 0 -103 45 -103 126c0 90 83 261 205 261c26 0 53 -17 67 -34c12 21 25 34 38 34c33 0 68 -17 68 -50
c0 -81 -86 -207 -86 -207c0 -36 9 -49 27 -49c40 0 113 108 173 198zM156 72c21 0 39 12 54 31c1 32 19 122 43 191c-11 6 -21 9 -31 9c-38 0 -69 -39 -89 -78c-12 -24 -23 -62 -23 -94c0 -33 12 -59 46 -59zM351 598c20 0 61 -24 61 -63c0 -60 -90 -99 -179 -99
c-28 0 -42 6 -42 16c0 31 138 27 138 127c0 10 2 19 22 19z" />
    <glyph glyph-name="aacute.001" horiz-adv-x="404" 
d="M322 59c26 0 30 25 38 25c6 0 9 -8 9 -17c0 -24 -23 -76 -86 -76c-33 0 -57 25 -66 54c-28 -33 -65 -54 -111 -54c-70 0 -103 45 -103 126c0 90 83 261 205 261c26 0 53 -17 67 -34c12 21 25 34 38 34c33 0 68 -17 68 -50c0 -81 -86 -207 -86 -207c0 -36 6 -62 27 -62z
M156 72c21 0 39 12 54 31c1 32 19 122 43 191c-11 6 -21 9 -31 9c-38 0 -69 -39 -89 -78c-12 -24 -23 -62 -23 -94c0 -33 12 -59 46 -59zM351 598c20 0 61 -24 61 -63c0 -60 -90 -99 -179 -99c-28 0 -42 6 -42 16c0 31 138 27 138 127c0 10 2 19 22 19z" />
    <glyph glyph-name="abreve" unicode="&#x103;" horiz-adv-x="404" 
d="M495 270c4 5 9 8 15 8c10 0 15 -7 15 -15c0 -4 -1 -7 -3 -11c-117 -182 -166 -261 -245 -261c-33 0 -51 25 -60 54c-28 -33 -65 -54 -111 -54c-70 0 -103 45 -103 126c0 90 83 261 205 261c26 0 53 -17 67 -34c12 21 25 34 38 34c33 0 68 -17 68 -50
c0 -81 -86 -207 -86 -207c0 -36 9 -49 27 -49c40 0 113 108 173 198zM156 72c21 0 39 12 54 31c1 32 19 122 43 191c-11 6 -21 9 -31 9c-38 0 -69 -39 -89 -78c-12 -24 -23 -62 -23 -94c0 -33 12 -59 46 -59zM254 568c0 -7 -2 -11 -2 -21c0 -27 18 -46 55 -46
c47 0 68 31 81 55c8 14 13 22 23 22c9 0 14 -7 14 -20c0 -44 -51 -129 -149 -129c-66 0 -95 39 -95 78c0 45 37 72 60 72c7 0 13 -2 13 -11z" />
    <glyph glyph-name="abreve.001" horiz-adv-x="404" 
d="M322 59c26 0 30 25 38 25c6 0 9 -8 9 -17c0 -24 -23 -76 -86 -76c-33 0 -57 25 -66 54c-28 -33 -65 -54 -111 -54c-70 0 -103 45 -103 126c0 90 83 261 205 261c26 0 53 -17 67 -34c12 21 25 34 38 34c33 0 68 -17 68 -50c0 -81 -86 -207 -86 -207c0 -36 6 -62 27 -62z
M156 72c21 0 39 12 54 31c1 32 19 122 43 191c-11 6 -21 9 -31 9c-38 0 -69 -39 -89 -78c-12 -24 -23 -62 -23 -94c0 -33 12 -59 46 -59zM254 568c0 -7 -2 -11 -2 -21c0 -27 18 -46 55 -46c47 0 68 31 81 55c8 14 13 22 23 22c9 0 14 -7 14 -20c0 -44 -51 -129 -149 -129
c-66 0 -95 39 -95 78c0 45 37 72 60 72c7 0 13 -2 13 -11z" />
    <glyph glyph-name="acircumflex" unicode="&#xe2;" horiz-adv-x="404" 
d="M495 270c4 5 9 8 15 8c10 0 15 -7 15 -15c0 -4 -1 -7 -3 -11c-117 -182 -166 -261 -245 -261c-33 0 -51 25 -60 54c-28 -33 -65 -54 -111 -54c-70 0 -103 45 -103 126c0 90 83 261 205 261c26 0 53 -17 67 -34c12 21 25 34 38 34c33 0 68 -17 68 -50
c0 -81 -86 -207 -86 -207c0 -36 9 -49 27 -49c40 0 113 108 173 198zM156 72c21 0 39 12 54 31c1 32 19 122 43 191c-11 6 -21 9 -31 9c-38 0 -69 -39 -89 -78c-12 -24 -23 -62 -23 -94c0 -33 12 -59 46 -59zM342 513c24 -47 49 -44 49 -61c0 -16 -17 -16 -24 -16
c-32 0 -62 13 -89 39c-71 -27 -84 -40 -123 -40c-15 0 -22 4 -22 11c0 22 99 31 134 122c4 9 17 30 40 30c34 0 16 -47 35 -85z" />
    <glyph glyph-name="acircumflex.001" horiz-adv-x="404" 
d="M322 59c26 0 30 25 38 25c6 0 9 -8 9 -17c0 -24 -23 -76 -86 -76c-33 0 -57 25 -66 54c-28 -33 -65 -54 -111 -54c-70 0 -103 45 -103 126c0 90 83 261 205 261c26 0 53 -17 67 -34c12 21 25 34 38 34c33 0 68 -17 68 -50c0 -81 -86 -207 -86 -207c0 -36 6 -62 27 -62z
M156 72c21 0 39 12 54 31c1 32 19 122 43 191c-11 6 -21 9 -31 9c-38 0 -69 -39 -89 -78c-12 -24 -23 -62 -23 -94c0 -33 12 -59 46 -59zM342 513c24 -47 49 -44 49 -61c0 -16 -17 -16 -24 -16c-32 0 -62 13 -89 39c-71 -27 -84 -40 -123 -40c-15 0 -22 4 -22 11
c0 22 99 31 134 122c4 9 17 30 40 30c34 0 16 -47 35 -85z" />
    <glyph glyph-name="acute" unicode="&#xb4;" horiz-adv-x="336" 
d="M237 598c20 0 61 -24 61 -63c0 -60 -90 -99 -179 -99c-28 0 -42 6 -42 16c0 31 138 27 138 127c0 10 2 19 22 19z" />
    <glyph glyph-name="adieresis" unicode="&#xe4;" horiz-adv-x="404" 
d="M495 270c4 5 9 8 15 8c10 0 15 -7 15 -15c0 -4 -1 -7 -3 -11c-117 -182 -166 -261 -245 -261c-33 0 -51 25 -60 54c-28 -33 -65 -54 -111 -54c-70 0 -103 45 -103 126c0 90 83 261 205 261c26 0 53 -17 67 -34c12 21 25 34 38 34c33 0 68 -17 68 -50
c0 -81 -86 -207 -86 -207c0 -36 9 -49 27 -49c40 0 113 108 173 198zM156 72c21 0 39 12 54 31c1 32 19 122 43 191c-11 6 -21 9 -31 9c-38 0 -69 -39 -89 -78c-12 -24 -23 -62 -23 -94c0 -33 12 -59 46 -59zM186 428c-27 0 -47 21 -47 46c0 35 37 64 71 64
c27 0 44 -19 44 -42c0 -36 -32 -65 -68 -68zM336 428c-26 0 -46 18 -46 44c0 36 35 66 71 66c27 0 43 -19 43 -42c0 -36 -33 -65 -68 -68z" />
    <glyph glyph-name="adieresis.001" horiz-adv-x="404" 
d="M322 59c26 0 30 25 38 25c6 0 9 -8 9 -17c0 -24 -23 -76 -86 -76c-33 0 -57 25 -66 54c-28 -33 -65 -54 -111 -54c-70 0 -103 45 -103 126c0 90 83 261 205 261c26 0 53 -17 67 -34c12 21 25 34 38 34c33 0 68 -17 68 -50c0 -81 -86 -207 -86 -207c0 -36 6 -62 27 -62z
M156 72c21 0 39 12 54 31c1 32 19 122 43 191c-11 6 -21 9 -31 9c-38 0 -69 -39 -89 -78c-12 -24 -23 -62 -23 -94c0 -33 12 -59 46 -59zM186 428c-27 0 -47 21 -47 46c0 35 37 64 71 64c27 0 44 -19 44 -42c0 -36 -32 -65 -68 -68zM336 428c-26 0 -46 18 -46 44
c0 36 35 66 71 66c27 0 43 -19 43 -42c0 -36 -33 -65 -68 -68z" />
    <glyph glyph-name="ae" unicode="&#xe6;" horiz-adv-x="517" 
d="M196 378c40 0 75 -24 97 -43c30 26 67 43 109 43c63 0 90 -37 90 -74c0 -61 -74 -153 -165 -221c12 -12 28 -18 47 -18c80 0 168 115 236 205c5 6 10 8 15 8c7 0 15 -5 15 -16c0 -4 -1 -7 -3 -10c-112 -161 -190 -261 -303 -261c-38 0 -72 11 -97 35
c-43 -22 -87 -35 -124 -35c-70 0 -109 48 -109 120c0 108 87 267 192 267zM227 320c-79 0 -122 -127 -122 -188c0 -34 13 -76 55 -76c13 0 31 4 51 12c-6 17 -9 36 -9 58c0 58 22 128 63 179c-12 9 -24 15 -38 15zM298 168c0 -16 2 -31 5 -44c55 42 102 99 102 149
c0 27 -14 43 -33 43c-44 0 -74 -83 -74 -148z" />
    <glyph glyph-name="ae.001" horiz-adv-x="517" 
d="M196 378c40 0 75 -24 97 -43c30 26 67 43 109 43c63 0 90 -37 90 -74c0 -61 -74 -153 -165 -221c12 -12 28 -18 47 -18c46 0 89 28 129 58c4 3 10 5 14 5c7 0 11 -3 11 -10c0 -3 -1 -5 -2 -7c-60 -74 -120 -120 -192 -120c-38 0 -72 11 -97 35c-43 -22 -87 -35 -124 -35
c-70 0 -109 48 -109 120c0 108 87 267 192 267zM227 320c-79 0 -122 -127 -122 -188c0 -34 13 -76 55 -76c13 0 31 4 51 12c-6 17 -9 36 -9 58c0 58 22 128 63 179c-12 9 -24 15 -38 15zM298 168c0 -16 2 -31 5 -44c55 42 102 99 102 149c0 27 -14 43 -33 43
c-44 0 -74 -83 -74 -148z" />
    <glyph glyph-name="agrave" unicode="&#xe0;" horiz-adv-x="404" 
d="M495 270c4 5 9 8 15 8c10 0 15 -7 15 -15c0 -4 -1 -7 -3 -11c-117 -182 -166 -261 -245 -261c-33 0 -51 25 -60 54c-28 -33 -65 -54 -111 -54c-70 0 -103 45 -103 126c0 90 83 261 205 261c26 0 53 -17 67 -34c12 21 25 34 38 34c33 0 68 -17 68 -50
c0 -81 -86 -207 -86 -207c0 -36 9 -49 27 -49c40 0 113 108 173 198zM156 72c21 0 39 12 54 31c1 32 19 122 43 191c-11 6 -21 9 -31 9c-38 0 -69 -39 -89 -78c-12 -24 -23 -62 -23 -94c0 -33 12 -59 46 -59zM232 598c8 0 10 -4 10 -10c0 -4 -1 -10 -1 -16
c0 -78 152 -89 152 -120c0 -10 -14 -16 -43 -16c-89 0 -179 39 -179 99c0 39 42 63 61 63z" />
    <glyph glyph-name="agrave.001" horiz-adv-x="404" 
d="M322 59c26 0 30 25 38 25c6 0 9 -8 9 -17c0 -24 -23 -76 -86 -76c-33 0 -57 25 -66 54c-28 -33 -65 -54 -111 -54c-70 0 -103 45 -103 126c0 90 83 261 205 261c26 0 53 -17 67 -34c12 21 25 34 38 34c33 0 68 -17 68 -50c0 -81 -86 -207 -86 -207c0 -36 6 -62 27 -62z
M156 72c21 0 39 12 54 31c1 32 19 122 43 191c-11 6 -21 9 -31 9c-38 0 -69 -39 -89 -78c-12 -24 -23 -62 -23 -94c0 -33 12 -59 46 -59zM232 598c8 0 10 -4 10 -10c0 -4 -1 -10 -1 -16c0 -78 152 -89 152 -120c0 -10 -14 -16 -43 -16c-89 0 -179 39 -179 99
c0 39 42 63 61 63z" />
    <glyph glyph-name="amacron" unicode="&#x101;" horiz-adv-x="404" 
d="M495 270c4 5 9 8 15 8c10 0 15 -7 15 -15c0 -4 -1 -7 -3 -11c-117 -182 -166 -261 -245 -261c-33 0 -51 25 -60 54c-28 -33 -65 -54 -111 -54c-70 0 -103 45 -103 126c0 90 83 261 205 261c26 0 53 -17 67 -34c12 21 25 34 38 34c33 0 68 -17 68 -50
c0 -81 -86 -207 -86 -207c0 -36 9 -49 27 -49c40 0 113 108 173 198zM156 72c21 0 39 12 54 31c1 32 19 122 43 191c-11 6 -21 9 -31 9c-38 0 -69 -39 -89 -78c-12 -24 -23 -62 -23 -94c0 -33 12 -59 46 -59zM266 507c49 0 75 0 111 9c35 10 45 16 55 16c5 0 7 -7 7 -14
c0 -34 -28 -83 -80 -83c-87 0 -164 9 -210 9c-17 0 -34 8 -34 26c0 16 36 44 61 44c24 0 41 -7 90 -7z" />
    <glyph glyph-name="amacron.001" horiz-adv-x="404" 
d="M322 59c26 0 30 25 38 25c6 0 9 -8 9 -17c0 -24 -23 -76 -86 -76c-33 0 -57 25 -66 54c-28 -33 -65 -54 -111 -54c-70 0 -103 45 -103 126c0 90 83 261 205 261c26 0 53 -17 67 -34c12 21 25 34 38 34c33 0 68 -17 68 -50c0 -81 -86 -207 -86 -207c0 -36 6 -62 27 -62z
M156 72c21 0 39 12 54 31c1 32 19 122 43 191c-11 6 -21 9 -31 9c-38 0 -69 -39 -89 -78c-12 -24 -23 -62 -23 -94c0 -33 12 -59 46 -59zM266 507c49 0 75 0 111 9c35 10 45 16 55 16c5 0 7 -7 7 -14c0 -34 -28 -83 -80 -83c-87 0 -164 9 -210 9c-17 0 -34 8 -34 26
c0 16 36 44 61 44c24 0 41 -7 90 -7z" />
    <glyph glyph-name="ampersand" unicode="&#x26;" horiz-adv-x="915" 
d="M585 383c0 8 16 16 35 16c32 0 75 -22 75 -100c0 -6 0 -12 -1 -18c74 16 108 43 108 66c0 6 -2 12 -7 17c-2 2 -3 4 -3 6c0 9 21 17 44 17c32 0 69 -14 69 -54c0 -66 -85 -98 -220 -108c-39 -150 -191 -296 -400 -296c-144 0 -247 64 -247 174c0 122 118 214 245 261
c-27 27 -46 64 -47 115c-110 28 -157 78 -157 120c0 62 78 112 186 112c7 0 10 -1 10 -2c0 -6 -56 -25 -56 -76c0 -27 14 -53 41 -74c56 89 204 154 337 154c132 0 168 -46 168 -100s-70 -156 -326 -156c-29 0 -55 1 -80 3c5 -32 15 -54 27 -69c25 4 49 7 72 7
c43 0 65 -21 65 -43c0 -24 -28 -50 -86 -50c-29 0 -63 5 -95 19c-63 -29 -131 -80 -131 -164c0 -79 60 -123 135 -123c127 0 220 71 259 184h-8c-140 -3 -170 -28 -170 -51c0 -11 11 -20 11 -29c0 -24 -41 -29 -58 -29c-34 0 -69 14 -73 57v4c0 49 69 96 244 96
c24 0 46 1 67 2c1 9 2 18 2 25c0 57 -35 70 -35 87zM551 661c-114 0 -182 -74 -193 -144c20 -4 42 -6 65 -6c80 0 142 18 176 54c13 14 20 31 20 47c0 26 -20 49 -68 49z" />
    <glyph glyph-name="ampersand.alt" horiz-adv-x="915" 
d="M752 158c0 9 21 18 46 18c50 0 99 -38 99 -105c0 -70 -54 -122 -146 -122c-54 0 -121 18 -164 105c-72 -75 -176 -127 -305 -127c-141 0 -244 63 -244 177c0 127 128 212 245 257c-27 27 -47 65 -47 116c-110 28 -157 77 -157 122c0 60 83 110 193 110c2 0 3 0 3 -2
c0 -6 -56 -25 -56 -76c0 -26 15 -52 41 -73c60 91 203 153 343 153c127 0 162 -51 162 -95c0 -62 -70 -161 -328 -161c-26 0 -53 1 -78 3c5 -32 15 -54 28 -69c27 5 52 7 67 7c47 0 68 -21 68 -42c0 -25 -28 -51 -86 -51c-28 0 -63 6 -96 20c-67 -30 -140 -87 -140 -172
c0 -67 46 -120 143 -120c87 0 169 42 213 99c-9 32 -14 60 -17 86c-90 -8 -111 -26 -111 -45c0 -15 14 -32 14 -40c0 -11 -31 -21 -58 -21c-37 0 -77 20 -77 61c0 48 66 94 231 96c4 61 28 131 85 131c32 0 73 -22 73 -99c0 -6 0 -12 -1 -19c74 16 107 43 107 65
c0 13 -10 18 -10 23c0 9 20 17 44 17c33 0 69 -14 69 -55c0 -62 -82 -96 -220 -107c-10 -40 -29 -79 -54 -116c24 -34 52 -54 83 -54c27 0 59 16 59 54c0 31 -21 42 -21 51zM545 659c-102 0 -176 -73 -187 -144c20 -4 41 -6 66 -6c79 0 143 19 175 54c13 14 20 31 20 47
c0 26 -17 49 -74 49zM611 330c-8 0 -17 -23 -18 -62c9 0 17 1 26 1c1 10 2 19 2 28c0 19 -4 33 -10 33zM606 219h-10c0 -6 1 -11 2 -17c3 5 6 11 8 17z" />
    <glyph glyph-name="ampersand.alt2" horiz-adv-x="915" 
d="M758 167c13 8 27 12 42 12c47 0 98 -38 98 -105c0 -70 -55 -122 -147 -122c-54 0 -121 18 -164 104c-72 -74 -177 -126 -302 -126c-144 0 -247 64 -247 174c0 132 127 214 245 259c-27 27 -47 65 -47 117c-110 28 -157 78 -157 120c0 62 78 112 186 112c7 0 10 -1 10 -2
c0 -6 -56 -25 -56 -76c0 -27 15 -53 41 -74c57 89 205 154 337 154s168 -46 168 -100s-70 -156 -326 -156c-29 0 -55 1 -80 2c5 -32 15 -54 28 -69c27 5 51 8 71 8c43 0 65 -21 65 -43c0 -24 -28 -50 -86 -50c-29 0 -64 6 -97 20c-67 -31 -129 -82 -129 -165
c0 -79 60 -123 135 -123c90 0 162 35 210 95c-14 46 -18 87 -18 122c0 69 28 146 82 146c36 0 76 -22 76 -98c0 -13 -2 -27 -4 -43c-7 -51 -28 -103 -61 -150c23 -33 53 -54 80 -54c48 0 62 33 62 50c0 40 -21 47 -21 54c0 2 2 4 6 7zM551 662c-114 0 -181 -74 -193 -144
c20 -4 42 -6 65 -6c58 0 196 17 196 101c0 26 -20 49 -68 49zM611 333c-9 0 -18 -25 -18 -68c0 -18 2 -38 5 -61c16 31 23 70 23 97c0 19 -4 32 -10 32z" />
    <glyph glyph-name="aogonek" unicode="&#x105;" horiz-adv-x="404" 
d="M495 270c4 5 9 8 15 8c10 0 15 -7 15 -15c0 -4 -1 -7 -3 -11c-99 -154 -140 -205 -213 -260c-46 -35 -76 -87 -76 -118c0 -51 45 -45 45 -61c0 -28 -37 -59 -82 -59c-47 0 -76 32 -76 79c0 60 65 127 122 170c-12 10 -20 25 -25 42c-28 -33 -65 -54 -111 -54
c-70 0 -103 45 -103 126c0 90 83 261 205 261c26 0 53 -17 67 -34c12 21 25 34 38 34c33 0 68 -17 68 -50c0 -81 -86 -207 -86 -207c0 -36 9 -49 27 -49c40 0 113 108 173 198zM156 72c21 0 39 12 54 31c1 32 19 122 43 191c-11 6 -21 9 -31 9c-38 0 -69 -39 -89 -78
c-12 -24 -23 -62 -23 -94c0 -33 12 -59 46 -59z" />
    <glyph glyph-name="aogonek.001" horiz-adv-x="404" 
d="M322 59c26 0 30 25 38 25c6 0 9 -8 9 -17c0 -18 -14 -49 -45 -67c-51 -30 -83 -94 -83 -126c0 -51 45 -45 45 -61c0 -28 -37 -59 -82 -59c-47 0 -76 32 -76 79c0 59 64 126 120 168c-15 10 -26 26 -31 44c-28 -33 -65 -54 -111 -54c-70 0 -103 45 -103 126
c0 90 83 261 205 261c26 0 53 -17 67 -34c12 21 25 34 38 34c33 0 68 -17 68 -50c0 -81 -86 -207 -86 -207c0 -36 6 -62 27 -62zM156 72c21 0 39 12 54 31c1 32 19 122 43 191c-11 6 -21 9 -31 9c-38 0 -69 -39 -89 -78c-12 -24 -23 -62 -23 -94c0 -33 12 -59 46 -59z" />
    <glyph glyph-name="aring" unicode="&#xe5;" horiz-adv-x="404" 
d="M495 270c4 5 9 8 15 8c10 0 15 -7 15 -15c0 -4 -1 -7 -3 -11c-117 -182 -166 -261 -245 -261c-33 0 -51 25 -60 54c-28 -33 -65 -54 -111 -54c-70 0 -103 45 -103 126c0 90 83 261 205 261c26 0 53 -17 67 -34c12 21 25 34 38 34c33 0 68 -17 68 -50
c0 -81 -86 -207 -86 -207c0 -36 9 -49 27 -49c40 0 113 108 173 198zM156 72c21 0 39 12 54 31c1 32 19 122 43 191c-11 6 -21 9 -31 9c-38 0 -69 -39 -89 -78c-12 -24 -23 -62 -23 -94c0 -33 12 -59 46 -59zM301 584c35 0 51 -27 51 -49c0 -60 -39 -106 -83 -106
c-45 0 -58 30 -58 56c0 45 40 99 90 99zM285 479c7 0 26 15 26 38c0 11 -9 19 -21 19c-11 0 -25 -20 -25 -37c0 -9 4 -20 20 -20z" />
    <glyph glyph-name="aring.001" horiz-adv-x="404" 
d="M322 59c26 0 30 25 38 25c6 0 9 -8 9 -17c0 -24 -23 -76 -86 -76c-33 0 -57 25 -66 54c-28 -33 -65 -54 -111 -54c-70 0 -103 45 -103 126c0 90 83 261 205 261c26 0 53 -17 67 -34c12 21 25 34 38 34c33 0 68 -17 68 -50c0 -81 -86 -207 -86 -207c0 -36 6 -62 27 -62z
M156 72c21 0 39 12 54 31c1 32 19 122 43 191c-11 6 -21 9 -31 9c-38 0 -69 -39 -89 -78c-12 -24 -23 -62 -23 -94c0 -33 12 -59 46 -59zM301 584c35 0 51 -27 51 -49c0 -60 -39 -106 -83 -106c-45 0 -58 30 -58 56c0 45 40 99 90 99zM285 479c7 0 26 15 26 38
c0 11 -9 19 -21 19c-11 0 -25 -20 -25 -37c0 -9 4 -20 20 -20z" />
    <glyph glyph-name="asciicircum" unicode="^" horiz-adv-x="408" 
d="M317 685c5 -9 45 -78 69 -102c27 -28 43 -32 52 -32c6 0 9 -8 9 -17c0 -42 -35 -100 -99 -100c-17 0 -59 75 -93 163c-51 -76 -73 -122 -80 -131c-24 -24 -60 -30 -82 -30c-16 0 -24 3 -24 15c0 26 98 111 162 199c25 34 48 54 67 54c12 0 14 -10 19 -19z" />
    <glyph glyph-name="asciitilde" unicode="~" horiz-adv-x="458" 
d="M308 280c60 0 113 63 125 63c6 0 9 -8 9 -17c0 -42 -61 -140 -130 -140c-75 0 -105 61 -155 61c-35 0 -88 -40 -107 -40c-7 0 -10 3 -10 9c0 20 82 110 132 110c56 0 77 -46 136 -46z" />
    <glyph glyph-name="asterisk" unicode="*" horiz-adv-x="387" 
d="M98 388c0 17 40 1 119 104c-18 4 -32 6 -38 6c-11 0 -23 -7 -33 -7c-18 0 -35 8 -35 25c0 16 37 43 63 43c20 0 35 -7 65 -9c4 53 20 135 75 135c25 0 31 -13 31 -29s-8 -34 -8 -34c-12 -27 -18 -50 -20 -72c23 2 43 6 66 12c37 9 47 22 57 22c5 0 8 -7 8 -14
c0 -33 -30 -98 -84 -98c-12 0 -26 1 -40 2c17 -52 54 -81 54 -88c0 -23 -33 -48 -71 -48c-39 0 -57 48 -64 93c-26 -43 -58 -69 -100 -69c-25 0 -45 9 -45 26z" />
    <glyph glyph-name="at" unicode="@" horiz-adv-x="686" 
d="M475 538c120 0 211 -63 211 -192c0 -157 -135 -355 -243 -355c-38 0 -62 24 -71 54c-27 -33 -63 -54 -108 -54c-68 0 -100 49 -100 116c0 115 93 271 200 271c36 0 58 -18 72 -34c15 24 22 34 44 34c27 0 62 -14 62 -59c0 -70 -86 -182 -86 -216c0 -11 9 -40 28 -40
c39 0 124 113 124 245c0 105 -53 172 -155 172c-172 0 -365 -171 -365 -388c0 -89 40 -194 201 -194c143 0 222 84 245 84c6 0 8 -7 8 -10c0 -22 -139 -156 -316 -156c-178 0 -238 134 -238 231c0 185 221 491 487 491zM316 72c22 0 40 12 55 31c1 32 19 122 43 191
c-11 6 -21 9 -31 9c-39 0 -72 -43 -89 -78c-13 -27 -23 -63 -23 -94c0 -33 12 -59 45 -59z" />
    <glyph glyph-name="atilde" unicode="&#xe3;" horiz-adv-x="404" 
d="M495 270c4 5 9 8 15 8c10 0 15 -7 15 -15c0 -4 -1 -7 -3 -11c-117 -182 -166 -261 -245 -261c-33 0 -51 25 -60 54c-28 -33 -65 -54 -111 -54c-70 0 -103 45 -103 126c0 90 83 261 205 261c26 0 53 -17 67 -34c12 21 25 34 38 34c33 0 68 -17 68 -50
c0 -81 -86 -207 -86 -207c0 -36 9 -49 27 -49c40 0 113 108 173 198zM156 72c21 0 39 12 54 31c1 32 19 122 43 191c-11 6 -21 9 -31 9c-38 0 -69 -39 -89 -78c-12 -24 -23 -62 -23 -94c0 -33 12 -59 46 -59zM148 455c-6 0 -9 7 -9 23c0 36 27 81 81 81c42 0 72 -38 104 -38
c40 0 46 27 53 27c4 0 8 -1 8 -15c0 -37 -28 -87 -85 -87c-50 0 -60 37 -99 37c-34 0 -43 -28 -53 -28z" />
    <glyph glyph-name="atilde.001" horiz-adv-x="404" 
d="M322 59c26 0 30 25 38 25c6 0 9 -8 9 -17c0 -24 -23 -76 -86 -76c-33 0 -57 25 -66 54c-28 -33 -65 -54 -111 -54c-70 0 -103 45 -103 126c0 90 83 261 205 261c26 0 53 -17 67 -34c12 21 25 34 38 34c33 0 68 -17 68 -50c0 -81 -86 -207 -86 -207c0 -36 6 -62 27 -62z
M156 72c21 0 39 12 54 31c1 32 19 122 43 191c-11 6 -21 9 -31 9c-38 0 -69 -39 -89 -78c-12 -24 -23 -62 -23 -94c0 -33 12 -59 46 -59zM148 455c-6 0 -9 7 -9 23c0 36 27 81 81 81c42 0 72 -38 104 -38c40 0 46 27 53 27c4 0 8 -1 8 -15c0 -37 -28 -87 -85 -87
c-50 0 -60 37 -99 37c-34 0 -43 -28 -53 -28z" />
    <glyph glyph-name="b" unicode="b" horiz-adv-x="399" 
d="M517 297c0 0 -54 -58 -149 -82c-13 -106 -108 -224 -218 -224c-73 0 -125 52 -125 146c0 152 135 574 272 574c35 0 56 -27 56 -75c0 -119 -130 -289 -204 -385c-5 -27 -12 -43 -12 -76c0 -47 14 -90 57 -90c54 0 109 67 126 124h-5c-63 0 -108 50 -108 94
c0 39 34 75 76 75c47 0 87 -45 88 -118c32 5 93 34 128 64c4 3 9 4 12 4c10 0 14 -7 14 -14c0 -6 -3 -12 -8 -17zM282 567c-29 0 -109 -225 -109 -225c67 96 115 186 115 215c0 5 -2 10 -6 10zM281 287c0 -17 18 -30 47 -32c-1 34 -19 49 -32 49c-8 0 -15 -6 -15 -17z" />
    <glyph glyph-name="b.alt1" horiz-adv-x="399" 
d="M511 328c10 0 14 -7 14 -14c0 -6 -3 -12 -8 -17c0 0 -54 -57 -149 -80c-13 -107 -108 -226 -218 -226c-73 0 -125 52 -125 146c0 152 135 574 272 574c35 0 56 -27 56 -75c0 -92 -81 -241 -196 -337c-12 -46 -20 -90 -20 -124c0 -47 14 -90 57 -90c54 0 108 66 125 122
h-5c-63 0 -108 52 -108 96c0 39 34 75 76 75c48 0 88 -45 89 -118c32 5 93 34 128 64c4 3 9 4 12 4zM287 582c-18 0 -70 -103 -108 -214c75 77 114 170 114 204c0 5 -2 10 -6 10zM281 287c0 -17 18 -30 47 -32c-1 34 -19 49 -32 49c-8 0 -15 -6 -15 -17z" />
    <glyph glyph-name="b.alt1.end" horiz-adv-x="399" 
d="M391 310c13 0 42 -5 42 -36c0 -26 -33 -48 -65 -56c-14 -108 -108 -227 -218 -227c-73 0 -125 52 -125 146c0 152 135 574 272 574c35 0 56 -27 56 -75c0 -92 -81 -241 -196 -337c-12 -46 -20 -90 -20 -124c0 -47 14 -90 57 -90c55 0 111 71 128 131h-5
c-63 0 -108 43 -108 87c0 39 34 75 76 75c46 0 85 -47 87 -118c11 5 20 15 20 27c0 10 -9 16 -9 19c0 4 4 4 8 4zM287 582c-18 0 -70 -103 -108 -214c75 77 114 170 114 204c0 5 -2 10 -6 10zM281 287c0 -17 18 -30 47 -32c-1 34 -19 49 -32 49c-8 0 -15 -6 -15 -17z" />
    <glyph glyph-name="b.alt2" horiz-adv-x="399" 
d="M285 378c32 0 86 -25 86 -126c0 -16 -2 -32 -6 -49c32 -9 66 -12 92 -12c11 0 24 -9 24 -20c0 -12 -14 -20 -24 -20c-24 0 -63 3 -103 13c-33 -89 -109 -173 -204 -173c-73 0 -125 52 -125 146c0 152 135 574 272 574c35 0 56 -27 56 -75c0 -119 -130 -289 -204 -385
c-5 -27 -12 -43 -12 -76c0 -47 14 -90 57 -90s89 46 114 93c-54 22 -99 60 -99 125c0 39 34 75 76 75zM282 567c-29 0 -109 -225 -109 -225c67 96 115 186 115 215c0 5 -2 10 -6 10zM281 287c0 -30 18 -51 43 -66c2 8 3 15 3 22c0 51 -21 61 -31 61c-8 0 -15 -6 -15 -17z
" />
    <glyph glyph-name="b.alt3" horiz-adv-x="399" 
d="M150 -9c-73 0 -125 52 -125 146c0 152 135 574 272 574c35 0 56 -27 56 -75c0 -92 -81 -241 -196 -337c-12 -46 -20 -90 -20 -124c0 -47 14 -90 57 -90s89 46 114 93c-54 22 -99 60 -99 125c0 39 34 75 76 75c32 0 86 -25 86 -126c0 -16 -2 -32 -6 -49
c32 -9 66 -12 92 -12c11 0 24 -9 24 -20c0 -12 -14 -20 -24 -20c-24 0 -63 3 -103 13c-33 -89 -109 -173 -204 -173zM287 582c-18 0 -70 -103 -108 -214c75 77 114 170 114 204c0 5 -2 10 -6 10zM281 287c0 -30 18 -51 43 -66c2 8 3 15 3 22c0 51 -21 61 -31 61
c-8 0 -15 -6 -15 -17z" />
    <glyph glyph-name="b.end" horiz-adv-x="399" 
d="M391 310c13 0 42 -5 42 -36c0 -26 -32 -48 -64 -56c-12 -115 -115 -227 -219 -227c-73 0 -125 52 -125 146c0 152 135 574 272 574c35 0 56 -27 56 -75c0 -119 -130 -289 -204 -385c-5 -27 -12 -43 -12 -76c0 -47 14 -90 57 -90c55 0 111 71 128 131h-5
c-63 0 -108 43 -108 87c0 39 34 75 79 75c41 0 77 -44 82 -119c12 5 22 15 22 28c0 10 -9 16 -9 19c0 4 4 4 8 4zM282 567c-29 0 -109 -225 -109 -225c67 96 115 186 115 215c0 5 -2 10 -6 10zM281 287c0 -17 18 -30 47 -32c-1 34 -19 49 -32 49c-8 0 -15 -6 -15 -17z" />
    <glyph glyph-name="backslash" unicode="\" horiz-adv-x="392" 
d="M254 -100c-24 64 -175 780 -175 822c0 4 2 7 6 7c12 0 45 -13 51 -31c12 -25 75 -326 152 -520c114 -286 134 -282 134 -306c0 -23 -57 -31 -80 -31c-30 0 -59 20 -88 59z" />
    <glyph glyph-name="bar" unicode="|" horiz-adv-x="211" 
d="M274 711c52 0 67 -37 67 -69c0 -6 -2 -9 -10 -9c-181 0 -167 -944 -345 -944c-52 0 -67 37 -67 69c0 6 2 9 10 9c87 0 132 944 345 944z" />
    <glyph glyph-name="braceleft" unicode="{" horiz-adv-x="225" 
d="M25 161c17 50 58 90 59 147c-21 0 -36 11 -36 30c0 21 16 31 36 31c5 0 11 -1 16 -2c13 45 5 102 29 170c29 83 132 155 243 155c19 0 22 -3 22 -8c0 -8 -11 -12 -23 -15c-48 -14 -110 -37 -131 -177c-7 -44 -34 -113 -98 -160c13 -23 18 -53 18 -84
c0 -69 -34 -131 -34 -202c0 -37 11 -73 45 -103c20 -17 34 -19 34 -28c0 -8 -13 -11 -32 -11c-86 0 -161 80 -161 183c0 24 4 49 13 74z" />
    <glyph glyph-name="braceright" unicode="}" horiz-adv-x="250" 
d="M309 544c0 -57 -40 -136 -56 -176c4 1 8 1 11 1c21 0 36 -11 36 -27c0 -23 -20 -35 -44 -35c-5 0 -11 1 -16 2c-22 -54 -19 -120 -46 -216c-29 -102 -150 -186 -263 -186c-18 0 -21 8 -21 12c0 7 11 10 24 13c51 16 116 42 151 212c11 54 40 138 108 193
c-14 17 -20 39 -20 62c0 64 51 115 51 180c0 27 -12 53 -47 76c-19 12 -32 14 -32 22c0 7 11 9 27 9c84 0 137 -56 137 -142z" />
    <glyph glyph-name="bracketleft" unicode="[" horiz-adv-x="268" 
d="M-66 -87c0 33 85 317 108 385c23 69 144 338 158 364c7 13 18 19 29 19c12 0 30 -10 63 -10c22 0 99 4 114 4c12 0 16 -5 16 -14c0 -10 -12 -49 -31 -56c-8 -3 -17 -4 -27 -4c-26 0 -60 8 -97 19c0 0 -116 -302 -189 -638c0 0 112 41 150 41c5 0 8 -1 10 -2
c5 -3 7 -12 7 -22c0 -27 -7 -64 -15 -70c-18 -14 -67 -7 -163 -28c-40 -9 -73 -16 -91 -16c-23 0 -42 4 -42 28z" />
    <glyph glyph-name="bracketright" unicode="]" horiz-adv-x="384" 
d="M449 674c0 -21 -90 -264 -108 -334c-38 -146 -98 -339 -112 -416c-3 -14 -19 -19 -30 -19c-12 0 -71 10 -104 10c-63 0 -121 -8 -136 -8c-12 0 -16 5 -16 14c0 10 17 80 36 87c8 3 17 4 27 4c26 0 84 -6 121 -17c0 0 102 387 214 619c0 0 -145 -27 -183 -27
c-13 0 -17 14 -17 24c0 27 24 58 37 58c151 0 177 34 229 34c23 0 42 -5 42 -29z" />
    <glyph glyph-name="breve" unicode="&#x2d8;" horiz-adv-x="308" 
d="M111 568c0 -7 -2 -11 -2 -21c0 -27 18 -46 55 -46c47 0 68 31 81 55c8 14 13 22 23 22c9 0 14 -7 14 -20c0 -44 -51 -129 -149 -129c-66 0 -95 39 -95 78c0 45 37 72 60 72c7 0 13 -2 13 -11z" />
    <glyph glyph-name="brokenbar" unicode="&#xa6;" horiz-adv-x="211" 
d="M28 112c19 58 65 74 99 74c23 0 41 -7 41 -13c0 -3 -27 -11 -31 -55c-11 -127 -46 -428 -148 -428c-52 0 -67 37 -67 69c0 6 2 9 10 9c39 0 83 302 96 344zM185 300c-19 -58 -65 -74 -99 -74c-23 0 -41 7 -41 13c0 13 16 13 30 76c35 154 102 400 204 400
c52 0 67 -37 67 -69c0 -6 -2 -9 -10 -9c-81 0 -138 -295 -151 -337z" />
    <glyph glyph-name="bullet" unicode="&#x2022;" horiz-adv-x="200" 
d="M102 149c-41 0 -71 29 -71 65c0 53 52 99 110 99c42 0 68 -29 68 -65c0 -52 -51 -99 -107 -99z" />
    <glyph glyph-name="c" unicode="c" horiz-adv-x="343" 
d="M242 378c55 0 96 -36 96 -86c0 -54 -44 -88 -82 -88c-31 0 -54 25 -54 53c0 33 12 40 12 46c0 3 -6 7 -20 7c-45 0 -89 -84 -89 -145c0 -54 27 -91 74 -91c97 0 191 115 254 196c5 6 11 9 16 9c8 0 15 -6 15 -15c0 -4 -1 -8 -4 -12c-113 -158 -207 -261 -332 -261
c-95 0 -123 75 -123 126c0 121 93 261 237 261z" />
    <glyph glyph-name="c.end" horiz-adv-x="343" 
d="M242 378c55 0 96 -36 96 -86c0 -54 -44 -88 -82 -88c-31 0 -54 25 -54 53c0 33 12 40 12 46c0 3 -6 7 -20 7c-45 0 -89 -84 -89 -145c0 -60 26 -106 80 -106s95 33 126 61c6 5 11 7 16 7c7 0 15 -4 15 -14c0 -5 -2 -10 -6 -15c-66 -76 -130 -107 -208 -107
c-95 0 -123 75 -123 126c0 121 93 261 237 261z" />
    <glyph glyph-name="cacute" unicode="&#x107;" horiz-adv-x="343" 
d="M242 378c55 0 96 -36 96 -86c0 -54 -44 -88 -82 -88c-31 0 -54 25 -54 53c0 33 12 40 12 46c0 3 -6 7 -20 7c-45 0 -89 -84 -89 -145c0 -54 27 -91 74 -91c97 0 191 115 254 196c5 6 11 9 16 9c8 0 15 -6 15 -15c0 -4 -1 -8 -4 -12c-113 -158 -207 -261 -332 -261
c-95 0 -123 75 -123 126c0 121 93 261 237 261zM341 598c20 0 61 -24 61 -63c0 -60 -90 -99 -179 -99c-28 0 -42 6 -42 16c0 31 138 27 138 127c0 10 2 19 22 19z" />
    <glyph glyph-name="cacute.001" horiz-adv-x="343" 
d="M242 378c55 0 96 -36 96 -86c0 -54 -44 -88 -82 -88c-31 0 -54 25 -54 53c0 33 12 40 12 46c0 3 -6 7 -20 7c-45 0 -89 -84 -89 -145c0 -60 26 -106 80 -106s95 33 126 61c6 5 11 7 16 7c7 0 15 -4 15 -14c0 -5 -2 -10 -6 -15c-66 -76 -130 -107 -208 -107
c-95 0 -123 75 -123 126c0 121 93 261 237 261zM341 598c20 0 61 -24 61 -63c0 -60 -90 -99 -179 -99c-28 0 -42 6 -42 16c0 31 138 27 138 127c0 10 2 19 22 19z" />
    <glyph glyph-name="cacute.002" horiz-adv-x="343" 
d="M352 598c9 0 35 0 35 -39c0 -35 -66 -136 -119 -136c-12 0 -18 6 -18 16c0 24 40 67 62 129c7 20 20 30 40 30zM242 378c55 0 96 -36 96 -86c0 -54 -44 -88 -82 -88c-31 0 -54 25 -54 53c0 33 12 40 12 46c0 3 -6 7 -20 7c-45 0 -89 -84 -89 -145c0 -54 27 -91 74 -91
c97 0 191 115 254 196c5 6 11 9 16 9c8 0 15 -6 15 -15c0 -4 -1 -8 -4 -12c-113 -158 -207 -261 -332 -261c-95 0 -123 75 -123 126c0 121 93 261 237 261z" />
    <glyph glyph-name="cacute.003" horiz-adv-x="343" 
d="M242 378c55 0 96 -36 96 -86c0 -54 -44 -88 -82 -88c-31 0 -54 25 -54 53c0 33 12 40 12 46c0 3 -6 7 -20 7c-45 0 -89 -84 -89 -145c0 -60 26 -106 80 -106s95 33 126 61c6 5 11 7 16 7c7 0 15 -4 15 -14c0 -5 -2 -10 -6 -15c-66 -76 -130 -107 -208 -107
c-95 0 -123 75 -123 126c0 121 93 261 237 261zM352 598c9 0 35 0 35 -39c0 -35 -66 -136 -119 -136c-12 0 -18 6 -18 16c0 24 40 67 62 129c7 20 20 30 40 30z" />
    <glyph glyph-name="caron" unicode="&#x2c7;" horiz-adv-x="331" 
d="M100 520c-24 47 -49 44 -49 61c0 16 17 16 24 16c32 0 73 -15 100 -41c19 14 57 42 112 42c15 0 22 -4 22 -11c0 -22 -65 -38 -129 -122c-6 -8 -22 -30 -45 -30c-34 0 -16 47 -35 85z" />
    <glyph glyph-name="ccaron" unicode="&#x10d;" horiz-adv-x="343" 
d="M242 378c55 0 96 -36 96 -86c0 -54 -44 -88 -82 -88c-31 0 -54 25 -54 53c0 33 12 40 12 46c0 3 -6 7 -20 7c-45 0 -89 -84 -89 -145c0 -54 27 -91 74 -91c97 0 191 115 254 196c5 6 11 9 16 9c8 0 15 -6 15 -15c0 -4 -1 -8 -4 -12c-113 -158 -207 -261 -332 -261
c-95 0 -123 75 -123 126c0 121 93 261 237 261zM214 520c-24 47 -49 44 -49 61c0 16 17 16 24 16c32 0 73 -15 100 -41c19 14 57 42 112 42c15 0 22 -4 22 -11c0 -22 -65 -38 -129 -122c-6 -8 -22 -30 -45 -30c-34 0 -16 47 -35 85z" />
    <glyph glyph-name="ccaron.001" horiz-adv-x="343" 
d="M242 378c55 0 96 -36 96 -86c0 -54 -44 -88 -82 -88c-31 0 -54 25 -54 53c0 33 12 40 12 46c0 3 -6 7 -20 7c-45 0 -89 -84 -89 -145c0 -60 26 -106 80 -106s95 33 126 61c6 5 11 7 16 7c7 0 15 -4 15 -14c0 -5 -2 -10 -6 -15c-66 -76 -130 -107 -208 -107
c-95 0 -123 75 -123 126c0 121 93 261 237 261zM214 520c-24 47 -49 44 -49 61c0 16 17 16 24 16c32 0 73 -15 100 -41c19 14 57 42 112 42c15 0 22 -4 22 -11c0 -22 -65 -38 -129 -122c-6 -8 -22 -30 -45 -30c-34 0 -16 47 -35 85z" />
    <glyph glyph-name="ccedilla" unicode="&#xe7;" horiz-adv-x="343" 
d="M242 378c55 0 96 -36 96 -86c0 -54 -44 -88 -82 -88c-31 0 -54 25 -54 53c0 33 12 40 12 46c0 3 -6 7 -20 7c-45 0 -89 -84 -89 -145c0 -54 27 -91 74 -91c97 0 191 115 254 196c5 6 11 9 16 9c8 0 15 -6 15 -15c0 -4 -1 -8 -4 -12c-113 -158 -207 -261 -332 -261
c-4 0 -8 1 -11 1v-3c0 -36 57 -53 57 -109c0 -40 -37 -104 -111 -104c-29 0 -61 17 -61 44c0 14 7 16 12 16c6 0 13 -10 30 -10c14 0 31 9 31 27c0 22 -35 44 -35 76c0 28 15 54 31 73c-50 23 -66 76 -66 115c0 121 93 261 237 261z" />
    <glyph glyph-name="ccedilla.001" horiz-adv-x="343" 
d="M242 378c55 0 96 -36 96 -86c0 -54 -44 -88 -82 -88c-31 0 -54 25 -54 53c0 33 12 40 12 46c0 3 -6 7 -20 7c-45 0 -89 -84 -89 -145c0 -60 26 -106 80 -106s95 33 126 61c6 5 11 7 16 7c7 0 15 -4 15 -14c0 -5 -2 -10 -6 -15c-66 -76 -130 -107 -208 -107
c-4 0 -8 1 -11 1v-3c0 -36 57 -53 57 -109c0 -40 -37 -104 -111 -104c-29 0 -61 17 -61 44c0 14 7 16 12 16c6 0 13 -10 30 -10c14 0 31 9 31 27c0 22 -35 44 -35 76c0 28 15 54 31 73c-50 23 -66 76 -66 115c0 121 93 261 237 261z" />
    <glyph glyph-name="ccircumflex" unicode="&#x109;" horiz-adv-x="343" 
d="M242 378c55 0 96 -36 96 -86c0 -54 -44 -88 -82 -88c-31 0 -54 25 -54 53c0 33 12 40 12 46c0 3 -6 7 -20 7c-45 0 -89 -84 -89 -145c0 -54 27 -91 74 -91c97 0 191 115 254 196c5 6 11 9 16 9c8 0 15 -6 15 -15c0 -4 -1 -8 -4 -12c-113 -158 -207 -261 -332 -261
c-95 0 -123 75 -123 126c0 121 93 261 237 261zM342 513c24 -47 49 -44 49 -61c0 -16 -17 -16 -24 -16c-32 0 -62 13 -89 39c-71 -27 -84 -40 -123 -40c-15 0 -22 4 -22 11c0 22 99 31 134 122c4 9 17 30 40 30c34 0 16 -47 35 -85z" />
    <glyph glyph-name="ccircumflex.001" horiz-adv-x="343" 
d="M242 378c55 0 96 -36 96 -86c0 -54 -44 -88 -82 -88c-31 0 -54 25 -54 53c0 33 12 40 12 46c0 3 -6 7 -20 7c-45 0 -89 -84 -89 -145c0 -60 26 -106 80 -106s95 33 126 61c6 5 11 7 16 7c7 0 15 -4 15 -14c0 -5 -2 -10 -6 -15c-66 -76 -130 -107 -208 -107
c-95 0 -123 75 -123 126c0 121 93 261 237 261zM342 513c24 -47 49 -44 49 -61c0 -16 -17 -16 -24 -16c-32 0 -62 13 -89 39c-71 -27 -84 -40 -123 -40c-15 0 -22 4 -22 11c0 22 99 31 134 122c4 9 17 30 40 30c34 0 16 -47 35 -85z" />
    <glyph glyph-name="cdotaccent" unicode="&#x10b;" horiz-adv-x="343" 
d="M242 378c55 0 96 -36 96 -86c0 -54 -44 -88 -82 -88c-31 0 -54 25 -54 53c0 33 12 40 12 46c0 3 -6 7 -20 7c-45 0 -89 -84 -89 -145c0 -54 27 -91 74 -91c97 0 191 115 254 196c5 6 11 9 16 9c8 0 15 -6 15 -15c0 -4 -1 -8 -4 -12c-113 -158 -207 -261 -332 -261
c-95 0 -123 75 -123 126c0 121 93 261 237 261zM286 448c-34 0 -59 24 -59 54c0 43 43 81 91 81c34 0 56 -24 56 -53c0 -43 -42 -82 -88 -82z" />
    <glyph glyph-name="cdotaccent.001" horiz-adv-x="343" 
d="M242 378c55 0 96 -36 96 -86c0 -54 -44 -88 -82 -88c-31 0 -54 25 -54 53c0 33 12 40 12 46c0 3 -6 7 -20 7c-45 0 -89 -84 -89 -145c0 -60 26 -106 80 -106s95 33 126 61c6 5 11 7 16 7c7 0 15 -4 15 -14c0 -5 -2 -10 -6 -15c-66 -76 -130 -107 -208 -107
c-95 0 -123 75 -123 126c0 121 93 261 237 261zM286 448c-34 0 -59 24 -59 54c0 43 43 81 91 81c34 0 56 -24 56 -53c0 -43 -42 -82 -88 -82z" />
    <glyph glyph-name="cedilla" unicode="&#xb8;" horiz-adv-x="218" 
d="M115 38l34 -19s-26 1 -26 -30c0 -36 57 -53 57 -109c0 -40 -37 -104 -111 -104c-29 0 -61 17 -61 44c0 14 7 16 12 16c6 0 13 -10 30 -10c14 0 31 9 31 27c0 22 -35 44 -35 76c0 60 69 109 69 109z" />
    <glyph glyph-name="cent" unicode="&#xa2;" horiz-adv-x="343" 
d="M138 -72c-18 -19 -46 -24 -62 -24c-13 0 -19 3 -19 12c0 14 14 40 32 80c-64 16 -84 77 -84 121c0 115 84 247 216 260c13 38 17 47 20 54c4 9 5 10 11 10c8 0 12 -3 12 -8s-6 -22 -15 -55c51 -3 89 -39 89 -86c0 -54 -44 -88 -82 -88c-19 0 -35 9 -44 22
c-6 -24 -11 -51 -17 -80c-7 -34 -13 -62 -17 -87h7c54 0 95 33 126 61c6 5 11 7 16 7c7 0 15 -4 15 -14c0 -5 -2 -10 -6 -15c-55 -64 -109 -96 -171 -104c-8 -34 -15 -53 -27 -66zM105 165c0 -30 6 -57 20 -76l73 221h-4c-45 0 -89 -84 -89 -145z" />
    <glyph glyph-name="circumflex" unicode="&#x2c6;" horiz-adv-x="331" 
d="M260 513c24 -47 49 -44 49 -61c0 -16 -17 -16 -24 -16c-32 0 -62 13 -89 39c-71 -27 -84 -40 -123 -40c-15 0 -22 4 -22 11c0 22 99 31 134 122c4 9 17 30 40 30c34 0 16 -47 35 -85z" />
    <glyph glyph-name="colon" unicode=":" horiz-adv-x="200" 
d="M59 -9c-34 0 -59 24 -59 54c0 43 43 81 91 81c34 0 56 -24 56 -53c0 -43 -42 -82 -88 -82zM127 248c-34 0 -59 24 -59 54c0 43 43 81 91 81c34 0 56 -24 56 -53c0 -43 -42 -82 -88 -82z" />
    <glyph glyph-name="comma" unicode="," horiz-adv-x="202" 
d="M7 -78c-6 0 -12 3 -12 10c0 6 8 12 15 20c11 12 24 27 24 37c0 4 -2 7 -6 9c-16 11 -28 27 -28 47c0 43 43 81 91 81c40 0 56 -34 56 -63c0 -63 -94 -141 -140 -141z" />
    <glyph glyph-name="commaaccent" horiz-adv-x="288" 
d="M57 -260c-6 0 -12 3 -12 10c0 22 31 35 48 135c7 42 29 59 57 59c40 0 46 -34 46 -63c0 -63 -93 -141 -139 -141z" />
    <glyph glyph-name="copyright" unicode="&#xa9;" horiz-adv-x="332" 
d="M262 439c-65 0 -84 40 -84 68c0 68 52 147 132 147c31 0 55 -20 55 -49c0 -30 -25 -49 -47 -49c-17 0 -30 14 -30 30c0 18 7 22 7 25c0 2 -4 5 -12 5c-24 0 -49 -48 -49 -82c0 -30 13 -54 46 -54c50 0 119 63 119 129c0 52 -26 86 -77 86c-86 0 -183 -86 -183 -194
c0 -45 20 -97 101 -97c71 0 111 42 122 42c3 0 4 -4 4 -5c0 -11 -69 -78 -158 -78s-119 67 -119 115c0 93 111 246 244 246c60 0 105 -32 105 -96c0 -79 -90 -189 -176 -189z" />
    <glyph glyph-name="currency" unicode="&#xa4;" horiz-adv-x="347" 
d="M228 287c0 -17 18 -30 47 -32c-1 34 -19 49 -32 49c-8 0 -15 -6 -15 -17zM270 216h-6c-62 0 -106 35 -113 78c-24 -33 -54 -76 -54 -115c0 -51 18 -91 59 -91c59 0 101 69 114 128zM378 274c0 -25 -31 -47 -62 -55c-7 -56 -30 -114 -66 -157c49 -116 59 -117 59 -130
c0 -14 -35 -19 -49 -19c-19 0 -45 8 -54 36l-19 60c-22 -11 -47 -18 -74 -18c-5 0 -10 1 -15 1c-34 -53 -59 -75 -77 -75c-25 0 -45 22 -45 42c0 9 26 11 46 30c6 6 13 13 20 24c-26 21 -39 56 -39 104c0 76 55 155 105 199c-14 59 -24 104 -24 113c0 3 1 5 3 5
c8 0 28 -8 32 -19c1 -7 12 -35 25 -74c9 5 16 7 23 8c15 17 36 29 58 29c12 0 23 -2 34 -7c26 38 49 64 66 64c14 0 22 -8 22 -15s-5 -13 -12 -18c-12 -12 -29 -23 -49 -50c19 -20 30 -51 32 -92c10 6 19 15 19 27c0 10 -9 16 -9 19c0 4 4 4 8 4c13 0 42 -5 42 -36z" />
    <glyph glyph-name="d" unicode="d" horiz-adv-x="448" 
d="M540 270c5 5 10 8 15 8c8 0 16 -6 16 -15c0 -3 -1 -7 -4 -11c-171 -234 -189 -261 -261 -261c-43 0 -66 35 -74 72c-30 -43 -71 -72 -124 -72c-71 0 -104 45 -104 126c0 90 80 261 203 261c18 0 47 -10 65 -26c51 172 137 359 223 359c45 0 63 -27 63 -72
c0 -98 -117 -288 -206 -419c-6 -36 -9 -63 -9 -82c0 -37 9 -48 17 -48c18 0 54 13 180 180zM486 567c-27 0 -108 -248 -108 -248c61 89 115 202 115 236c0 7 -2 12 -7 12zM225 123c3 42 13 103 31 171c-11 6 -22 9 -32 9c-38 0 -69 -39 -89 -78c-12 -24 -24 -62 -24 -94
c0 -33 12 -59 46 -59c28 0 51 21 68 51z" />
    <glyph glyph-name="d.alt5" horiz-adv-x="438" 
d="M431 -25c4 0 6 -3 6 -8c0 -13 -23 -27 -57 -27c-103 0 -139 61 -151 118c-30 -40 -70 -67 -121 -67c-71 0 -104 45 -104 126c0 90 80 261 203 261c18 0 47 -10 65 -26c51 172 137 359 223 359c45 0 63 -27 63 -72c0 -98 -120 -298 -209 -429c-7 -44 -11 -101 -11 -123
c0 -66 22 -114 74 -114c7 0 12 2 19 2zM486 567c-27 0 -108 -248 -108 -248c61 89 115 202 115 236c0 7 -2 12 -7 12zM157 72c28 0 51 20 68 50c4 54 20 129 31 172c-11 6 -22 9 -32 9c-38 0 -69 -39 -89 -78c-12 -24 -24 -62 -24 -94c0 -33 12 -59 46 -59z" />
    <glyph glyph-name="d.end" horiz-adv-x="448" 
d="M366 59c26 0 30 25 38 25c6 0 9 -8 9 -17c0 -24 -30 -76 -96 -76c-47 0 -77 35 -85 72c-30 -43 -71 -72 -124 -72c-71 0 -104 45 -104 126c0 90 80 261 203 261c18 0 47 -10 65 -26c51 172 137 359 223 359c45 0 63 -27 63 -72c0 -98 -117 -288 -206 -419
c-6 -36 -9 -63 -9 -82c0 -37 0 -79 23 -79zM486 567c-27 0 -108 -248 -108 -248c61 89 115 202 115 236c0 7 -2 12 -7 12zM225 123c3 42 13 103 31 171c-11 6 -22 9 -32 9c-38 0 -69 -39 -89 -78c-12 -24 -24 -62 -24 -94c0 -33 12 -59 46 -59c28 0 51 21 68 51z" />
    <glyph glyph-name="dagger" unicode="&#x2020;" horiz-adv-x="288" 
d="M288 711c52 0 67 -37 67 -69c0 -6 -2 -9 -10 -9c-42 0 -74 -52 -100 -130c22 2 41 6 63 12c44 12 56 28 68 28c6 0 9 -8 9 -17c0 -42 -35 -123 -99 -123c-20 0 -43 2 -67 5c-66 -279 -98 -719 -219 -719c-52 0 -67 37 -67 69c0 6 2 9 10 9c56 0 93 384 169 662
c-20 4 -36 7 -44 7c-13 0 -27 -9 -39 -9c-21 0 -42 10 -42 31c0 20 44 54 75 54c22 0 40 -7 72 -11c40 122 89 210 154 210z" />
    <glyph glyph-name="daggerdbl" unicode="&#x2021;" horiz-adv-x="288" 
d="M130 487c40 129 90 224 158 224c52 0 67 -37 67 -69c0 -6 -2 -9 -10 -9c-44 0 -75 -55 -102 -137c20 3 39 7 55 11c44 12 56 28 68 28c6 0 9 -8 9 -17c0 -42 -35 -123 -99 -123c-21 0 -40 0 -60 1c-30 -133 -53 -298 -82 -435c18 3 35 6 54 11c44 12 56 28 68 28
c6 0 9 -8 9 -17c0 -42 -35 -123 -99 -123c-15 0 -31 1 -49 3c-2 0 -4 1 -6 1c-28 -103 -62 -175 -111 -175c-52 0 -67 37 -67 69c0 6 2 9 10 9c19 0 36 47 54 118c-23 5 -40 8 -49 8c-13 0 -27 -9 -39 -9c-21 0 -42 10 -42 31c0 20 44 54 75 54c22 0 40 -6 71 -10
c26 128 55 298 93 445c-34 2 -64 5 -87 5c-21 0 -42 10 -42 31c0 20 44 54 75 54c30 0 19 -7 78 -7z" />
    <glyph glyph-name="dcaron" unicode="&#x10f;" horiz-adv-x="448" 
d="M557 505c-6 0 -12 3 -12 10c0 22 31 35 48 135c7 42 29 59 57 59c40 0 46 -34 46 -63c0 -63 -93 -141 -139 -141zM540 270c5 5 10 8 15 8c8 0 16 -6 16 -15c0 -3 -1 -7 -4 -11c-171 -234 -189 -261 -261 -261c-43 0 -66 35 -74 72c-30 -43 -71 -72 -124 -72
c-71 0 -104 45 -104 126c0 90 80 261 203 261c18 0 47 -10 65 -26c51 172 137 359 223 359c45 0 63 -27 63 -72c0 -98 -117 -288 -206 -419c-6 -36 -9 -63 -9 -82c0 -37 9 -48 17 -48c18 0 54 13 180 180zM486 567c-27 0 -108 -248 -108 -248c61 89 115 202 115 236
c0 7 -2 12 -7 12zM225 123c3 42 13 103 31 171c-11 6 -22 9 -32 9c-38 0 -69 -39 -89 -78c-12 -24 -24 -62 -24 -94c0 -33 12 -59 46 -59c28 0 51 21 68 51z" />
    <glyph glyph-name="dcaron.001" horiz-adv-x="448" 
d="M557 505c-6 0 -12 3 -12 10c0 22 31 35 48 135c7 42 29 59 57 59c40 0 46 -34 46 -63c0 -63 -93 -141 -139 -141zM366 59c26 0 30 25 38 25c6 0 9 -8 9 -17c0 -24 -30 -76 -96 -76c-47 0 -77 35 -85 72c-30 -43 -71 -72 -124 -72c-71 0 -104 45 -104 126
c0 90 80 261 203 261c18 0 47 -10 65 -26c51 172 137 359 223 359c45 0 63 -27 63 -72c0 -98 -117 -288 -206 -419c-6 -36 -9 -63 -9 -82c0 -37 0 -79 23 -79zM486 567c-27 0 -108 -248 -108 -248c61 89 115 202 115 236c0 7 -2 12 -7 12zM225 123c3 42 13 103 31 171
c-11 6 -22 9 -32 9c-38 0 -69 -39 -89 -78c-12 -24 -24 -62 -24 -94c0 -33 12 -59 46 -59c28 0 51 21 68 51z" />
    <glyph glyph-name="dcroat" unicode="&#x111;" horiz-adv-x="448" 
d="M540 270c5 5 10 8 15 8c8 0 16 -6 16 -15c0 -3 -1 -7 -4 -11c-171 -234 -189 -261 -261 -261c-43 0 -66 35 -74 72c-30 -43 -71 -72 -124 -72c-71 0 -104 45 -104 126c0 90 80 261 203 261c18 0 47 -10 65 -26c7 24 15 49 24 74c-34 1 -74 6 -74 18c0 6 1 17 25 17
c15 0 38 -1 62 0c50 134 118 250 186 250c45 0 63 -27 63 -72c0 -31 -11 -70 -30 -114c22 14 32 26 39 26c17 0 22 -16 22 -35c0 -29 -39 -54 -98 -70c-41 -77 -94 -159 -139 -226c-6 -36 -9 -63 -9 -82c0 -37 9 -48 17 -48c18 0 54 13 180 180zM225 123c3 42 13 103 31 171
c-11 6 -22 9 -32 9c-38 0 -69 -39 -89 -78c-12 -24 -24 -62 -24 -94c0 -33 12 -59 46 -59c28 0 51 21 68 51zM486 567c-11 0 -30 -38 -49 -84c15 4 27 9 39 14c10 25 17 46 17 58c0 7 -2 12 -7 12zM448 437l-30 -5c-22 -58 -40 -113 -40 -113c26 38 50 79 70 118z" />
    <glyph glyph-name="dcroat.001" horiz-adv-x="448" 
d="M366 59c26 0 30 25 38 25c6 0 9 -8 9 -17c0 -24 -30 -76 -96 -76c-47 0 -77 35 -85 72c-30 -43 -71 -72 -124 -72c-71 0 -104 45 -104 126c0 90 80 261 203 261c18 0 47 -10 65 -26c7 24 15 49 24 74c-34 1 -74 6 -74 18c0 6 1 17 25 17c15 0 38 -1 62 0
c50 134 118 250 186 250c45 0 63 -27 63 -72c0 -31 -11 -70 -30 -114c22 14 32 26 39 26c17 0 22 -16 22 -35c0 -29 -39 -54 -98 -70c-41 -77 -94 -159 -139 -226c-6 -36 -9 -63 -9 -82c0 -37 0 -79 23 -79zM225 123c3 42 13 103 31 171c-11 6 -22 9 -32 9
c-38 0 -69 -39 -89 -78c-12 -24 -24 -62 -24 -94c0 -33 12 -59 46 -59c28 0 51 21 68 51zM486 567c-11 0 -30 -38 -49 -84c15 4 27 9 39 14c10 25 17 46 17 58c0 7 -2 12 -7 12zM448 437l-30 -5c-22 -58 -40 -113 -40 -113c26 38 50 79 70 118z" />
    <glyph glyph-name="degree" unicode="&#xb0;" horiz-adv-x="260" 
d="M263 659c47 0 69 -37 69 -67c0 -82 -53 -145 -113 -145c-61 0 -79 41 -79 77c0 61 54 135 123 135zM241 515c9 0 35 21 35 52c0 15 -12 26 -28 26c-15 0 -34 -27 -34 -50c0 -13 5 -28 27 -28z" />
    <glyph glyph-name="dieresis" unicode="&#xa8;" horiz-adv-x="300" 
d="M83 428c-27 0 -47 21 -47 46c0 35 37 64 71 64c27 0 44 -19 44 -42c0 -36 -32 -65 -68 -68zM233 428c-26 0 -46 18 -46 44c0 36 35 66 71 66c27 0 43 -19 43 -42c0 -36 -33 -65 -68 -68z" />
    <glyph glyph-name="divide" unicode="&#xf7;" horiz-adv-x="441" 
d="M238 335c60 0 93 4 136 15c44 12 56 28 68 28c6 0 9 -8 9 -17c0 -42 -35 -123 -99 -123c-75 0 -192 33 -218 33c-13 0 -27 -9 -39 -9c-21 0 -42 10 -42 31c0 20 44 54 75 54c30 0 51 -12 110 -12zM199 96c-34 0 -59 24 -59 54c0 43 43 81 91 81c34 0 56 -24 56 -53
c0 -43 -42 -82 -88 -82zM267 353c-34 0 -59 24 -59 54c0 43 43 81 91 81c34 0 56 -24 56 -53c0 -43 -42 -82 -88 -82z" />
    <glyph glyph-name="dollar" unicode="$" horiz-adv-x="555" 
d="M231 -139c-30 -32 -77 -40 -105 -40c-22 0 -32 5 -32 21c0 23 22 65 50 132c-110 14 -159 70 -159 143c0 122 123 162 230 162c9 0 18 -1 26 -2l23 77c-50 40 -96 83 -96 157c0 80 56 176 199 182c4 12 6 18 9 24c6 15 7 17 17 17c16 0 22 -5 22 -13c0 -5 -2 -15 -5 -30
c88 -8 139 -52 139 -111c0 -69 -70 -98 -129 -98c-28 0 -29 6 -29 10c0 17 34 35 34 82c0 28 -12 49 -30 59c-10 -44 -25 -106 -42 -191c74 -56 182 -103 182 -231s-112 -215 -262 -236c-11 -59 -22 -92 -42 -114zM385 184c0 52 -25 87 -58 118l-12 -70
c-14 -79 -22 -141 -30 -191c56 21 100 70 100 143zM107 131c0 -50 23 -80 61 -93c7 18 13 36 19 57c15 50 28 96 41 138c-93 -8 -121 -51 -121 -102zM287 551c0 -23 6 -43 18 -60c20 69 35 116 45 148c-34 -8 -63 -42 -63 -88z" />
    <glyph glyph-name="dotaccent" unicode="&#x2d9;" horiz-adv-x="244" 
d="M114 448c-34 0 -59 24 -59 54c0 43 43 81 91 81c34 0 56 -24 56 -53c0 -43 -42 -82 -88 -82z" />
    <glyph glyph-name="dotlessi" unicode="&#x131;" horiz-adv-x="222" 
d="M313 270c5 7 11 10 17 10c8 0 15 -5 15 -14c0 -4 -2 -9 -5 -14c-117 -183 -188 -261 -268 -261c-63 0 -72 54 -72 90c0 103 58 297 130 297c33 0 50 -21 50 -54c0 -69 -56 -136 -56 -136c-5 -22 -10 -59 -10 -76c0 -28 7 -45 21 -45c37 0 115 111 178 203z" />
    <glyph glyph-name="dotlessi.end" horiz-adv-x="222" 
d="M140 59c26 0 30 25 38 25c6 0 9 -8 9 -17c0 -24 -31 -76 -104 -76c-63 0 -83 54 -83 90c0 103 58 297 130 297c33 0 50 -21 50 -54c0 -69 -56 -136 -56 -136c-5 -22 -10 -59 -10 -76c0 -28 9 -53 26 -53z" />
    <glyph glyph-name="dotlessj" unicode="&#x237;" horiz-adv-x="216" 
d="M336 252c-42 -57 -102 -176 -240 -249c-31 -142 -97 -314 -236 -314c-64 0 -99 53 -99 98c0 78 71 135 222 201c12 49 21 97 25 133c14 113 54 257 122 257c42 0 54 -22 54 -63c0 -48 -58 -120 -58 -120c-2 -24 -12 -96 -21 -146c112 72 169 177 204 221c4 5 9 8 15 8
c10 0 15 -7 15 -15c0 -4 -1 -7 -3 -11zM-132 -207c40 0 84 82 106 156c-70 -32 -137 -83 -137 -125c0 -18 13 -31 31 -31z" />
    <glyph glyph-name="dotlessj.end" horiz-adv-x="216" 
d="M149 133c13 0 52 -12 52 -43c0 -26 -44 -63 -106 -91c-32 -141 -97 -310 -235 -310c-64 0 -99 53 -99 98c0 78 71 135 222 201c12 49 21 97 25 133c14 113 54 257 122 257c42 0 54 -22 54 -63c0 -48 -58 -120 -58 -120c-2 -24 -12 -93 -21 -143c23 16 45 37 45 54
c0 15 -9 20 -9 23c0 4 4 4 8 4zM-132 -207c40 0 84 82 106 156c-70 -32 -137 -83 -137 -125c0 -18 13 -31 31 -31z" />
    <glyph glyph-name="e" unicode="e" 
d="M439 270c5 6 10 8 15 8c8 0 15 -6 15 -15c0 -5 -1 -7 -3 -11c-113 -158 -211 -261 -336 -261c-71 0 -124 45 -124 126c0 121 98 261 233 261c56 0 98 -37 98 -81c0 -65 -68 -145 -227 -145h-4c4 -42 20 -76 80 -76c99 0 190 113 253 194zM236 274c0 26 -15 38 -35 38
c-36 0 -89 -42 -95 -121h6c46 0 124 11 124 83z" />
    <glyph glyph-name="e.end" 
d="M316 123c5 3 11 4 16 4c4 0 9 -4 9 -11c0 -9 -2 -12 -7 -18c-60 -74 -128 -107 -204 -107c-71 0 -124 45 -124 126c0 121 98 261 233 261c56 0 98 -37 98 -81c0 -65 -68 -145 -227 -145h-4c4 -46 22 -89 82 -89c53 0 97 38 128 60zM236 274c0 26 -15 38 -35 38
c-36 0 -89 -42 -95 -121h6c46 0 124 11 124 83z" />
    <glyph glyph-name="eacute" unicode="&#xe9;" 
d="M439 270c5 6 10 8 15 8c8 0 15 -6 15 -15c0 -5 -1 -7 -3 -11c-113 -158 -211 -261 -336 -261c-71 0 -124 45 -124 126c0 121 98 261 233 261c56 0 98 -37 98 -81c0 -65 -68 -145 -227 -145h-4c4 -42 20 -76 80 -76c99 0 190 113 253 194zM236 274c0 26 -15 38 -35 38
c-36 0 -89 -42 -95 -121h6c46 0 124 11 124 83zM314 598c20 0 61 -24 61 -63c0 -60 -90 -99 -179 -99c-28 0 -42 6 -42 16c0 31 138 27 138 127c0 10 2 19 22 19z" />
    <glyph glyph-name="eacute.001" 
d="M316 123c5 3 11 4 16 4c4 0 9 -4 9 -11c0 -9 -2 -12 -7 -18c-60 -74 -128 -107 -204 -107c-71 0 -124 45 -124 126c0 121 98 261 233 261c56 0 98 -37 98 -81c0 -65 -68 -145 -227 -145h-4c4 -46 22 -89 82 -89c53 0 97 38 128 60zM236 274c0 26 -15 38 -35 38
c-36 0 -89 -42 -95 -121h6c46 0 124 11 124 83zM314 598c20 0 61 -24 61 -63c0 -60 -90 -99 -179 -99c-28 0 -42 6 -42 16c0 31 138 27 138 127c0 10 2 19 22 19z" />
    <glyph glyph-name="ebreve" unicode="&#x115;" 
d="M439 270c5 6 10 8 15 8c8 0 15 -6 15 -15c0 -5 -1 -7 -3 -11c-113 -158 -211 -261 -336 -261c-71 0 -124 45 -124 126c0 121 98 261 233 261c56 0 98 -37 98 -81c0 -65 -68 -145 -227 -145h-4c4 -42 20 -76 80 -76c99 0 190 113 253 194zM236 274c0 26 -15 38 -35 38
c-36 0 -89 -42 -95 -121h6c46 0 124 11 124 83zM234 568c0 -7 -2 -11 -2 -21c0 -27 18 -46 55 -46c47 0 68 31 81 55c8 14 13 22 23 22c9 0 14 -7 14 -20c0 -44 -51 -129 -149 -129c-66 0 -95 39 -95 78c0 45 37 72 60 72c7 0 13 -2 13 -11z" />
    <glyph glyph-name="ebreve.001" 
d="M316 123c5 3 11 4 16 4c4 0 9 -4 9 -11c0 -9 -2 -12 -7 -18c-60 -74 -128 -107 -204 -107c-71 0 -124 45 -124 126c0 121 98 261 233 261c56 0 98 -37 98 -81c0 -65 -68 -145 -227 -145h-4c4 -46 22 -89 82 -89c53 0 97 38 128 60zM236 274c0 26 -15 38 -35 38
c-36 0 -89 -42 -95 -121h6c46 0 124 11 124 83zM234 568c0 -7 -2 -11 -2 -21c0 -27 18 -46 55 -46c47 0 68 31 81 55c8 14 13 22 23 22c9 0 14 -7 14 -20c0 -44 -51 -129 -149 -129c-66 0 -95 39 -95 78c0 45 37 72 60 72c7 0 13 -2 13 -11z" />
    <glyph glyph-name="ecaron" unicode="&#x11b;" 
d="M439 270c5 6 10 8 15 8c8 0 15 -6 15 -15c0 -5 -1 -7 -3 -11c-113 -158 -211 -261 -336 -261c-71 0 -124 45 -124 126c0 121 98 261 233 261c56 0 98 -37 98 -81c0 -65 -68 -145 -227 -145h-4c4 -42 20 -76 80 -76c99 0 190 113 253 194zM236 274c0 26 -15 38 -35 38
c-36 0 -89 -42 -95 -121h6c46 0 124 11 124 83zM224 520c-24 47 -49 44 -49 61c0 16 17 16 24 16c32 0 73 -15 100 -41c19 14 57 42 112 42c15 0 22 -4 22 -11c0 -22 -65 -38 -129 -122c-6 -8 -22 -30 -45 -30c-34 0 -16 47 -35 85z" />
    <glyph glyph-name="ecaron.001" 
d="M316 123c5 3 11 4 16 4c4 0 9 -4 9 -11c0 -9 -2 -12 -7 -18c-60 -74 -128 -107 -204 -107c-71 0 -124 45 -124 126c0 121 98 261 233 261c56 0 98 -37 98 -81c0 -65 -68 -145 -227 -145h-4c4 -46 22 -89 82 -89c53 0 97 38 128 60zM236 274c0 26 -15 38 -35 38
c-36 0 -89 -42 -95 -121h6c46 0 124 11 124 83zM224 520c-24 47 -49 44 -49 61c0 16 17 16 24 16c32 0 73 -15 100 -41c19 14 57 42 112 42c15 0 22 -4 22 -11c0 -22 -65 -38 -129 -122c-6 -8 -22 -30 -45 -30c-34 0 -16 47 -35 85z" />
    <glyph glyph-name="ecircumflex" unicode="&#xea;" 
d="M439 270c5 6 10 8 15 8c8 0 15 -6 15 -15c0 -5 -1 -7 -3 -11c-113 -158 -211 -261 -336 -261c-71 0 -124 45 -124 126c0 121 98 261 233 261c56 0 98 -37 98 -81c0 -65 -68 -145 -227 -145h-4c4 -42 20 -76 80 -76c99 0 190 113 253 194zM236 274c0 26 -15 38 -35 38
c-36 0 -89 -42 -95 -121h6c46 0 124 11 124 83zM333 513c24 -47 49 -44 49 -61c0 -16 -17 -16 -24 -16c-32 0 -62 13 -89 39c-71 -27 -84 -40 -123 -40c-15 0 -22 4 -22 11c0 22 99 31 134 122c4 9 17 30 40 30c34 0 16 -47 35 -85z" />
    <glyph glyph-name="ecircumflex.001" 
d="M316 123c5 3 11 4 16 4c4 0 9 -4 9 -11c0 -9 -2 -12 -7 -18c-60 -74 -128 -107 -204 -107c-71 0 -124 45 -124 126c0 121 98 261 233 261c56 0 98 -37 98 -81c0 -65 -68 -145 -227 -145h-4c4 -46 22 -89 82 -89c53 0 97 38 128 60zM236 274c0 26 -15 38 -35 38
c-36 0 -89 -42 -95 -121h6c46 0 124 11 124 83zM333 513c24 -47 49 -44 49 -61c0 -16 -17 -16 -24 -16c-32 0 -62 13 -89 39c-71 -27 -84 -40 -123 -40c-15 0 -22 4 -22 11c0 22 99 31 134 122c4 9 17 30 40 30c34 0 16 -47 35 -85z" />
    <glyph glyph-name="edieresis" unicode="&#xeb;" 
d="M439 270c5 6 10 8 15 8c8 0 15 -6 15 -15c0 -5 -1 -7 -3 -11c-113 -158 -211 -261 -336 -261c-71 0 -124 45 -124 126c0 121 98 261 233 261c56 0 98 -37 98 -81c0 -65 -68 -145 -227 -145h-4c4 -42 20 -76 80 -76c99 0 190 113 253 194zM236 274c0 26 -15 38 -35 38
c-36 0 -89 -42 -95 -121h6c46 0 124 11 124 83zM177 428c-27 0 -47 21 -47 46c0 35 37 64 71 64c27 0 44 -19 44 -42c0 -36 -32 -65 -68 -68zM327 428c-26 0 -46 18 -46 44c0 36 35 66 71 66c27 0 43 -19 43 -42c0 -36 -33 -65 -68 -68z" />
    <glyph glyph-name="edieresis.001" 
d="M316 123c5 3 11 4 16 4c4 0 9 -4 9 -11c0 -9 -2 -12 -7 -18c-60 -74 -128 -107 -204 -107c-71 0 -124 45 -124 126c0 121 98 261 233 261c56 0 98 -37 98 -81c0 -65 -68 -145 -227 -145h-4c4 -46 22 -89 82 -89c53 0 97 38 128 60zM236 274c0 26 -15 38 -35 38
c-36 0 -89 -42 -95 -121h6c46 0 124 11 124 83zM177 428c-27 0 -47 21 -47 46c0 35 37 64 71 64c27 0 44 -19 44 -42c0 -36 -32 -65 -68 -68zM327 428c-26 0 -46 18 -46 44c0 36 35 66 71 66c27 0 43 -19 43 -42c0 -36 -33 -65 -68 -68z" />
    <glyph glyph-name="edotaccent" unicode="&#x117;" 
d="M439 270c5 6 10 8 15 8c8 0 15 -6 15 -15c0 -5 -1 -7 -3 -11c-113 -158 -211 -261 -336 -261c-71 0 -124 45 -124 126c0 121 98 261 233 261c56 0 98 -37 98 -81c0 -65 -68 -145 -227 -145h-4c4 -42 20 -76 80 -76c99 0 190 113 253 194zM236 274c0 26 -15 38 -35 38
c-36 0 -89 -42 -95 -121h6c46 0 124 11 124 83zM268 448c-34 0 -59 24 -59 54c0 43 43 81 91 81c34 0 56 -24 56 -53c0 -43 -42 -82 -88 -82z" />
    <glyph glyph-name="edotaccent.001" 
d="M316 123c5 3 11 4 16 4c4 0 9 -4 9 -11c0 -9 -2 -12 -7 -18c-60 -74 -128 -107 -204 -107c-71 0 -124 45 -124 126c0 121 98 261 233 261c56 0 98 -37 98 -81c0 -65 -68 -145 -227 -145h-4c4 -46 22 -89 82 -89c53 0 97 38 128 60zM236 274c0 26 -15 38 -35 38
c-36 0 -89 -42 -95 -121h6c46 0 124 11 124 83zM268 448c-34 0 -59 24 -59 54c0 43 43 81 91 81c34 0 56 -24 56 -53c0 -43 -42 -82 -88 -82z" />
    <glyph glyph-name="egrave" unicode="&#xe8;" 
d="M439 270c5 6 10 8 15 8c8 0 15 -6 15 -15c0 -5 -1 -7 -3 -11c-113 -158 -211 -261 -336 -261c-71 0 -124 45 -124 126c0 121 98 261 233 261c56 0 98 -37 98 -81c0 -65 -68 -145 -227 -145h-4c4 -42 20 -76 80 -76c99 0 190 113 253 194zM236 274c0 26 -15 38 -35 38
c-36 0 -89 -42 -95 -121h6c46 0 124 11 124 83zM216 598c8 0 10 -4 10 -10c0 -4 -1 -10 -1 -16c0 -78 152 -89 152 -120c0 -10 -14 -16 -43 -16c-89 0 -179 39 -179 99c0 39 42 63 61 63z" />
    <glyph glyph-name="egrave.001" 
d="M316 123c5 3 11 4 16 4c4 0 9 -4 9 -11c0 -9 -2 -12 -7 -18c-60 -74 -128 -107 -204 -107c-71 0 -124 45 -124 126c0 121 98 261 233 261c56 0 98 -37 98 -81c0 -65 -68 -145 -227 -145h-4c4 -46 22 -89 82 -89c53 0 97 38 128 60zM236 274c0 26 -15 38 -35 38
c-36 0 -89 -42 -95 -121h6c46 0 124 11 124 83zM216 598c8 0 10 -4 10 -10c0 -4 -1 -10 -1 -16c0 -78 152 -89 152 -120c0 -10 -14 -16 -43 -16c-89 0 -179 39 -179 99c0 39 42 63 61 63z" />
    <glyph glyph-name="eight" unicode="8" horiz-adv-x="543" 
d="M146 498c0 106 117 202 250 202c97 0 154 -63 154 -83c0 -8 -5 -12 -12 -12c-22 0 -45 55 -133 55c-91 0 -154 -56 -154 -121c0 -48 34 -84 80 -121c48 29 86 62 86 103c0 43 -32 54 -60 54c-3 0 -8 0 -8 8c0 15 43 40 77 40c41 0 95 -15 95 -87
c0 -61 -49 -104 -142 -155c66 -53 128 -111 128 -200c0 -120 -110 -211 -272 -211c-125 0 -222 57 -222 165c0 109 101 170 203 223c-42 41 -70 85 -70 140zM375 148c0 67 -58 121 -115 170c-68 -40 -121 -93 -121 -157c0 -72 44 -130 120 -130c73 0 116 53 116 117z" />
    <glyph glyph-name="ellipsis" unicode="&#x2026;" horiz-adv-x="603" 
d="M59 -9c-34 0 -59 24 -59 54c0 43 43 81 91 81c34 0 56 -24 56 -53c0 -43 -42 -82 -88 -82zM260 -9c-34 0 -59 24 -59 54c0 43 43 81 91 81c34 0 56 -24 56 -53c0 -43 -42 -82 -88 -82zM461 -9c-34 0 -59 24 -59 54c0 43 43 81 91 81c34 0 56 -24 56 -53
c0 -43 -42 -82 -88 -82z" />
    <glyph glyph-name="emacron" unicode="&#x113;" 
d="M439 270c5 6 10 8 15 8c8 0 15 -6 15 -15c0 -5 -1 -7 -3 -11c-113 -158 -211 -261 -336 -261c-71 0 -124 45 -124 126c0 121 98 261 233 261c56 0 98 -37 98 -81c0 -65 -68 -145 -227 -145h-4c4 -42 20 -76 80 -76c99 0 190 113 253 194zM236 274c0 26 -15 38 -35 38
c-36 0 -89 -42 -95 -121h6c46 0 124 11 124 83zM265 507c49 0 75 0 111 9c35 10 45 16 55 16c5 0 7 -7 7 -14c0 -34 -28 -83 -80 -83c-87 0 -164 9 -210 9c-17 0 -34 8 -34 26c0 16 36 44 61 44c24 0 41 -7 90 -7z" />
    <glyph glyph-name="emacron.001" 
d="M316 123c5 3 11 4 16 4c4 0 9 -4 9 -11c0 -9 -2 -12 -7 -18c-60 -74 -128 -107 -204 -107c-71 0 -124 45 -124 126c0 121 98 261 233 261c56 0 98 -37 98 -81c0 -65 -68 -145 -227 -145h-4c4 -46 22 -89 82 -89c53 0 97 38 128 60zM236 274c0 26 -15 38 -35 38
c-36 0 -89 -42 -95 -121h6c46 0 124 11 124 83zM265 507c49 0 75 0 111 9c35 10 45 16 55 16c5 0 7 -7 7 -14c0 -34 -28 -83 -80 -83c-87 0 -164 9 -210 9c-17 0 -34 8 -34 26c0 16 36 44 61 44c24 0 41 -7 90 -7z" />
    <glyph glyph-name="emdash" unicode="&#x2014;" horiz-adv-x="616" 
d="M324 303c60 0 156 4 199 15c44 12 56 28 68 28c6 0 9 -8 9 -17c0 -42 -35 -123 -99 -123c-75 0 -350 33 -376 33c-13 0 -27 -9 -39 -9c-21 0 -42 10 -42 31c0 20 44 54 75 54c30 0 146 -12 205 -12z" />
    <glyph glyph-name="endash" unicode="&#x2013;" horiz-adv-x="448" 
d="M229 303c60 0 83 4 126 15c44 12 56 28 68 28c6 0 9 -8 9 -17c0 -42 -35 -123 -99 -123c-75 0 -182 33 -208 33c-13 0 -27 -9 -39 -9c-21 0 -42 10 -42 31c0 20 44 54 75 54c30 0 51 -12 110 -12z" />
    <glyph glyph-name="eng" unicode="&#x14b;" horiz-adv-x="446" 
d="M554 278c10 0 15 -7 15 -15c0 -4 -1 -7 -3 -11c-42 -57 -102 -176 -240 -249c-31 -142 -97 -314 -236 -314c-64 0 -99 53 -99 98c0 78 71 135 222 201c26 90 59 262 59 271c0 6 -3 11 -11 11c-25 0 -90 -90 -113 -148c-22 -58 -49 -131 -104 -131c-26 0 -44 18 -44 63
c0 72 33 90 54 234c9 63 48 90 90 90c27 0 38 -18 38 -50c0 -28 -8 -66 -23 -112c51 76 123 162 187 162c33 0 50 -21 50 -54c0 -34 -42 -169 -60 -269c112 72 168 171 203 215c4 5 9 8 15 8zM98 -207c40 0 84 82 106 156c-70 -32 -137 -83 -137 -125c0 -18 13 -31 31 -31z
" />
    <glyph glyph-name="eogonek" unicode="&#x119;" 
d="M454 278c8 0 15 -6 15 -15c0 -5 -1 -7 -3 -11c-34 -47 -64 -91 -98 -125c-91 -94 -199 -165 -199 -253c0 -51 45 -45 45 -61c0 -28 -37 -59 -82 -59c-47 0 -76 30 -76 71c0 71 126 174 126 174s-25 -8 -52 -8c-71 0 -124 45 -124 126c0 121 98 261 233 261
c56 0 98 -37 98 -81c0 -65 -68 -145 -227 -145h-4c4 -42 20 -76 80 -76c99 0 190 113 253 194c5 6 10 8 15 8zM201 312c-36 0 -89 -42 -95 -121h6c46 0 124 11 124 83c0 26 -15 38 -35 38z" />
    </font>
</defs>
</svg>
